<svg width="1158" height="1141" xmlns="http://www.w3.org/2000/svg" xmlns:xlink="http://www.w3.org/1999/xlink" xml:space="preserve" overflow="hidden"><g transform="translate(17 -638)"><text font-family="Times New Roman,Times New Roman_MSFontService,sans-serif" font-style="italic" font-weight="400" font-size="92" transform="matrix(1 0 0 1 738.12 1239)">v</text><text font-family="Times New Roman,Times New Roman_MSFontService,sans-serif" font-weight="400" font-size="61" transform="matrix(1 0 0 1 778.797 1261)">3</text><text font-family="Times New Roman,Times New Roman_MSFontService,sans-serif" font-style="italic" font-weight="400" font-size="92" transform="matrix(1 0 0 1 38.9583 900)">v</text><text font-family="Times New Roman,Times New Roman_MSFontService,sans-serif" font-weight="400" font-size="61" transform="matrix(1 0 0 1 79.6354 922)">1</text><text font-family="Times New Roman,Times New Roman_MSFontService,sans-serif" font-style="italic" font-weight="400" font-size="92" transform="matrix(1 0 0 1 811.671 755)">v</text><text font-family="Times New Roman,Times New Roman_MSFontService,sans-serif" font-weight="400" font-size="61" transform="matrix(1 0 0 1 852.348 777)">2</text><text font-family="Times New Roman,Times New Roman_MSFontService,sans-serif" font-style="italic" font-weight="400" font-size="92" transform="matrix(1 0 0 1 1032.75 1703)">v</text><text font-family="Times New Roman,Times New Roman_MSFontService,sans-serif" font-weight="400" font-size="61" transform="matrix(1 0 0 1 1073.43 1725)">4</text><text font-family="Times New Roman,Times New Roman_MSFontService,sans-serif" font-style="italic" font-weight="400" font-size="92" transform="matrix(1 0 0 1 38.9583 1703)">v</text><text font-family="Times New Roman,Times New Roman_MSFontService,sans-serif" font-weight="400" font-size="61" transform="matrix(1 0 0 1 79.6354 1725)">5</text><text font-family="Times New Roman,Times New Roman_MSFontService,sans-serif" font-style="italic" font-weight="400" font-size="92" transform="matrix(1 0 0 1 480.692 900)">e</text><text font-family="Times New Roman,Times New Roman_MSFontService,sans-serif" font-weight="400" font-size="61" transform="matrix(1 0 0 1 521.369 922)">1</text><text font-family="Times New Roman,Times New Roman_MSFontService,sans-serif" font-style="italic" font-weight="400" font-size="92" transform="matrix(1 0 0 1 774.895 973)">e</text><text font-family="Times New Roman,Times New Roman_MSFontService,sans-serif" font-weight="400" font-size="61" transform="matrix(1 0 0 1 815.573 995)">2</text><text font-family="Times New Roman,Times New Roman_MSFontService,sans-serif" font-style="italic" font-weight="400" font-size="92" transform="matrix(1 0 0 1 922.425 1411)">e</text><text font-family="Times New Roman,Times New Roman_MSFontService,sans-serif" font-weight="400" font-size="61" transform="matrix(1 0 0 1 963.102 1433)">3</text><text font-family="Times New Roman,Times New Roman_MSFontService,sans-serif" font-style="italic" font-weight="400" font-size="92" transform="matrix(1 0 0 1 407.141 1703)">e</text><text font-family="Times New Roman,Times New Roman_MSFontService,sans-serif" font-weight="400" font-size="61" transform="matrix(1 0 0 1 447.818 1725)">4</text><text font-family="Times New Roman,Times New Roman_MSFontService,sans-serif" font-style="italic" font-weight="400" font-size="92" transform="matrix(1 0 0 1 112.509 1302)">e</text><text font-family="Times New Roman,Times New Roman_MSFontService,sans-serif" font-weight="400" font-size="61" transform="matrix(1 0 0 1 153.186 1324)">5</text><text font-family="Times New Roman,Times New Roman_MSFontService,sans-serif" font-style="italic" font-weight="400" font-size="92" transform="matrix(1 0 0 1 544.835 1411)">e</text><text font-family="Times New Roman,Times New Roman_MSFontService,sans-serif" font-weight="400" font-size="61" transform="matrix(1 0 0 1 585.512 1433)">6</text><text font-family="Times New Roman,Times New Roman_MSFontService,sans-serif" font-style="italic" font-weight="400" font-size="92" transform="matrix(1 0 0 1 480.692 1119)">e</text><text font-family="Times New Roman,Times New Roman_MSFontService,sans-serif" font-weight="400" font-size="61" transform="matrix(1 0 0 1 521.369 1141)">7</text><path d="M114.007 937.599 702.224 1210.94 700.776 1214.06 112.559 940.716ZM111.644 953.558 92.5 929.5 123.233 928.62Z" fill="#0000FF"/><path d="M1070.5 1578C1070.5 1572.75 1074.53 1568.5 1079.5 1568.5 1084.47 1568.5 1088.5 1572.75 1088.5 1578 1088.5 1583.25 1084.47 1587.5 1079.5 1587.5 1074.53 1587.5 1070.5 1583.25 1070.5 1578Z" stroke="#000000" stroke-width="3.4375" stroke-linejoin="round" stroke-miterlimit="10" fill-rule="evenodd"/><path d="M67.4999 925C67.4999 919.753 71.7532 915.5 77 915.5 82.2468 915.5 86.5001 919.753 86.5001 925 86.5001 930.247 82.2468 934.5 77 934.5 71.7532 934.5 67.4999 930.247 67.4999 925Z" stroke="#000000" stroke-width="3.4375" stroke-linejoin="round" stroke-miterlimit="10" fill-rule="evenodd"/><path d="M775.5 712C775.5 706.753 779.753 702.5 785 702.5 790.247 702.5 794.5 706.753 794.5 712 794.5 717.247 790.247 721.5 785 721.5 779.753 721.5 775.5 717.247 775.5 712Z" stroke="#000000" stroke-width="3.4375" stroke-linejoin="round" stroke-miterlimit="10" fill-rule="evenodd"/><path d="M76.5002 1587C76.5002 1581.75 80.7534 1577.5 86.0001 1577.5 91.2468 1577.5 95.5001 1581.75 95.5001 1587 95.5001 1592.25 91.2468 1596.5 86.0001 1596.5 80.7534 1596.5 76.5002 1592.25 76.5002 1587Z" stroke="#000000" stroke-width="3.4375" stroke-linejoin="round" stroke-miterlimit="10" fill-rule="evenodd"/><path d="M20.6737 10.0398 605.864 350.514 604.136 353.486 18.945 13.011ZM16.8548 25.7143 0 0 30.6844 1.94476Z" fill="#0000FF" transform="matrix(1 0 0 -1 96.5001 1575.5)"/><path d="M78.2189 921.5 78.2193 1554.58 74.7818 1554.58 74.7814 921.5ZM90.2505 1550 76.5005 1577.5 62.7505 1550Z" fill="#0000FF"/><path d="M0.513862-1.64014 677.645 210.508 676.617 213.789-0.513862 1.64014ZM676.869 197.657 699 219 668.647 223.899Z" fill="#0000FF" transform="matrix(1 0 0 -1 76.5002 921.5)"/><path d="M1.70106-0.245936 70.4217 475.073 67.0196 475.565-1.70106 0.245936ZM81.6734 468.815 71.9998 498 54.4563 472.75Z" fill="#0000FF" transform="matrix(-1 0 0 1 775.5 702.5)"/><path d="M712.709 1221.28 1055.41 1560.16 1053 1562.61 710.292 1223.72ZM1060.61 1548.39 1070.5 1577.5 1041.28 1567.94Z" fill="#0000FF"/><path d="M118.417 1583.78 1089.5 1583.78 1089.5 1587.22 118.417 1587.22ZM123 1599.25 95.5001 1585.5 123 1571.75Z" fill="#0000FF"/><path d="M695.5 1217C695.5 1211.75 699.977 1207.5 705.5 1207.5 711.023 1207.5 715.5 1211.75 715.5 1217 715.5 1222.25 711.023 1226.5 705.5 1226.5 699.977 1226.5 695.5 1222.25 695.5 1217Z" stroke="#000000" stroke-width="3.4375" stroke-linejoin="round" stroke-miterlimit="10" fill-rule="evenodd"/></g></svg>