<svg width="478" height="357" viewBox="0 0 478 357" fill="none" xmlns="http://www.w3.org/2000/svg">
<path d="M0.799988 356.112H476.96V1.29599H0.799988V356.112Z" fill="white"/>
<mask id="mask0_1_27" style="mask-type:luminance" maskUnits="userSpaceOnUse" x="0" y="1" width="477" height="356">
<path d="M476.96 1.29599H0.799988V356.112H476.96V1.29599Z" fill="white"/>
</mask>
<g mask="url(#mask0_1_27)">
<path d="M98.5804 234.867L41.7089 277.284M98.5804 234.867L40.48 121.795M98.5804 234.867L73.03 230.878M98.5804 234.867L277.834 203.321M98.5804 234.867L194.201 80.5001M98.5804 234.867L159.804 319.204M41.7089 277.284L40.48 121.795M41.7089 277.284L73.03 230.878M41.7089 277.284L159.804 319.204M40.48 121.795L73.03 230.878M40.48 121.795L194.201 80.5001M40.48 121.795L245.148 30.864M355.595 103.015L437.28 153.484M355.595 103.015L291.401 97.8397M355.595 103.015L406.976 54.2587M355.595 103.015L323.354 125.973M437.28 153.484L277.834 203.321M437.28 153.484L410.862 300.969M437.28 153.484L406.976 54.2587M437.28 153.484L323.354 125.973M291.401 97.8397L277.834 203.321M291.401 97.8397L194.201 80.5001M291.401 97.8397L406.976 54.2587M291.401 97.8397L245.148 30.864M291.401 97.8397L323.354 125.973M277.834 203.321L311.47 326.544M277.834 203.321L194.201 80.5001M277.834 203.321L410.862 300.969M277.834 203.321L159.804 319.204M277.834 203.321L323.354 125.973M311.47 326.544L410.862 300.969M311.47 326.544L159.804 319.204M194.201 80.5001L245.148 30.864M406.976 54.2587L245.148 30.864" stroke="black" stroke-width="1.33333" stroke-linecap="square"/>
</g>
<mask id="mask1_1_27" style="mask-type:luminance" maskUnits="userSpaceOnUse" x="0" y="1" width="477" height="356">
<path d="M476.96 1.29599H0.799988V356.112H476.96V1.29599Z" fill="white"/>
</mask>
<g mask="url(#mask1_1_27)">
<path d="M41.7089 277.951C41.8857 277.951 42.0553 277.88 42.1803 277.755C42.3053 277.63 42.3756 277.461 42.3756 277.284C42.3756 277.107 42.3053 276.938 42.1803 276.813C42.0553 276.688 41.8857 276.617 41.7089 276.617C41.5321 276.617 41.3625 276.688 41.2375 276.813C41.1125 276.938 41.0422 277.107 41.0422 277.284C41.0422 277.461 41.1125 277.63 41.2375 277.755C41.3625 277.88 41.5321 277.951 41.7089 277.951Z" fill="#1F77B4" stroke="#1F77B4" stroke-width="1.33333"/>
<path d="M98.5804 235.534C98.7572 235.534 98.9267 235.464 99.0518 235.339C99.1768 235.214 99.247 235.044 99.247 234.867C99.247 234.69 99.1768 234.521 99.0518 234.396C98.9267 234.271 98.7572 234.201 98.5804 234.201C98.4036 234.201 98.234 234.271 98.109 234.396C97.9839 234.521 97.9137 234.69 97.9137 234.867C97.9137 235.044 97.9839 235.214 98.109 235.339C98.234 235.464 98.4036 235.534 98.5804 235.534Z" fill="#1F77B4" stroke="#1F77B4" stroke-width="1.33333"/>
<path d="M437.28 154.151C437.457 154.151 437.626 154.08 437.751 153.955C437.876 153.83 437.947 153.661 437.947 153.484C437.947 153.307 437.876 153.138 437.751 153.013C437.626 152.888 437.457 152.817 437.28 152.817C437.103 152.817 436.934 152.888 436.809 153.013C436.684 153.138 436.613 153.307 436.613 153.484C436.613 153.661 436.684 153.83 436.809 153.955C436.934 154.08 437.103 154.151 437.28 154.151Z" fill="#1F77B4" stroke="#1F77B4" stroke-width="1.33333"/>
<path d="M40.48 122.461C40.6568 122.461 40.8264 122.391 40.9514 122.266C41.0764 122.141 41.1467 121.971 41.1467 121.795C41.1467 121.618 41.0764 121.448 40.9514 121.323C40.8264 121.198 40.6568 121.128 40.48 121.128C40.3032 121.128 40.1336 121.198 40.0086 121.323C39.8836 121.448 39.8133 121.618 39.8133 121.795C39.8133 121.971 39.8836 122.141 40.0086 122.266C40.1336 122.391 40.3032 122.461 40.48 122.461Z" fill="#1F77B4" stroke="#1F77B4" stroke-width="1.33333"/>
<path d="M291.401 98.5064C291.578 98.5064 291.747 98.4361 291.872 98.3111C291.997 98.1861 292.068 98.0165 292.068 97.8397C292.068 97.6629 291.997 97.4933 291.872 97.3683C291.747 97.2433 291.578 97.173 291.401 97.173C291.224 97.173 291.055 97.2433 290.93 97.3683C290.805 97.4933 290.734 97.6629 290.734 97.8397C290.734 98.0165 290.805 98.1861 290.93 98.3111C291.055 98.4361 291.224 98.5064 291.401 98.5064Z" fill="#1F77B4" stroke="#1F77B4" stroke-width="1.33333"/>
<path d="M355.595 103.681C355.771 103.681 355.941 103.611 356.066 103.486C356.191 103.361 356.261 103.191 356.261 103.015C356.261 102.838 356.191 102.668 356.066 102.543C355.941 102.418 355.771 102.348 355.595 102.348C355.418 102.348 355.248 102.418 355.123 102.543C354.998 102.668 354.928 102.838 354.928 103.015C354.928 103.191 354.998 103.361 355.123 103.486C355.248 103.611 355.418 103.681 355.595 103.681Z" fill="#1F77B4" stroke="#1F77B4" stroke-width="1.33333"/>
<path d="M73.03 231.545C73.2068 231.545 73.3764 231.474 73.5014 231.349C73.6264 231.224 73.6966 231.055 73.6966 230.878C73.6966 230.701 73.6264 230.532 73.5014 230.407C73.3764 230.281 73.2068 230.211 73.03 230.211C72.8532 230.211 72.6836 230.281 72.5586 230.407C72.4336 230.532 72.3633 230.701 72.3633 230.878C72.3633 231.055 72.4336 231.224 72.5586 231.349C72.6836 231.474 72.8532 231.545 73.03 231.545Z" fill="#1F77B4" stroke="#1F77B4" stroke-width="1.33333"/>
<path d="M277.834 203.988C278.01 203.988 278.18 203.918 278.305 203.793C278.43 203.668 278.5 203.498 278.5 203.321C278.5 203.145 278.43 202.975 278.305 202.85C278.18 202.725 278.01 202.655 277.834 202.655C277.657 202.655 277.487 202.725 277.362 202.85C277.237 202.975 277.167 203.145 277.167 203.321C277.167 203.498 277.237 203.668 277.362 203.793C277.487 203.918 277.657 203.988 277.834 203.988Z" fill="#1F77B4" stroke="#1F77B4" stroke-width="1.33333"/>
<path d="M311.47 327.211C311.647 327.211 311.817 327.14 311.942 327.015C312.067 326.89 312.137 326.721 312.137 326.544C312.137 326.367 312.067 326.198 311.942 326.073C311.817 325.948 311.647 325.877 311.47 325.877C311.293 325.877 311.124 325.948 310.999 326.073C310.874 326.198 310.804 326.367 310.804 326.544C310.804 326.721 310.874 326.89 310.999 327.015C311.124 327.14 311.293 327.211 311.47 327.211Z" fill="#1F77B4" stroke="#1F77B4" stroke-width="1.33333"/>
<path d="M194.201 81.1668C194.378 81.1668 194.547 81.0966 194.672 80.9715C194.797 80.8465 194.868 80.6769 194.868 80.5001C194.868 80.3233 194.797 80.1537 194.672 80.0287C194.547 79.9037 194.378 79.8335 194.201 79.8335C194.024 79.8335 193.855 79.9037 193.73 80.0287C193.605 80.1537 193.534 80.3233 193.534 80.5001C193.534 80.6769 193.605 80.8465 193.73 80.9715C193.855 81.0966 194.024 81.1668 194.201 81.1668Z" fill="#1F77B4" stroke="#1F77B4" stroke-width="1.33333"/>
<path d="M410.862 301.635C411.039 301.635 411.208 301.565 411.334 301.44C411.459 301.315 411.529 301.146 411.529 300.969C411.529 300.792 411.459 300.622 411.334 300.497C411.208 300.372 411.039 300.302 410.862 300.302C410.685 300.302 410.516 300.372 410.391 300.497C410.266 300.622 410.195 300.792 410.195 300.969C410.195 301.146 410.266 301.315 410.391 301.44C410.516 301.565 410.685 301.635 410.862 301.635Z" fill="#1F77B4" stroke="#1F77B4" stroke-width="1.33333"/>
<path d="M159.804 319.87C159.981 319.87 160.15 319.8 160.275 319.675C160.4 319.55 160.47 319.381 160.47 319.204C160.47 319.027 160.4 318.857 160.275 318.732C160.15 318.607 159.981 318.537 159.804 318.537C159.627 318.537 159.457 318.607 159.332 318.732C159.207 318.857 159.137 319.027 159.137 319.204C159.137 319.381 159.207 319.55 159.332 319.675C159.457 319.8 159.627 319.87 159.804 319.87Z" fill="#1F77B4" stroke="#1F77B4" stroke-width="1.33333"/>
<path d="M406.976 54.9253C407.153 54.9253 407.322 54.8551 407.447 54.7301C407.572 54.6051 407.643 54.4355 407.643 54.2587C407.643 54.0819 407.572 53.9123 407.447 53.7873C407.322 53.6623 407.153 53.592 406.976 53.592C406.799 53.592 406.63 53.6623 406.505 53.7873C406.38 53.9123 406.309 54.0819 406.309 54.2587C406.309 54.4355 406.38 54.6051 406.505 54.7301C406.63 54.8551 406.799 54.9253 406.976 54.9253Z" fill="#1F77B4" stroke="#1F77B4" stroke-width="1.33333"/>
<path d="M245.148 31.5307C245.325 31.5307 245.494 31.4604 245.619 31.3354C245.744 31.2104 245.815 31.0408 245.815 30.864C245.815 30.6872 245.744 30.5176 245.619 30.3926C245.494 30.2676 245.325 30.1973 245.148 30.1973C244.971 30.1973 244.802 30.2676 244.677 30.3926C244.552 30.5176 244.481 30.6872 244.481 30.864C244.481 31.0408 244.552 31.2104 244.677 31.3354C244.802 31.4604 244.971 31.5307 245.148 31.5307Z" fill="#1F77B4" stroke="#1F77B4" stroke-width="1.33333"/>
<path d="M323.354 126.64C323.531 126.64 323.701 126.569 323.826 126.444C323.951 126.319 324.021 126.15 324.021 125.973C324.021 125.796 323.951 125.627 323.826 125.502C323.701 125.377 323.531 125.306 323.354 125.306C323.177 125.306 323.008 125.377 322.883 125.502C322.758 125.627 322.688 125.796 322.688 125.973C322.688 126.15 322.758 126.319 322.883 126.444C323.008 126.569 323.177 126.64 323.354 126.64Z" fill="#1F77B4" stroke="#1F77B4" stroke-width="1.33333"/>
</g>
<mask id="mask2_1_27" style="mask-type:luminance" maskUnits="userSpaceOnUse" x="0" y="1" width="477" height="356">
<path d="M476.96 1.29599H0.799988V356.112H476.96V1.29599Z" fill="white"/>
</mask>
<g mask="url(#mask2_1_27)">
<path d="M380.377 222.499L337.366 257.89" stroke="#0000FF" stroke-opacity="0.6" stroke-width="2.66667"/>
</g>
<mask id="mask3_1_27" style="mask-type:luminance" maskUnits="userSpaceOnUse" x="0" y="1" width="477" height="356">
<path d="M476.96 1.29599H0.799988V356.112H476.96V1.29599Z" fill="white"/>
</mask>
<g mask="url(#mask3_1_27)">
<path d="M337.366 257.89L239.552 274.017" stroke="#0000FF" stroke-opacity="0.6" stroke-width="2.66667"/>
</g>
<mask id="mask4_1_27" style="mask-type:luminance" maskUnits="userSpaceOnUse" x="0" y="1" width="477" height="356">
<path d="M476.96 1.29599H0.799988V356.112H476.96V1.29599Z" fill="white"/>
</mask>
<g mask="url(#mask4_1_27)">
<path d="M380.377 222.499L361.674 186.358" stroke="#0000FF" stroke-opacity="0.6" stroke-width="2.66667"/>
</g>
<mask id="mask5_1_27" style="mask-type:luminance" maskUnits="userSpaceOnUse" x="0" y="1" width="477" height="356">
<path d="M476.96 1.29599H0.799988V356.112H476.96V1.29599Z" fill="white"/>
</mask>
<g mask="url(#mask5_1_27)">
<path d="M361.674 186.358L377.508 146.753" stroke="#0000FF" stroke-opacity="0.6" stroke-width="2.66667"/>
</g>
<mask id="mask6_1_27" style="mask-type:luminance" maskUnits="userSpaceOnUse" x="0" y="1" width="477" height="356">
<path d="M476.96 1.29599H0.799988V356.112H476.96V1.29599Z" fill="white"/>
</mask>
<g mask="url(#mask6_1_27)">
<path d="M421.2 104.043L377.508 146.753" stroke="#0000FF" stroke-opacity="0.6" stroke-width="2.66667"/>
</g>
<mask id="mask7_1_27" style="mask-type:luminance" maskUnits="userSpaceOnUse" x="0" y="1" width="477" height="356">
<path d="M476.96 1.29599H0.799988V356.112H476.96V1.29599Z" fill="white"/>
</mask>
<g mask="url(#mask7_1_27)">
<path d="M239.552 274.017L196.492 247.527" stroke="#0000FF" stroke-opacity="0.6" stroke-width="2.66667"/>
</g>
<mask id="mask8_1_27" style="mask-type:luminance" maskUnits="userSpaceOnUse" x="0" y="1" width="477" height="356">
<path d="M476.96 1.29599H0.799988V356.112H476.96V1.29599Z" fill="white"/>
</mask>
<g mask="url(#mask8_1_27)">
<path d="M196.492 247.527L107.676 286.469" stroke="#0000FF" stroke-opacity="0.6" stroke-width="2.66667"/>
</g>
<mask id="mask9_1_27" style="mask-type:luminance" maskUnits="userSpaceOnUse" x="0" y="1" width="477" height="356">
<path d="M476.96 1.29599H0.799988V356.112H476.96V1.29599Z" fill="white"/>
</mask>
<g mask="url(#mask9_1_27)">
<path d="M247.582 72.9829L326.677 39.9916" stroke="#0000FF" stroke-opacity="0.6" stroke-width="2.66667"/>
</g>
<mask id="mask10_1_27" style="mask-type:luminance" maskUnits="userSpaceOnUse" x="0" y="1" width="477" height="356">
<path d="M476.96 1.29599H0.799988V356.112H476.96V1.29599Z" fill="white"/>
</mask>
<g mask="url(#mask10_1_27)">
<path d="M247.582 72.9829L226.008 146.027" stroke="#0000FF" stroke-opacity="0.6" stroke-width="2.66667"/>
</g>
<mask id="mask11_1_27" style="mask-type:luminance" maskUnits="userSpaceOnUse" x="0" y="1" width="477" height="356">
<path d="M476.96 1.29599H0.799988V356.112H476.96V1.29599Z" fill="white"/>
</mask>
<g mask="url(#mask11_1_27)">
<path d="M226.008 146.027L254.421 148.235" stroke="#0000FF" stroke-opacity="0.6" stroke-width="2.66667"/>
</g>
<mask id="mask12_1_27" style="mask-type:luminance" maskUnits="userSpaceOnUse" x="0" y="1" width="477" height="356">
<path d="M476.96 1.29599H0.799988V356.112H476.96V1.29599Z" fill="white"/>
</mask>
<g mask="url(#mask12_1_27)">
<path d="M254.421 148.235L323.436 100.89" stroke="#0000FF" stroke-opacity="0.6" stroke-width="2.66667"/>
</g>
<mask id="mask13_1_27" style="mask-type:luminance" maskUnits="userSpaceOnUse" x="0" y="1" width="477" height="356">
<path d="M476.96 1.29599H0.799988V356.112H476.96V1.29599Z" fill="white"/>
</mask>
<g mask="url(#mask13_1_27)">
<path d="M323.436 100.89L330.703 46.4408" stroke="#0000FF" stroke-opacity="0.6" stroke-width="2.66667"/>
</g>
<mask id="mask14_1_27" style="mask-type:luminance" maskUnits="userSpaceOnUse" x="0" y="1" width="477" height="356">
<path d="M476.96 1.29599H0.799988V356.112H476.96V1.29599Z" fill="white"/>
</mask>
<g mask="url(#mask14_1_27)">
<path d="M326.677 39.9916L330.703 46.4408" stroke="#0000FF" stroke-opacity="0.6" stroke-width="2.66667"/>
</g>
<mask id="mask15_1_27" style="mask-type:luminance" maskUnits="userSpaceOnUse" x="0" y="1" width="477" height="356">
<path d="M476.96 1.29599H0.799988V356.112H476.96V1.29599Z" fill="white"/>
</mask>
<g mask="url(#mask15_1_27)">
<path d="M50.4628 -49.2189L247.582 72.9829" stroke="#0000FF" stroke-opacity="0.6" stroke-width="2.66667"/>
</g>
<mask id="mask16_1_27" style="mask-type:luminance" maskUnits="userSpaceOnUse" x="0" y="1" width="477" height="356">
<path d="M476.96 1.29599H0.799988V356.112H476.96V1.29599Z" fill="white"/>
</mask>
<g mask="url(#mask16_1_27)">
<path d="M50.4628 -49.2189L141.706 155.931" stroke="#0000FF" stroke-opacity="0.6" stroke-width="2.66667"/>
</g>
<mask id="mask17_1_27" style="mask-type:luminance" maskUnits="userSpaceOnUse" x="0" y="1" width="477" height="356">
<path d="M476.96 1.29599H0.799988V356.112H476.96V1.29599Z" fill="white"/>
</mask>
<g mask="url(#mask17_1_27)">
<path d="M141.706 155.931L173.241 167.729" stroke="#0000FF" stroke-opacity="0.6" stroke-width="2.66667"/>
</g>
<mask id="mask18_1_27" style="mask-type:luminance" maskUnits="userSpaceOnUse" x="0" y="1" width="477" height="356">
<path d="M476.96 1.29599H0.799988V356.112H476.96V1.29599Z" fill="white"/>
</mask>
<g mask="url(#mask18_1_27)">
<path d="M173.241 167.729L226.008 146.027" stroke="#0000FF" stroke-opacity="0.6" stroke-width="2.66667"/>
</g>
<mask id="mask19_1_27" style="mask-type:luminance" maskUnits="userSpaceOnUse" x="0" y="1" width="477" height="356">
<path d="M476.96 1.29599H0.799988V356.112H476.96V1.29599Z" fill="white"/>
</mask>
<g mask="url(#mask19_1_27)">
<path d="M361.674 186.358L254.421 148.235" stroke="#0000FF" stroke-opacity="0.6" stroke-width="2.66667"/>
</g>
<mask id="mask20_1_27" style="mask-type:luminance" maskUnits="userSpaceOnUse" x="0" y="1" width="477" height="356">
<path d="M476.96 1.29599H0.799988V356.112H476.96V1.29599Z" fill="white"/>
</mask>
<g mask="url(#mask20_1_27)">
<path d="M196.492 247.527L173.241 167.729" stroke="#0000FF" stroke-opacity="0.6" stroke-width="2.66667"/>
</g>
<mask id="mask21_1_27" style="mask-type:luminance" maskUnits="userSpaceOnUse" x="0" y="1" width="477" height="356">
<path d="M476.96 1.29599H0.799988V356.112H476.96V1.29599Z" fill="white"/>
</mask>
<g mask="url(#mask21_1_27)">
<path d="M377.508 146.753L323.436 100.89" stroke="#0000FF" stroke-opacity="0.6" stroke-width="2.66667"/>
</g>
<mask id="mask22_1_27" style="mask-type:luminance" maskUnits="userSpaceOnUse" x="0" y="1" width="477" height="356">
<path d="M476.96 1.29599H0.799988V356.112H476.96V1.29599Z" fill="white"/>
</mask>
<g mask="url(#mask22_1_27)">
<path d="M421.2 104.043L330.703 46.4408" stroke="#0000FF" stroke-opacity="0.6" stroke-width="2.66667"/>
</g>
<mask id="mask23_1_27" style="mask-type:luminance" maskUnits="userSpaceOnUse" x="0" y="1" width="477" height="356">
<path d="M476.96 1.29599H0.799988V356.112H476.96V1.29599Z" fill="white"/>
</mask>
<g mask="url(#mask23_1_27)">
<path d="M-75.0649 200.094L78.1344 262.546" stroke="#0000FF" stroke-opacity="0.6" stroke-width="2.66667"/>
</g>
<mask id="mask24_1_27" style="mask-type:luminance" maskUnits="userSpaceOnUse" x="0" y="1" width="477" height="356">
<path d="M476.96 1.29599H0.799988V356.112H476.96V1.29599Z" fill="white"/>
</mask>
<g mask="url(#mask24_1_27)">
<path d="M-75.0649 200.094L102.554 168.082" stroke="#0000FF" stroke-opacity="0.6" stroke-width="2.66667"/>
</g>
<mask id="mask25_1_27" style="mask-type:luminance" maskUnits="userSpaceOnUse" x="0" y="1" width="477" height="356">
<path d="M476.96 1.29599H0.799988V356.112H476.96V1.29599Z" fill="white"/>
</mask>
<g mask="url(#mask25_1_27)">
<path d="M102.554 168.082L78.1344 262.546" stroke="#0000FF" stroke-opacity="0.6" stroke-width="2.66667"/>
</g>
<mask id="mask26_1_27" style="mask-type:luminance" maskUnits="userSpaceOnUse" x="0" y="1" width="477" height="356">
<path d="M476.96 1.29599H0.799988V356.112H476.96V1.29599Z" fill="white"/>
</mask>
<g mask="url(#mask26_1_27)">
<path d="M107.676 286.469L78.1344 262.546" stroke="#0000FF" stroke-opacity="0.6" stroke-width="2.66667"/>
</g>
<mask id="mask27_1_27" style="mask-type:luminance" maskUnits="userSpaceOnUse" x="0" y="1" width="477" height="356">
<path d="M476.96 1.29599H0.799988V356.112H476.96V1.29599Z" fill="white"/>
</mask>
<g mask="url(#mask27_1_27)">
<path d="M141.706 155.931L102.554 168.082" stroke="#0000FF" stroke-opacity="0.6" stroke-width="2.66667"/>
</g>
<mask id="mask28_1_27" style="mask-type:luminance" maskUnits="userSpaceOnUse" x="0" y="1" width="477" height="356">
<path d="M476.96 1.29599H0.799988V356.112H476.96V1.29599Z" fill="white"/>
</mask>
<g mask="url(#mask28_1_27)">
<path d="M380.377 222.499L539.733 239.74" stroke="#0000FF" stroke-opacity="0.6" stroke-width="2.66667"/>
</g>
<mask id="mask29_1_27" style="mask-type:luminance" maskUnits="userSpaceOnUse" x="0" y="1" width="477" height="356">
<path d="M476.96 1.29599H0.799988V356.112H476.96V1.29599Z" fill="white"/>
</mask>
<g mask="url(#mask29_1_27)">
<path d="M337.366 257.89L401.374 408.133" stroke="#0000FF" stroke-opacity="0.6" stroke-width="2.66667"/>
</g>
<mask id="mask30_1_27" style="mask-type:luminance" maskUnits="userSpaceOnUse" x="0" y="1" width="477" height="356">
<path d="M476.96 1.29599H0.799988V356.112H476.96V1.29599Z" fill="white"/>
</mask>
<g mask="url(#mask30_1_27)">
<path d="M239.552 274.017L228.805 408.133" stroke="#0000FF" stroke-opacity="0.6" stroke-width="2.66667"/>
</g>
<mask id="mask31_1_27" style="mask-type:luminance" maskUnits="userSpaceOnUse" x="0" y="1" width="477" height="356">
<path d="M476.96 1.29599H0.799988V356.112H476.96V1.29599Z" fill="white"/>
</mask>
<g mask="url(#mask31_1_27)">
<path d="M421.2 104.043L539.733 82.1776" stroke="#0000FF" stroke-opacity="0.6" stroke-width="2.66667"/>
</g>
<mask id="mask32_1_27" style="mask-type:luminance" maskUnits="userSpaceOnUse" x="0" y="1" width="477" height="356">
<path d="M476.96 1.29599H0.799988V356.112H476.96V1.29599Z" fill="white"/>
</mask>
<g mask="url(#mask32_1_27)">
<path d="M107.676 286.469L36.1735 408.133" stroke="#0000FF" stroke-opacity="0.6" stroke-width="2.66667"/>
</g>
<mask id="mask33_1_27" style="mask-type:luminance" maskUnits="userSpaceOnUse" x="0" y="1" width="477" height="356">
<path d="M476.96 1.29599H0.799988V356.112H476.96V1.29599Z" fill="white"/>
</mask>
<g mask="url(#mask33_1_27)">
<path d="M326.677 39.9916L349.493 -55.3333" stroke="#0000FF" stroke-opacity="0.6" stroke-width="2.66667"/>
</g>
<mask id="mask34_1_27" style="mask-type:luminance" maskUnits="userSpaceOnUse" x="0" y="1" width="477" height="356">
<path d="M476.96 1.29599H0.799988V356.112H476.96V1.29599Z" fill="white"/>
</mask>
<g mask="url(#mask34_1_27)">
<path d="M41.7089 281.284C42.7697 281.284 43.7872 280.863 44.5373 280.112C45.2875 279.362 45.7089 278.345 45.7089 277.284C45.7089 276.223 45.2875 275.206 44.5373 274.456C43.7872 273.705 42.7697 273.284 41.7089 273.284C40.6481 273.284 39.6306 273.705 38.8805 274.456C38.1304 275.206 37.7089 276.223 37.7089 277.284C37.7089 278.345 38.1304 279.362 38.8805 280.112C39.6306 280.863 40.6481 281.284 41.7089 281.284Z" fill="#FF0000" stroke="#FF0000" stroke-width="1.33333"/>
<path d="M98.5804 238.867C99.6412 238.867 100.659 238.446 101.409 237.696C102.159 236.946 102.58 235.928 102.58 234.867C102.58 233.806 102.159 232.789 101.409 232.039C100.659 231.289 99.6412 230.867 98.5804 230.867C97.5195 230.867 96.502 231.289 95.7519 232.039C95.0018 232.789 94.5804 233.806 94.5804 234.867C94.5804 235.928 95.0018 236.946 95.7519 237.696C96.502 238.446 97.5195 238.867 98.5804 238.867Z" fill="#FF0000" stroke="#FF0000" stroke-width="1.33333"/>
<path d="M437.28 157.484C438.341 157.484 439.358 157.062 440.108 156.312C440.859 155.562 441.28 154.545 441.28 153.484C441.28 152.423 440.859 151.406 440.108 150.656C439.358 149.905 438.341 149.484 437.28 149.484C436.219 149.484 435.202 149.905 434.452 150.656C433.701 151.406 433.28 152.423 433.28 153.484C433.28 154.545 433.701 155.562 434.452 156.312C435.202 157.062 436.219 157.484 437.28 157.484Z" fill="#FF0000" stroke="#FF0000" stroke-width="1.33333"/>
<path d="M40.48 125.795C41.5408 125.795 42.5583 125.373 43.3084 124.623C44.0585 123.873 44.48 122.855 44.48 121.795C44.48 120.734 44.0585 119.716 43.3084 118.966C42.5583 118.216 41.5408 117.795 40.48 117.795C39.4192 117.795 38.4017 118.216 37.6516 118.966C36.9015 119.716 36.48 120.734 36.48 121.795C36.48 122.855 36.9015 123.873 37.6516 124.623C38.4017 125.373 39.4192 125.795 40.48 125.795Z" fill="#FF0000" stroke="#FF0000" stroke-width="1.33333"/>
<path d="M291.401 101.84C292.462 101.84 293.479 101.418 294.229 100.668C294.98 99.918 295.401 98.9005 295.401 97.8397C295.401 96.7789 294.98 95.7614 294.229 95.0113C293.479 94.2612 292.462 93.8397 291.401 93.8397C290.34 93.8397 289.323 94.2612 288.573 95.0113C287.822 95.7614 287.401 96.7789 287.401 97.8397C287.401 98.9005 287.822 99.918 288.573 100.668C289.323 101.418 290.34 101.84 291.401 101.84Z" fill="#FF0000" stroke="#FF0000" stroke-width="1.33333"/>
<path d="M355.595 107.015C356.655 107.015 357.673 106.593 358.423 105.843C359.173 105.093 359.595 104.075 359.595 103.015C359.595 101.954 359.173 100.936 358.423 100.186C357.673 99.4361 356.655 99.0146 355.595 99.0146C354.534 99.0146 353.516 99.4361 352.766 100.186C352.016 100.936 351.595 101.954 351.595 103.015C351.595 104.075 352.016 105.093 352.766 105.843C353.516 106.593 354.534 107.015 355.595 107.015Z" fill="#FF0000" stroke="#FF0000" stroke-width="1.33333"/>
<path d="M73.03 234.878C74.0908 234.878 75.1083 234.456 75.8584 233.706C76.6085 232.956 77.03 231.939 77.03 230.878C77.03 229.817 76.6085 228.8 75.8584 228.049C75.1083 227.299 74.0908 226.878 73.03 226.878C71.9692 226.878 70.9516 227.299 70.2015 228.049C69.4514 228.8 69.03 229.817 69.03 230.878C69.03 231.939 69.4514 232.956 70.2015 233.706C70.9516 234.456 71.9692 234.878 73.03 234.878Z" fill="#FF0000" stroke="#FF0000" stroke-width="1.33333"/>
<path d="M277.834 207.321C278.894 207.321 279.912 206.9 280.662 206.15C281.412 205.4 281.834 204.382 281.834 203.321C281.834 202.261 281.412 201.243 280.662 200.493C279.912 199.743 278.894 199.321 277.834 199.321C276.773 199.321 275.755 199.743 275.005 200.493C274.255 201.243 273.834 202.261 273.834 203.321C273.834 204.382 274.255 205.4 275.005 206.15C275.755 206.9 276.773 207.321 277.834 207.321Z" fill="#FF0000" stroke="#FF0000" stroke-width="1.33333"/>
<path d="M311.47 330.544C312.531 330.544 313.549 330.123 314.299 329.372C315.049 328.622 315.47 327.605 315.47 326.544C315.47 325.483 315.049 324.466 314.299 323.716C313.549 322.965 312.531 322.544 311.47 322.544C310.409 322.544 309.392 322.965 308.642 323.716C307.892 324.466 307.47 325.483 307.47 326.544C307.47 327.605 307.892 328.622 308.642 329.372C309.392 330.123 310.409 330.544 311.47 330.544Z" fill="#FF0000" stroke="#FF0000" stroke-width="1.33333"/>
<path d="M194.201 84.5001C195.262 84.5001 196.279 84.0787 197.029 83.3285C197.78 82.5784 198.201 81.5609 198.201 80.5001C198.201 79.4393 197.78 78.4218 197.029 77.6717C196.279 76.9216 195.262 76.5001 194.201 76.5001C193.14 76.5001 192.123 76.9216 191.373 77.6717C190.622 78.4218 190.201 79.4393 190.201 80.5001C190.201 81.5609 190.622 82.5784 191.373 83.3285C192.123 84.0787 193.14 84.5001 194.201 84.5001Z" fill="#FF0000" stroke="#FF0000" stroke-width="1.33333"/>
<path d="M410.862 304.969C411.923 304.969 412.94 304.547 413.691 303.797C414.441 303.047 414.862 302.03 414.862 300.969C414.862 299.908 414.441 298.89 413.691 298.14C412.94 297.39 411.923 296.969 410.862 296.969C409.801 296.969 408.784 297.39 408.034 298.14C407.284 298.89 406.862 299.908 406.862 300.969C406.862 302.03 407.284 303.047 408.034 303.797C408.784 304.547 409.801 304.969 410.862 304.969Z" fill="#FF0000" stroke="#FF0000" stroke-width="1.33333"/>
<path d="M159.804 323.204C160.865 323.204 161.882 322.782 162.632 322.032C163.382 321.282 163.804 320.265 163.804 319.204C163.804 318.143 163.382 317.126 162.632 316.375C161.882 315.625 160.865 315.204 159.804 315.204C158.743 315.204 157.725 315.625 156.975 316.375C156.225 317.126 155.804 318.143 155.804 319.204C155.804 320.265 156.225 321.282 156.975 322.032C157.725 322.782 158.743 323.204 159.804 323.204Z" fill="#FF0000" stroke="#FF0000" stroke-width="1.33333"/>
<path d="M406.976 58.2587C408.037 58.2587 409.054 57.8372 409.804 57.0871C410.554 56.337 410.976 55.3195 410.976 54.2587C410.976 53.1979 410.554 52.1803 409.804 51.4302C409.054 50.6801 408.037 50.2587 406.976 50.2587C405.915 50.2587 404.898 50.6801 404.147 51.4302C403.397 52.1803 402.976 53.1979 402.976 54.2587C402.976 55.3195 403.397 56.337 404.147 57.0871C404.898 57.8372 405.915 58.2587 406.976 58.2587Z" fill="#FF0000" stroke="#FF0000" stroke-width="1.33333"/>
<path d="M245.148 34.864C246.209 34.864 247.226 34.4425 247.976 33.6924C248.727 32.9423 249.148 31.9248 249.148 30.864C249.148 29.8032 248.727 28.7857 247.976 28.0356C247.226 27.2854 246.209 26.864 245.148 26.864C244.087 26.864 243.07 27.2854 242.32 28.0356C241.57 28.7857 241.148 29.8032 241.148 30.864C241.148 31.9248 241.57 32.9423 242.32 33.6924C243.07 34.4425 244.087 34.864 245.148 34.864Z" fill="#FF0000" stroke="#FF0000" stroke-width="1.33333"/>
<path d="M323.354 129.973C324.415 129.973 325.433 129.552 326.183 128.801C326.933 128.051 327.354 127.034 327.354 125.973C327.354 124.912 326.933 123.895 326.183 123.145C325.433 122.394 324.415 121.973 323.354 121.973C322.293 121.973 321.276 122.394 320.526 123.145C319.776 123.895 319.354 124.912 319.354 125.973C319.354 127.034 319.776 128.051 320.526 128.801C321.276 129.552 322.293 129.973 323.354 129.973Z" fill="#FF0000" stroke="#FF0000" stroke-width="1.33333"/>
</g>
<path d="M0.799988 356.112V1.29599" stroke="black" stroke-width="1.06667" stroke-linecap="square"/>
<path d="M476.96 356.112V1.29599" stroke="black" stroke-width="1.06667" stroke-linecap="square"/>
<path d="M0.799988 356.112H476.96" stroke="black" stroke-width="1.06667" stroke-linecap="square"/>
<path d="M0.799988 1.29599H476.96" stroke="black" stroke-width="1.06667" stroke-linecap="square"/>
<path opacity="0.8" d="M10.1333 67H148.117C149.894 67 150.783 65.7836 150.783 63.3508V11.6119C150.783 9.17906 149.894 7.96266 148.117 7.96266H10.1333C8.35555 7.96266 7.46666 9.17906 7.46666 11.6119V63.3508C7.46666 65.7836 8.35555 67 10.1333 67Z" fill="white" stroke="#CCCCCC" stroke-width="1.33333"/>
<path d="M12.8 36.7606H26.1333H39.4667" stroke="black" stroke-width="1.33333" stroke-linecap="square"/>
<path d="M49.75 42H47.0568V33.2727H49.8693C50.7159 33.2727 51.4403 33.4474 52.0426 33.7969C52.6449 34.1435 53.1065 34.642 53.4276 35.2926C53.7486 35.9403 53.9091 36.7159 53.9091 37.6193C53.9091 38.5284 53.7472 39.3111 53.4233 39.9673C53.0994 40.6207 52.6278 41.1236 52.0085 41.4759C51.3892 41.8253 50.6364 42 49.75 42ZM48.1136 41.0625H49.6818C50.4034 41.0625 51.0014 40.9233 51.4759 40.6449C51.9503 40.3665 52.304 39.9702 52.5369 39.456C52.7699 38.9418 52.8864 38.3295 52.8864 37.6193C52.8864 36.9148 52.7713 36.3082 52.5412 35.7997C52.3111 35.2884 51.9673 34.8963 51.5099 34.6236C51.0526 34.348 50.483 34.2102 49.8011 34.2102H48.1136V41.0625ZM58.2898 42.1364C57.6591 42.1364 57.1151 41.9972 56.6577 41.7188C56.2031 41.4375 55.8523 41.0455 55.6051 40.5426C55.3608 40.0369 55.2386 39.4489 55.2386 38.7784C55.2386 38.108 55.3608 37.517 55.6051 37.0057C55.8523 36.4915 56.196 36.0909 56.6364 35.804C57.0795 35.5142 57.5966 35.3693 58.1875 35.3693C58.5284 35.3693 58.8651 35.4261 59.1974 35.5398C59.5298 35.6534 59.8324 35.8381 60.1051 36.0938C60.3778 36.3466 60.5952 36.6818 60.7571 37.0994C60.919 37.517 61 38.0312 61 38.642V39.0682H55.9545V38.1989H59.9773C59.9773 37.8295 59.9034 37.5 59.7557 37.2102C59.6108 36.9205 59.4034 36.6918 59.1335 36.5241C58.8665 36.3565 58.5511 36.2727 58.1875 36.2727C57.7869 36.2727 57.4403 36.3722 57.1477 36.571C56.858 36.767 56.6349 37.0227 56.4787 37.3381C56.3224 37.6534 56.2443 37.9915 56.2443 38.3523V38.9318C56.2443 39.4261 56.3295 39.8452 56.5 40.1889C56.6733 40.5298 56.9134 40.7898 57.2202 40.9688C57.527 41.1449 57.8835 41.233 58.2898 41.233C58.554 41.233 58.7926 41.196 59.0057 41.1222C59.2216 41.0455 59.4077 40.9318 59.5639 40.7812C59.7202 40.6278 59.8409 40.4375 59.9261 40.2102L60.8977 40.483C60.7955 40.8125 60.6236 41.1023 60.3821 41.3523C60.1406 41.5994 59.8423 41.7926 59.4872 41.9318C59.1321 42.0682 58.733 42.1364 58.2898 42.1364ZM63.5355 33.2727V42H62.5298V33.2727H63.5355ZM67.3036 42.1534C66.8888 42.1534 66.5124 42.0753 66.1744 41.919C65.8363 41.7599 65.5678 41.5312 65.369 41.233C65.1701 40.9318 65.0707 40.5682 65.0707 40.142C65.0707 39.767 65.1445 39.4631 65.2923 39.2301C65.44 38.9943 65.6374 38.8097 65.8846 38.6761C66.1317 38.5426 66.4045 38.4432 66.7028 38.3778C67.0039 38.3097 67.3065 38.2557 67.6104 38.2159C68.0082 38.1648 68.3306 38.1264 68.5778 38.1009C68.8278 38.0724 69.0096 38.0256 69.1232 37.9602C69.2397 37.8949 69.2979 37.7812 69.2979 37.6193V37.5852C69.2979 37.1648 69.1829 36.8381 68.9528 36.6051C68.7255 36.3722 68.3803 36.2557 67.9173 36.2557C67.4371 36.2557 67.0607 36.3608 66.788 36.571C66.5153 36.7812 66.3235 37.0057 66.2127 37.2443L65.2582 36.9034C65.4286 36.5057 65.6559 36.196 65.94 35.9744C66.2269 35.75 66.5394 35.5937 66.8775 35.5057C67.2184 35.4148 67.5536 35.3693 67.8832 35.3693C68.0934 35.3693 68.3349 35.3949 68.6076 35.446C68.8832 35.4943 69.1488 35.5952 69.4045 35.7486C69.663 35.902 69.8775 36.1335 70.0479 36.4432C70.2184 36.7528 70.3036 37.1676 70.3036 37.6875V42H69.2979V41.1136H69.2468C69.1786 41.2557 69.065 41.4077 68.9059 41.5696C68.7468 41.7315 68.5352 41.8693 68.271 41.983C68.0067 42.0966 67.6843 42.1534 67.3036 42.1534ZM67.457 41.25C67.8548 41.25 68.19 41.1719 68.4627 41.0156C68.7383 40.8594 68.9457 40.6577 69.0849 40.4105C69.2269 40.1634 69.2979 39.9034 69.2979 39.6307V38.7102C69.2553 38.7614 69.1616 38.8082 69.0167 38.8509C68.8746 38.8906 68.7099 38.9261 68.5224 38.9574C68.3377 38.9858 68.1573 39.0114 67.9812 39.0341C67.8079 39.054 67.6673 39.071 67.5593 39.0852C67.2979 39.1193 67.0536 39.1747 66.8263 39.2514C66.6019 39.3253 66.4201 39.4375 66.2809 39.5881C66.1445 39.7358 66.0763 39.9375 66.0763 40.1932C66.0763 40.5426 66.2056 40.8068 66.4641 40.9858C66.7255 41.1619 67.0565 41.25 67.457 41.25ZM76.2642 39.3239V35.4545H77.2699V42H76.2642V40.892H76.196C76.0426 41.2244 75.804 41.5071 75.4801 41.7401C75.1563 41.9702 74.7472 42.0852 74.2528 42.0852C73.8438 42.0852 73.4801 41.9957 73.1619 41.8168C72.8438 41.6349 72.5938 41.3622 72.4119 40.9986C72.2301 40.6321 72.1392 40.1705 72.1392 39.6136V35.4545H73.1449V39.5455C73.1449 40.0227 73.2784 40.4034 73.5455 40.6875C73.8153 40.9716 74.1591 41.1136 74.5767 41.1136C74.8267 41.1136 75.081 41.0497 75.3395 40.9219C75.6009 40.794 75.8196 40.598 75.9957 40.3338C76.1747 40.0696 76.2642 39.733 76.2642 39.3239ZM80.1175 38.0625V42H79.1119V35.4545H80.0835V36.4773H80.1687C80.3221 36.1449 80.555 35.8778 80.8675 35.6761C81.18 35.4716 81.5835 35.3693 82.0778 35.3693C82.521 35.3693 82.9087 35.4602 83.2411 35.642C83.5735 35.821 83.832 36.0938 84.0167 36.4602C84.2013 36.8239 84.2937 37.2841 84.2937 37.8409V42H83.288V37.9091C83.288 37.3949 83.1545 36.9943 82.8874 36.7074C82.6204 36.4176 82.2539 36.2727 81.788 36.2727C81.467 36.2727 81.18 36.3423 80.9272 36.4815C80.6772 36.6207 80.4798 36.8239 80.3349 37.0909C80.19 37.358 80.1175 37.6818 80.1175 38.0625ZM88.0575 42.1534C87.6428 42.1534 87.2663 42.0753 86.9283 41.919C86.5902 41.7599 86.3217 41.5312 86.1229 41.233C85.924 40.9318 85.8246 40.5682 85.8246 40.142C85.8246 39.767 85.8984 39.4631 86.0462 39.2301C86.1939 38.9943 86.3913 38.8097 86.6385 38.6761C86.8857 38.5426 87.1584 38.4432 87.4567 38.3778C87.7578 38.3097 88.0604 38.2557 88.3643 38.2159C88.7621 38.1648 89.0845 38.1264 89.3317 38.1009C89.5817 38.0724 89.7635 38.0256 89.8771 37.9602C89.9936 37.8949 90.0518 37.7812 90.0518 37.6193V37.5852C90.0518 37.1648 89.9368 36.8381 89.7067 36.6051C89.4794 36.3722 89.1342 36.2557 88.6712 36.2557C88.1911 36.2557 87.8146 36.3608 87.5419 36.571C87.2692 36.7812 87.0774 37.0057 86.9666 37.2443L86.0121 36.9034C86.1825 36.5057 86.4098 36.196 86.6939 35.9744C86.9808 35.75 87.2933 35.5937 87.6314 35.5057C87.9723 35.4148 88.3075 35.3693 88.6371 35.3693C88.8473 35.3693 89.0888 35.3949 89.3615 35.446C89.6371 35.4943 89.9027 35.5952 90.1584 35.7486C90.4169 35.902 90.6314 36.1335 90.8018 36.4432C90.9723 36.7528 91.0575 37.1676 91.0575 37.6875V42H90.0518V41.1136H90.0007C89.9325 41.2557 89.8189 41.4077 89.6598 41.5696C89.5007 41.7315 89.2891 41.8693 89.0249 41.983C88.7607 42.0966 88.4382 42.1534 88.0575 42.1534ZM88.2109 41.25C88.6087 41.25 88.9439 41.1719 89.2166 41.0156C89.4922 40.8594 89.6996 40.6577 89.8388 40.4105C89.9808 40.1634 90.0518 39.9034 90.0518 39.6307V38.7102C90.0092 38.7614 89.9155 38.8082 89.7706 38.8509C89.6286 38.8906 89.4638 38.9261 89.2763 38.9574C89.0916 38.9858 88.9112 39.0114 88.7351 39.0341C88.5618 39.054 88.4212 39.071 88.3132 39.0852C88.0518 39.1193 87.8075 39.1747 87.5803 39.2514C87.3558 39.3253 87.174 39.4375 87.0348 39.5881C86.8984 39.7358 86.8303 39.9375 86.8303 40.1932C86.8303 40.5426 86.9595 40.8068 87.218 40.9858C87.4794 41.1619 87.8104 41.25 88.2109 41.25ZM93.3065 44.4545C93.136 44.4545 92.984 44.4403 92.8505 44.4119C92.717 44.3864 92.6246 44.3608 92.5735 44.3352L92.8292 43.4489C93.0735 43.5114 93.2894 43.5341 93.4769 43.517C93.6644 43.5 93.8306 43.4162 93.9755 43.2656C94.1232 43.1179 94.2582 42.8778 94.3803 42.5455L94.5678 42.0341L92.1474 35.4545H93.2383L95.0451 40.6705H95.1133L96.9201 35.4545H98.011L95.2326 42.9545C95.1076 43.2926 94.9528 43.5724 94.7681 43.794C94.5835 44.0185 94.369 44.1847 94.1246 44.2926C93.8832 44.4006 93.6104 44.4545 93.3065 44.4545ZM99.894 33.096H108.966V33.996H99.894V33.096ZM100.662 37.02H108.018V37.92H100.662V37.02ZM99.198 41.184H109.614V42.096H99.198V41.184ZM113.202 34.668H120.45V35.484H113.202V34.668ZM113.202 37.068H120.306V37.848H113.202V37.068ZM112.998 39.528H120.354V40.32H112.998V39.528ZM112.71 34.668H113.586V37.68C113.586 39.384 113.274 41.592 111.438 43.02C111.318 42.84 110.994 42.516 110.814 42.384C112.518 41.064 112.71 39.204 112.71 37.668V34.668ZM119.97 34.668H120.87V41.82C120.87 42.408 120.714 42.696 120.27 42.828C119.814 42.972 119.022 42.984 117.81 42.984C117.762 42.744 117.594 42.348 117.462 42.108C118.422 42.144 119.358 42.144 119.634 42.12C119.898 42.12 119.97 42.048 119.97 41.82V34.668ZM116.25 35.004H117.102V39.924H116.25V35.004ZM114.342 32.628H118.122V33.396H114.342V32.628ZM114.462 31.896L115.434 32.064C114.642 33.492 113.442 35.088 111.738 36.324C111.594 36.108 111.306 35.808 111.09 35.676C112.71 34.584 113.85 33.096 114.462 31.896ZM117.822 32.628H118.014L118.17 32.592L118.77 32.988C118.362 33.792 117.678 34.728 117.126 35.316C116.958 35.184 116.67 35.004 116.478 34.896C116.982 34.356 117.546 33.432 117.822 32.796V32.628ZM129.954 33.324H130.806V39.972H129.954V33.324ZM132.546 32.148H133.422V41.796C133.422 42.384 133.266 42.648 132.918 42.792C132.534 42.948 131.922 42.972 130.914 42.96C130.866 42.72 130.734 42.324 130.602 42.06C131.358 42.096 132.042 42.084 132.258 42.072C132.462 42.072 132.546 42 132.546 41.796V32.148ZM123.234 33.372H129.138V34.2H123.234V33.372ZM122.898 36.6H129.45V37.428H122.898V36.6ZM125.73 32.028H126.618V33.828H125.73V32.028ZM124.086 34.464L124.842 34.308C125.118 34.956 125.346 35.808 125.418 36.372L124.614 36.552C124.554 35.988 124.326 35.124 124.086 34.464ZM127.566 34.224L128.478 34.452C128.202 35.196 127.902 36.072 127.638 36.624L126.858 36.408C127.11 35.82 127.41 34.872 127.566 34.224ZM124.17 41.508H128.202V42.312H124.17V41.508ZM123.738 38.508H128.61V42.792H127.746V39.312H124.578V42.888H123.738V38.508ZM136.662 36.468H143.526V37.344H136.662V36.468ZM143.226 36.468H144.162C144.162 36.468 144.15 36.78 144.138 36.9C143.97 40.62 143.802 42.012 143.37 42.468C143.13 42.768 142.866 42.852 142.446 42.888C142.05 42.924 141.294 42.912 140.538 42.876C140.526 42.6 140.406 42.228 140.238 41.964C141.03 42.036 141.774 42.048 142.062 42.048C142.302 42.048 142.446 42.024 142.566 41.892C142.89 41.568 143.07 40.2 143.226 36.636V36.468ZM138.306 32.172L139.254 32.448C138.39 34.476 136.974 36.264 135.462 37.416C135.294 37.224 134.91 36.876 134.682 36.708C136.218 35.676 137.55 34.02 138.306 32.172ZM142.494 32.148C143.274 33.756 144.822 35.58 146.13 36.504C145.89 36.696 145.554 37.056 145.374 37.308C144.042 36.228 142.53 34.284 141.63 32.496L142.494 32.148ZM139.194 36.708H140.154C139.878 39.336 139.254 41.82 135.906 43.02C135.798 42.792 135.534 42.432 135.33 42.24C138.474 41.196 138.954 38.976 139.194 36.708Z" fill="black"/>
<path d="M47.4148 51.2727L50.0057 58.6193H50.108L52.6989 51.2727H53.8068L50.6023 60H49.5114L46.3068 51.2727H47.4148ZM57.0795 60.1364C56.4886 60.1364 55.9702 59.9957 55.5241 59.7145C55.081 59.4332 54.7344 59.0398 54.4844 58.5341C54.2372 58.0284 54.1136 57.4375 54.1136 56.7614C54.1136 56.0795 54.2372 55.4844 54.4844 54.9759C54.7344 54.4673 55.081 54.0724 55.5241 53.7912C55.9702 53.5099 56.4886 53.3693 57.0795 53.3693C57.6705 53.3693 58.1875 53.5099 58.6307 53.7912C59.0767 54.0724 59.4233 54.4673 59.6705 54.9759C59.9205 55.4844 60.0455 56.0795 60.0455 56.7614C60.0455 57.4375 59.9205 58.0284 59.6705 58.5341C59.4233 59.0398 59.0767 59.4332 58.6307 59.7145C58.1875 59.9957 57.6705 60.1364 57.0795 60.1364ZM57.0795 59.233C57.5284 59.233 57.8977 59.1179 58.1875 58.8878C58.4773 58.6577 58.6918 58.3551 58.831 57.9801C58.9702 57.6051 59.0398 57.1989 59.0398 56.7614C59.0398 56.3239 58.9702 55.9162 58.831 55.5384C58.6918 55.1605 58.4773 54.8551 58.1875 54.6222C57.8977 54.3892 57.5284 54.2727 57.0795 54.2727C56.6307 54.2727 56.2614 54.3892 55.9716 54.6222C55.6818 54.8551 55.4673 55.1605 55.3281 55.5384C55.1889 55.9162 55.1193 56.3239 55.1193 56.7614C55.1193 57.1989 55.1889 57.6051 55.3281 57.9801C55.4673 58.3551 55.6818 58.6577 55.9716 58.8878C56.2614 59.1179 56.6307 59.233 57.0795 59.233ZM61.5806 60V53.4545H62.5522V54.4432H62.6204C62.7397 54.1193 62.9556 53.8565 63.2681 53.6548C63.5806 53.4531 63.9329 53.3523 64.3249 53.3523C64.3988 53.3523 64.4911 53.3537 64.6019 53.3565C64.7127 53.3594 64.7965 53.3636 64.8533 53.3693V54.392C64.8192 54.3835 64.7411 54.3707 64.619 54.3537C64.4996 54.3338 64.3732 54.3239 64.2397 54.3239C63.9215 54.3239 63.6374 54.3906 63.3874 54.5241C63.1403 54.6548 62.9442 54.8366 62.7994 55.0696C62.6573 55.2997 62.5863 55.5625 62.5863 55.858V60H61.5806ZM68.5053 60.1364C67.9144 60.1364 67.396 59.9957 66.9499 59.7145C66.5067 59.4332 66.1602 59.0398 65.9102 58.5341C65.663 58.0284 65.5394 57.4375 65.5394 56.7614C65.5394 56.0795 65.663 55.4844 65.9102 54.9759C66.1602 54.4673 66.5067 54.0724 66.9499 53.7912C67.396 53.5099 67.9144 53.3693 68.5053 53.3693C69.0962 53.3693 69.6133 53.5099 70.0565 53.7912C70.5025 54.0724 70.8491 54.4673 71.0962 54.9759C71.3462 55.4844 71.4712 56.0795 71.4712 56.7614C71.4712 57.4375 71.3462 58.0284 71.0962 58.5341C70.8491 59.0398 70.5025 59.4332 70.0565 59.7145C69.6133 59.9957 69.0962 60.1364 68.5053 60.1364ZM68.5053 59.233C68.9542 59.233 69.3235 59.1179 69.6133 58.8878C69.9031 58.6577 70.1175 58.3551 70.2567 57.9801C70.396 57.6051 70.4656 57.1989 70.4656 56.7614C70.4656 56.3239 70.396 55.9162 70.2567 55.5384C70.1175 55.1605 69.9031 54.8551 69.6133 54.6222C69.3235 54.3892 68.9542 54.2727 68.5053 54.2727C68.0565 54.2727 67.6871 54.3892 67.3974 54.6222C67.1076 54.8551 66.8931 55.1605 66.7539 55.5384C66.6147 55.9162 66.5451 56.3239 66.5451 56.7614C66.5451 57.1989 66.6147 57.6051 66.7539 57.9801C66.8931 58.3551 67.1076 58.6577 67.3974 58.8878C67.6871 59.1179 68.0565 59.233 68.5053 59.233ZM74.0121 56.0625V60H73.0064V53.4545H73.978V54.4773H74.0632C74.2166 54.1449 74.4496 53.8778 74.7621 53.6761C75.0746 53.4716 75.478 53.3693 75.9723 53.3693C76.4155 53.3693 76.8033 53.4602 77.1357 53.642C77.468 53.821 77.7266 54.0938 77.9112 54.4602C78.0959 54.8239 78.1882 55.2841 78.1882 55.8409V60H77.1825V55.9091C77.1825 55.3949 77.049 54.9943 76.782 54.7074C76.5149 54.4176 76.1484 54.2727 75.6825 54.2727C75.3615 54.2727 75.0746 54.3423 74.8217 54.4815C74.5717 54.6207 74.3743 54.8239 74.2294 55.0909C74.0845 55.358 74.0121 55.6818 74.0121 56.0625ZM82.685 60.1364C82.0941 60.1364 81.5756 59.9957 81.1296 59.7145C80.6864 59.4332 80.3398 59.0398 80.0898 58.5341C79.8427 58.0284 79.7191 57.4375 79.7191 56.7614C79.7191 56.0795 79.8427 55.4844 80.0898 54.9759C80.3398 54.4673 80.6864 54.0724 81.1296 53.7912C81.5756 53.5099 82.0941 53.3693 82.685 53.3693C83.2759 53.3693 83.793 53.5099 84.2362 53.7912C84.6822 54.0724 85.0288 54.4673 85.2759 54.9759C85.5259 55.4844 85.6509 56.0795 85.6509 56.7614C85.6509 57.4375 85.5259 58.0284 85.2759 58.5341C85.0288 59.0398 84.6822 59.4332 84.2362 59.7145C83.793 59.9957 83.2759 60.1364 82.685 60.1364ZM82.685 59.233C83.1339 59.233 83.5032 59.1179 83.793 58.8878C84.0827 58.6577 84.2972 58.3551 84.4364 57.9801C84.5756 57.6051 84.6452 57.1989 84.6452 56.7614C84.6452 56.3239 84.5756 55.9162 84.4364 55.5384C84.2972 55.1605 84.0827 54.8551 83.793 54.6222C83.5032 54.3892 83.1339 54.2727 82.685 54.2727C82.2362 54.2727 81.8668 54.3892 81.5771 54.6222C81.2873 54.8551 81.0728 55.1605 80.9336 55.5384C80.7944 55.9162 80.7248 56.3239 80.7248 56.7614C80.7248 57.1989 80.7944 57.6051 80.9336 57.9801C81.0728 58.3551 81.2873 58.6577 81.5771 58.8878C81.8668 59.1179 82.2362 59.233 82.685 59.233ZM87.1861 60V53.4545H88.1918V60H87.1861ZM87.6974 52.3636C87.5014 52.3636 87.3324 52.2969 87.1903 52.1634C87.0511 52.0298 86.9815 51.8693 86.9815 51.6818C86.9815 51.4943 87.0511 51.3338 87.1903 51.2003C87.3324 51.0668 87.5014 51 87.6974 51C87.8935 51 88.0611 51.0668 88.2003 51.2003C88.3423 51.3338 88.4134 51.4943 88.4134 51.6818C88.4134 51.8693 88.3423 52.0298 88.2003 52.1634C88.0611 52.2969 87.8935 52.3636 87.6974 52.3636ZM93.6493 50.82H100.501V51.516H93.6493V50.82ZM93.8773 54.696H100.345V55.296H93.8773V54.696ZM94.0933 55.944H100.117V56.544H94.0933V55.944ZM93.5053 57.192H100.609V57.852H93.5053V57.192ZM95.3533 53.916H96.1693V57.384H95.3533V53.916ZM97.9693 53.916H98.7853V57.384H97.9693V53.916ZM96.5173 57.36L97.2013 57.588C96.4333 58.5 94.9693 59.232 93.6973 59.664C93.6013 59.52 93.3733 59.208 93.2293 59.064C94.4893 58.716 95.8453 58.128 96.5173 57.36ZM97.7053 57.456C98.1733 58.8 99.2293 59.856 100.705 60.252C100.537 60.408 100.309 60.708 100.213 60.912C98.6293 60.384 97.5493 59.196 97.0213 57.612L97.7053 57.456ZM99.9613 58.02L100.453 58.488C99.9133 58.884 99.1813 59.232 98.6173 59.484L98.1973 59.04C98.7373 58.788 99.5173 58.332 99.9613 58.02ZM94.8013 52.56V53.496H96.0373V52.56H94.8013ZM94.1173 52.008H96.7573V54.036H94.1173V52.008ZM98.1373 52.56V53.496H99.3973V52.56H98.1373ZM97.4533 52.008H100.129V54.036H97.4533V52.008ZM96.3973 50.052L97.1293 49.824C97.3933 50.196 97.6333 50.7 97.7173 51.048L96.9373 51.324C96.8533 50.976 96.6253 50.448 96.3973 50.052ZM95.0533 60.948C94.9813 60.792 94.7773 60.504 94.6573 60.372C94.8373 60.24 95.1253 59.94 95.1253 59.4V58.476L95.8453 58.512V60.048C95.8453 60.048 95.0533 60.66 95.0533 60.948ZM95.0533 60.948L95.0173 60.288L95.4013 60L97.6453 59.556C97.6333 59.772 97.6573 60.096 97.6813 60.264C95.5813 60.732 95.2453 60.84 95.0533 60.948ZM91.0453 49.956L91.7893 50.172C91.4053 51.468 90.7333 52.776 89.9773 53.652C89.9053 53.472 89.6773 53.052 89.5333 52.86C90.1693 52.14 90.7213 51.072 91.0453 49.956ZM90.9013 51.36H93.3733V52.224H90.7333L90.9013 51.36ZM91.1413 60.816L91.0213 60.024L91.2973 59.664L93.1933 58.512C93.2293 58.752 93.3253 59.076 93.3853 59.244C91.5973 60.408 91.2973 60.612 91.1413 60.816ZM90.3253 53.436H93.1933V54.252H90.3253V53.436ZM89.8333 55.872H93.4093V56.688H89.8333V55.872ZM91.1413 60.816C91.0693 60.612 90.8773 60.276 90.7333 60.108C90.9373 59.988 91.2973 59.664 91.2973 59.136V53.724H92.0653V59.88C92.0653 59.88 91.1413 60.504 91.1413 60.816ZM111.721 54.192H111.841L111.985 54.156L112.537 54.312C112.321 55.188 112.045 56.208 111.781 56.844L111.109 56.664C111.325 56.076 111.565 55.092 111.721 54.324V54.192ZM109.801 54.636H110.233V56.256C110.233 56.928 110.533 59.184 112.765 60.264C112.609 60.456 112.381 60.78 112.261 60.984C110.569 60.12 109.933 58.404 109.789 57.66C109.669 58.416 108.985 60.084 107.173 60.984C107.077 60.792 106.861 60.48 106.705 60.312C109.069 59.16 109.369 56.94 109.369 56.256V54.636H109.801ZM108.277 54.192H111.937V54.948H108.061L108.277 54.192ZM101.629 54.216H107.233V54.996H101.629V54.216ZM103.009 56.652H106.045V57.372H103.009V56.652ZM103.009 59.124H106.045V59.904H103.009V59.124ZM102.589 52.896H103.429V60.9H102.589V52.896ZM105.673 52.896H106.489V60.66H105.673V52.896ZM108.205 52.668L109.045 52.812C108.781 54.408 108.289 55.908 107.629 56.892C107.473 56.76 107.113 56.532 106.897 56.436C107.569 55.512 107.977 54.12 108.205 52.668ZM102.481 50.328H103.393V51.72H110.917V50.328H111.853V52.5H102.481V50.328ZM106.633 49.92H107.557V52.188H106.633V49.92Z" fill="black"/>
<path d="M13 55H39.67" stroke="#0000FF" stroke-opacity="0.6" stroke-width="2.66667"/>
<path d="M26.1333 23.3314C27.1941 23.3314 28.2117 22.91 28.9618 22.1598C29.7119 21.4097 30.1333 20.3922 30.1333 19.3314C30.1333 18.2706 29.7119 17.2531 28.9618 16.503C28.2117 15.7529 27.1941 15.3314 26.1333 15.3314C25.0725 15.3314 24.055 15.7529 23.3049 16.503C22.5548 17.2531 22.1333 18.2706 22.1333 19.3314C22.1333 20.3922 22.5548 21.4097 23.3049 22.1598C24.055 22.91 25.0725 23.3314 26.1333 23.3314Z" fill="#FF0000" stroke="#FF0000" stroke-width="1.33333"/>
<path d="M47.248 14.736H56.704V15.624H47.248V14.736ZM46.624 19.836H57.388V20.736H46.624V19.836ZM48.088 16.452L48.892 16.2C49.384 17.076 49.876 18.216 50.044 18.924L49.18 19.212C49.012 18.504 48.544 17.34 48.088 16.452ZM55.048 16.152L56.008 16.416C55.552 17.388 54.988 18.54 54.52 19.26L53.752 19.008C54.196 18.252 54.76 17.016 55.048 16.152ZM51.508 15.084H52.432V24.96H51.508V15.084ZM62.26 19.26H65.548V20.004H62.26V19.26ZM62.26 21.348H65.584V22.092H62.26V21.348ZM59.788 23.496H68.26V24.336H59.788V23.496ZM59.236 17.088H68.752V24.972H67.84V17.928H60.112V24.972H59.236V17.088ZM61.84 17.616H62.656V23.88H61.84V17.616ZM65.2 17.616H66.028V23.844H65.2V17.616ZM63.4 15.12L64.444 15.36C64.192 16.164 63.94 17.088 63.7 17.688L62.884 17.46C63.076 16.812 63.316 15.816 63.4 15.12ZM58.696 14.724H69.328V15.588H58.696V14.724ZM74.32 15.384L75.148 15.42C74.968 19.104 74.548 21.936 73.048 23.832C72.916 23.7 72.544 23.424 72.34 23.304C73.828 21.6 74.2 18.816 74.32 15.384ZM77.5 15.384L78.34 15.42C78.196 19.164 77.8 21.984 76.228 23.868C76.108 23.724 75.736 23.436 75.532 23.316C77.068 21.636 77.404 18.876 77.5 15.384ZM72.376 17.868L72.88 17.34C74.104 18.456 75.436 20.004 76.06 21.024L75.52 21.66C74.896 20.604 73.564 19.008 72.376 17.868ZM75.652 17.736L76.168 17.208C77.452 18.384 78.868 20.004 79.528 21.084L78.988 21.732C78.328 20.628 76.9 18.936 75.652 17.736ZM71.056 14.64H80.596V15.504H71.92V24.936H71.056V14.64ZM80.116 14.64H81.004V23.808C81.004 24.348 80.86 24.624 80.5 24.78C80.14 24.912 79.54 24.936 78.52 24.936C78.472 24.696 78.34 24.3 78.208 24.06C78.94 24.096 79.636 24.084 79.84 24.072C80.044 24.072 80.116 24 80.116 23.808V14.64ZM82.792 21.816C82.744 21.636 82.6 21.192 82.492 20.964C82.756 20.916 83.032 20.616 83.416 20.172C83.812 19.752 85.084 18.108 85.9 16.5L86.704 16.98C85.744 18.588 84.568 20.184 83.428 21.324V21.348C83.428 21.348 82.792 21.636 82.792 21.816ZM82.792 21.816L82.732 21.048L83.176 20.736L86.392 20.028C86.38 20.268 86.392 20.628 86.416 20.808C83.452 21.528 83.044 21.66 82.792 21.816ZM82.708 18.936C82.66 18.744 82.516 18.3 82.408 18.06C82.624 18 82.84 17.724 83.104 17.328C83.38 16.932 84.256 15.396 84.748 13.968L85.612 14.376C84.988 15.84 84.112 17.364 83.26 18.432V18.456C83.26 18.456 82.708 18.744 82.708 18.936ZM82.708 18.936L82.696 18.252L83.116 17.964L85.288 17.736C85.252 17.976 85.216 18.324 85.228 18.492C83.248 18.756 82.9 18.84 82.708 18.936ZM82.492 23.4C83.5 23.16 85.036 22.716 86.548 22.284L86.692 23.064C85.288 23.508 83.812 23.952 82.696 24.3L82.492 23.4ZM87.58 20.46H92.704V24.84H91.84V21.264H88.432V24.852H87.58V20.46ZM88.084 23.448H92.404V24.264H88.084V23.448ZM88.912 15.072H92.476V15.9H88.504L88.912 15.072ZM92.188 15.072H92.38L92.548 15.036L93.076 15.372C91.948 17.988 89.452 19.716 86.872 20.556C86.812 20.316 86.62 19.908 86.488 19.728C88.948 19.008 91.264 17.472 92.188 15.24V15.072ZM88.84 13.764L89.668 14.004C89.044 15.54 88.072 17.016 87.04 17.988C86.932 17.808 86.644 17.448 86.464 17.268C87.448 16.428 88.324 15.12 88.84 13.764ZM88.576 15.936C89.44 17.712 91.324 19.068 93.568 19.668C93.412 19.884 93.268 20.244 93.208 20.484C90.868 19.74 88.888 18.264 87.904 16.332L88.576 15.936ZM103.252 18.168H104.188V22.176C104.188 22.728 104.068 23.028 103.624 23.172C103.192 23.328 102.448 23.328 101.308 23.328C101.272 23.04 101.14 22.656 101.02 22.38C101.908 22.416 102.724 22.416 102.952 22.392C103.192 22.392 103.252 22.332 103.252 22.164V18.168ZM98.32 18.708H99.256V24.936H98.32V18.708ZM95.164 18.168H103.648V19.032H95.164V18.168ZM94.66 15.288H105.34V16.152H94.66V15.288ZM97.468 13.92H98.38V17.52H97.468V13.92ZM101.608 13.92H102.544V17.52H101.608V13.92ZM111.448 13.92H112.36V18.012H111.448V13.92ZM108.832 18.432V20.58H115.108V18.432H108.832ZM107.98 17.58H116.02V21.42H107.98V17.58ZM111.868 15.204H116.92V16.056H111.868V15.204ZM110.068 22.464L110.932 22.392C111.1 23.172 111.232 24.156 111.244 24.744L110.32 24.864C110.32 24.252 110.224 23.244 110.068 22.464ZM112.552 22.476L113.368 22.308C113.74 23.028 114.136 24 114.28 24.612L113.392 24.828C113.272 24.228 112.912 23.232 112.552 22.476ZM115 22.38L115.804 22.08C116.416 22.824 117.112 23.844 117.4 24.516L116.548 24.864C116.272 24.204 115.612 23.148 115 22.38ZM108.124 22.152L108.976 22.368C108.58 23.304 107.968 24.324 107.32 24.96L106.492 24.552C107.128 24.012 107.752 23.04 108.124 22.152Z" fill="black"/>
</svg>
