<svg width="2062" height="1375" xmlns="http://www.w3.org/2000/svg" xmlns:xlink="http://www.w3.org/1999/xlink" xml:space="preserve" overflow="hidden"><defs><clipPath id="clip0"><rect x="1169" y="550" width="2062" height="1375"/></clipPath></defs><g clip-path="url(#clip0)" transform="translate(-1169 -550)"><text font-family="Aptos,Aptos_MSFontService,sans-serif" font-weight="400" font-size="55" transform="matrix(1 0 0 1 1394.85 1202)">(100, 200)</text><text font-family="Aptos,Aptos_MSFontService,sans-serif" font-weight="400" font-size="55" transform="matrix(1 0 0 1 2770.83 1544)">(500, 100)</text><text font-family="Aptos,Aptos_MSFontService,sans-serif" font-weight="400" font-size="55" transform="matrix(1 0 0 1 2081.37 860)">(300, 300)</text><path d="M0 0 2062 0 2062 1374.67 0 1374.67Z" stroke="#000000" stroke-width="3.43667" fill="none" transform="matrix(1 0 0 -1.00024 1169 1925)"/><path d="M360.85 687.333C360.85 696.823 353.157 704.517 343.667 704.517 334.177 704.517 326.483 696.823 326.483 687.333 326.483 677.843 334.177 670.15 343.667 670.15 353.157 670.15 360.85 677.843 360.85 687.333Z" transform="matrix(1 0 0 -1.00024 1169 1925)"/><path d="M1735.52 343.667C1735.52 353.157 1727.82 360.85 1718.33 360.85 1708.84 360.85 1701.15 353.157 1701.15 343.667 1701.15 334.177 1708.84 326.483 1718.33 326.483 1727.82 326.483 1735.52 334.177 1735.52 343.667Z" transform="matrix(1 0 0 -1.00024 1169 1925)"/><path d="M1048.18 1031C1048.18 1040.49 1040.49 1048.18 1031 1048.18 1021.51 1048.18 1013.82 1040.49 1013.82 1031 1013.82 1021.51 1021.51 1013.82 1031 1013.82 1040.49 1013.82 1048.18 1021.51 1048.18 1031Z" transform="matrix(1 0 0 -1.00024 1169 1925)"/><text font-family="DengXian,DengXian_MSFontService,sans-serif" font-weight="400" font-size="55" transform="matrix(1 0 0 1 1330.05 1302)">客户</text><text font-family="Aptos,Aptos_MSFontService,sans-serif" font-weight="400" font-size="55" transform="matrix(1 0 0 1 1440.05 1302)">1</text><text font-family="DengXian,DengXian_MSFontService,sans-serif" font-weight="400" font-size="55" transform="matrix(1 0 0 1 1469.27 1302)">，需求</text><text font-family="Aptos,Aptos_MSFontService,sans-serif" font-weight="400" font-size="55" transform="matrix(1 0 0 1 1634.27 1302)">30</text><text font-family="DengXian,DengXian_MSFontService,sans-serif" font-weight="400" font-size="55" transform="matrix(1 0 0 1 2016.58 960)">客户</text><text font-family="Aptos,Aptos_MSFontService,sans-serif" font-weight="400" font-size="55" transform="matrix(1 0 0 1 2126.58 960)">2</text><text font-family="DengXian,DengXian_MSFontService,sans-serif" font-weight="400" font-size="55" transform="matrix(1 0 0 1 2155.8 960)">，需求</text><text font-family="Aptos,Aptos_MSFontService,sans-serif" font-weight="400" font-size="55" transform="matrix(1 0 0 1 2320.8 960)">10</text><text font-family="DengXian,DengXian_MSFontService,sans-serif" font-weight="400" font-size="55" transform="matrix(1 0 0 1 2706.04 1646)">客户</text><text font-family="Aptos,Aptos_MSFontService,sans-serif" font-weight="400" font-size="55" transform="matrix(1 0 0 1 2816.04 1646)">2</text><text font-family="DengXian,DengXian_MSFontService,sans-serif" font-weight="400" font-size="55" transform="matrix(1 0 0 1 2845.25 1646)">，需求</text><text font-family="Aptos,Aptos_MSFontService,sans-serif" font-weight="400" font-size="55" transform="matrix(1 0 0 1 3010.25 1646)">50</text><path d="M2048.5 1535.5C2048.5 1507.89 2070.89 1485.5 2098.5 1485.5 2126.11 1485.5 2148.5 1507.89 2148.5 1535.5 2148.5 1563.11 2126.11 1585.5 2098.5 1585.5 2070.89 1585.5 2048.5 1563.11 2048.5 1535.5Z" stroke="#FF0000" stroke-width="6.875" stroke-miterlimit="8" stroke-dasharray="27.5 20.625" fill="none" fill-rule="evenodd"/><text fill="#FF0000" font-family="DengXian,DengXian_MSFontService,sans-serif" font-weight="400" font-size="64" transform="matrix(1 0 0 1 2084.32 1557)">?</text></g></svg>