<svg width="2147" height="663" xmlns="http://www.w3.org/2000/svg" xmlns:xlink="http://www.w3.org/1999/xlink" xml:space="preserve" overflow="hidden"><defs><clipPath id="clip0"><rect x="930" y="969" width="2147" height="663"/></clipPath></defs><g clip-path="url(#clip0)" transform="translate(-930 -969)"><path d="M931.5 1084C931.5 1024.08 980.301 975.5 1040.5 975.5 1100.7 975.5 1149.5 1024.08 1149.5 1084 1149.5 1143.92 1100.7 1192.5 1040.5 1192.5 980.301 1192.5 931.5 1143.92 931.5 1084Z" stroke="#000000" stroke-width="3.4375" stroke-miterlimit="8" fill="none" fill-rule="evenodd"/><path d="M1149.5 1084C1149.5 1024.08 1198.08 975.5 1258 975.5 1317.92 975.5 1366.5 1024.08 1366.5 1084 1366.5 1143.92 1317.92 1192.5 1258 1192.5 1198.08 1192.5 1149.5 1143.92 1149.5 1084Z" stroke="#000000" stroke-width="3.4375" stroke-miterlimit="8" fill="none" fill-rule="evenodd"/><path d="M1367.5 1084C1367.5 1024.08 1416.3 975.5 1476.5 975.5 1536.7 975.5 1585.5 1024.08 1585.5 1084 1585.5 1143.92 1536.7 1192.5 1476.5 1192.5 1416.3 1192.5 1367.5 1143.92 1367.5 1084Z" stroke="#000000" stroke-width="3.4375" stroke-miterlimit="8" fill="none" fill-rule="evenodd"/><path d="M931.5 1301C931.5 1241.08 980.301 1192.5 1040.5 1192.5 1100.7 1192.5 1149.5 1241.08 1149.5 1301 1149.5 1360.92 1100.7 1409.5 1040.5 1409.5 980.301 1409.5 931.5 1360.92 931.5 1301Z" stroke="#000000" stroke-width="3.4375" stroke-miterlimit="8" fill="none" fill-rule="evenodd"/><path d="M1149.5 1301C1149.5 1241.08 1198.08 1192.5 1258 1192.5 1317.92 1192.5 1366.5 1241.08 1366.5 1301 1366.5 1360.92 1317.92 1409.5 1258 1409.5 1198.08 1409.5 1149.5 1360.92 1149.5 1301Z" stroke="#000000" stroke-width="3.4375" stroke-miterlimit="8" fill="none" fill-rule="evenodd"/><path d="M1367.5 1301C1367.5 1241.08 1416.3 1192.5 1476.5 1192.5 1536.7 1192.5 1585.5 1241.08 1585.5 1301 1585.5 1360.92 1536.7 1409.5 1476.5 1409.5 1416.3 1409.5 1367.5 1360.92 1367.5 1301Z" stroke="#000000" stroke-width="3.4375" stroke-miterlimit="8" fill="none" fill-rule="evenodd"/><path d="M931.5 1518C931.5 1458.08 980.301 1409.5 1040.5 1409.5 1100.7 1409.5 1149.5 1458.08 1149.5 1518 1149.5 1577.92 1100.7 1626.5 1040.5 1626.5 980.301 1626.5 931.5 1577.92 931.5 1518Z" stroke="#000000" stroke-width="3.4375" stroke-miterlimit="8" fill="none" fill-rule="evenodd"/><path d="M1149.5 1518C1149.5 1458.08 1198.08 1409.5 1258 1409.5 1317.92 1409.5 1366.5 1458.08 1366.5 1518 1366.5 1577.92 1317.92 1626.5 1258 1626.5 1198.08 1626.5 1149.5 1577.92 1149.5 1518Z" stroke="#000000" stroke-width="3.4375" stroke-miterlimit="8" fill="none" fill-rule="evenodd"/><path d="M1367.5 1518C1367.5 1458.08 1416.3 1409.5 1476.5 1409.5 1536.7 1409.5 1585.5 1458.08 1585.5 1518 1585.5 1577.92 1536.7 1626.5 1476.5 1626.5 1416.3 1626.5 1367.5 1577.92 1367.5 1518Z" stroke="#000000" stroke-width="3.4375" stroke-miterlimit="8" fill="none" fill-rule="evenodd"/><g><g><g><path d="M199.802 3.43428 3.43428 3.43428 3.43428 199.802 199.802 199.802 199.802 3.43428ZM3.43428 0 0 0 0 3.43428 0 199.802 0 200.333 0 203.237 0 203.767 0 397.233 0 397.762 0 400.668 0 401.197 0 597.566 0 601 3.43428 601 199.802 601 200.333 601 203.237 601 203.767 601 397.233 601 397.762 601 400.668 601 401.197 601 597.566 601 601 601 601 597.566 601 401.197 601 400.668 601 397.762 601 397.233 601 203.767 601 203.237 601 200.333 601 199.802 601 3.43428 601 0 597.566 0 401.197 0 400.668 0 397.762 0 397.233 0 203.767 0 203.237 0 200.333 0 199.802 0 3.43428 0ZM199.802 203.767 3.43428 203.767 3.43428 397.233 199.802 397.233 199.802 203.767ZM3.43428 401.197 199.802 401.197 199.802 597.566 3.43428 597.566 3.43428 401.197ZM397.233 3.43428 203.767 3.43428 203.767 199.802 397.233 199.802 397.233 3.43428ZM203.767 203.767 397.233 203.767 397.233 397.233 203.767 397.233 203.767 203.767ZM397.233 401.197 203.767 401.197 203.767 597.566 397.233 597.566 397.233 401.197ZM401.197 3.43428 597.566 3.43428 597.566 199.802 401.197 199.802 401.197 3.43428ZM597.566 203.767 401.197 203.767 401.197 397.233 597.566 397.233 597.566 203.767ZM401.197 401.197 597.566 401.197 597.566 597.566 401.197 597.566 401.197 401.197Z" fill-rule="evenodd" transform="matrix(1.00166 0 0 1 1682 1000)"/></g></g></g><g><g><g><path d="M460.329 3.62828 347.821 68.5856 347.821 198.309 460.496 263.362 572.838 198.5 572.838 68.5856 460.329 3.62828ZM230.95 0 345.64 66.2161 460.329 0 575.981 66.7713 575.981 198.309 576.59 197.957 692.241 264.729 692.241 398.271 576.59 465.043 575.981 464.691 575.981 596.229 460.329 663 345.64 596.785 230.95 663 115.299 596.229 115.299 463.582 2.18042 398.271 2.18042 264.729 115.299 199.42 115.299 66.7713 230.95 0ZM230.341 396.267 117.666 461.319 5.3226 396.458 5.3226 266.543 117.666 201.681 230.341 266.733 230.341 396.267ZM118.441 464.691 118.441 594.416 230.95 659.371 343.459 594.416 343.459 464.499 231.116 399.638 118.441 464.691ZM118.441 68.5856 118.441 198.309 231.116 263.362 343.459 198.5 343.459 68.5856 230.95 3.62828 118.441 68.5856ZM347.821 464.691 460.496 399.638 572.838 464.499 572.838 594.416 460.329 659.371 347.821 594.416 347.821 464.691ZM459.72 396.267 459.72 266.733 347.044 201.681 234.702 266.543 234.702 396.458 347.044 461.319 459.72 396.267ZM464.081 266.543 576.59 201.586 689.099 266.543 689.099 396.458 576.59 461.413 464.081 396.458 464.081 266.543Z" fill-rule="evenodd" transform="matrix(1.00083 0 0 1 2382 969)"/></g></g></g></g></svg>