<svg width="777" height="247" viewBox="0 0 777 247" fill="none" xmlns="http://www.w3.org/2000/svg">
<path d="M0.204819 8.18072C0.0682731 8.18072 0 8.14056 0 8.06023C0 8.04417 0.0120482 7.98795 0.0361446 7.89156C0.0682731 7.76305 0.100402 7.69076 0.13253 7.67469C0.164659 7.65863 0.257028 7.64658 0.409639 7.63855C0.626506 7.63855 0.86747 7.6265 1.13253 7.6024C1.24498 7.57831 1.32129 7.53011 1.36145 7.45782C1.37751 7.41766 1.66265 6.28915 2.21687 4.07228C2.77108 1.85542 3.05221 0.730917 3.06024 0.698789C3.06024 0.642564 3.04418 0.614451 3.01205 0.614451C2.94779 0.590355 2.73494 0.570275 2.37349 0.55421H2C1.95181 0.506018 1.92771 0.473889 1.92771 0.457825C1.92771 0.441761 1.93574 0.373487 1.95181 0.253006C1.98394 0.116459 2.0241 0.032122 2.07229 -6.49691e-06H8.56626C8.62249 0.032122 8.6506 0.0762987 8.6506 0.132524C8.6506 0.172684 8.59839 0.622483 8.49398 1.48192C8.38956 2.34136 8.33333 2.78313 8.3253 2.80722C8.30924 2.86345 8.22892 2.89156 8.08434 2.89156H7.93976C7.88353 2.8514 7.85542 2.79919 7.85542 2.73493C7.85542 2.7269 7.86747 2.63052 7.89157 2.44578C7.91566 2.26104 7.92771 2.04819 7.92771 1.80722C7.92771 1.56626 7.8996 1.36947 7.84337 1.21686C7.78715 1.06425 7.71084 0.939753 7.61446 0.843367C7.51807 0.746981 7.36948 0.682724 7.16867 0.650596C6.96787 0.618467 6.76305 0.590355 6.55422 0.566259C6.34538 0.542162 6.05622 0.538146 5.68675 0.55421H5.40964C4.751 0.562242 4.40161 0.574291 4.36145 0.590355C4.32128 0.606419 4.29317 0.638548 4.27711 0.68674C4.26908 0.694773 4.13253 1.22088 3.86747 2.26505L3.48193 3.81927H4.14458C4.16867 3.81927 4.26104 3.81927 4.42169 3.81927C4.58233 3.81927 4.69478 3.81525 4.75904 3.80722C4.82329 3.79919 4.91165 3.78714 5.0241 3.77108C5.13655 3.75501 5.23293 3.7269 5.31325 3.68674C5.39357 3.64658 5.46185 3.59839 5.51807 3.54216C5.62249 3.44578 5.71084 3.31325 5.78313 3.14457C5.85542 2.9759 5.90763 2.82329 5.93976 2.68674C5.97189 2.55019 5.99197 2.47791 6 2.46987C6.0241 2.42971 6.1004 2.40963 6.22892 2.40963H6.37349C6.42972 2.44979 6.45783 2.48995 6.45783 2.53011C6.45783 2.55421 6.33333 3.08031 6.08434 4.10843C5.83534 5.13654 5.69879 5.66666 5.6747 5.69879C5.65863 5.75501 5.57831 5.78313 5.43373 5.78313H5.28916C5.23293 5.73493 5.20482 5.68674 5.20482 5.63855C5.20482 5.61445 5.2249 5.5261 5.26506 5.37349C5.30522 5.22088 5.3253 5.06023 5.3253 4.89156C5.3253 4.65863 5.24498 4.51405 5.08434 4.45782C4.92369 4.4016 4.56626 4.37349 4.01205 4.37349H3.3494L2.96386 5.90361C2.70683 6.89959 2.57831 7.42168 2.57831 7.46987C2.57831 7.58232 2.93574 7.63855 3.6506 7.63855H3.95181C4 7.68674 4.0241 7.71485 4.0241 7.72288C4.0241 7.73092 4.01606 7.81124 4 7.96385C3.96787 8.06827 3.92771 8.14457 3.87952 8.19276H3.6747C3.34538 8.1767 2.73896 8.16867 1.85542 8.16867C1.33333 8.16867 0.935743 8.16867 0.662651 8.16867C0.389558 8.16867 0.236948 8.17268 0.204819 8.18072Z" fill="black"/>
<path d="M7.71421 6.2776C7.60632 6.2776 7.55237 6.25489 7.55237 6.20946C7.55237 6.18106 7.5978 6.02206 7.68866 5.73245C7.77952 5.44283 7.87605 5.15606 7.97827 4.87212L8.12308 4.45473C8.15147 4.35252 8.18838 4.27869 8.23381 4.23326H12.2203H12.9869C13.1686 4.23326 13.2765 4.2361 13.3106 4.24178C13.3447 4.24746 13.3645 4.27302 13.3702 4.31845C13.3702 4.35252 13.3219 4.6762 13.2254 5.28951C13.1289 5.90281 13.0749 6.2123 13.0636 6.21798C13.0636 6.25773 13.0096 6.2776 12.9017 6.2776C12.8506 6.2776 12.8165 6.2776 12.7995 6.2776C12.7825 6.2776 12.7654 6.26341 12.7484 6.23501L12.7314 6.20946C12.7314 6.17539 12.7484 6.04761 12.7825 5.82614C12.8165 5.60467 12.8336 5.43147 12.8336 5.30654C12.8336 5.10779 12.7967 4.9573 12.7228 4.85508C12.649 4.75287 12.4929 4.68188 12.2543 4.64213C12.226 4.63645 12.0613 4.63077 11.7603 4.6251C11.4991 4.6251 11.3344 4.62794 11.2662 4.63361C11.1981 4.63929 11.147 4.66201 11.1129 4.70176C11.1072 4.70744 10.9056 5.49962 10.5081 7.0783C10.1106 8.65698 9.91187 9.46052 9.91187 9.48892C9.91187 9.55706 10.1617 9.59681 10.6615 9.60817C10.8432 9.60817 10.9596 9.61101 11.0107 9.61669C11.0618 9.62237 11.0874 9.64792 11.0874 9.69335C11.0874 9.72174 11.0789 9.76149 11.0618 9.8126C11.0391 9.91482 11.0135 9.97445 10.9852 9.99148L10.9681 10C10.9511 10 10.9312 10 10.9085 10C10.8801 10 10.7324 9.99716 10.4655 9.99148C10.1986 9.9858 9.81534 9.98296 9.31561 9.98296C8.58305 9.98296 8.1174 9.98864 7.91865 10H7.79087C7.7568 9.96593 7.73977 9.94037 7.73977 9.92334C7.73977 9.9063 7.74544 9.85519 7.7568 9.77001C7.77952 9.69619 7.80791 9.64224 7.84198 9.60817H8.08049H8.17419C8.62848 9.60817 8.89822 9.58261 8.9834 9.53151C8.98908 9.52583 8.99476 9.52299 9.00044 9.52299C9.02883 9.50595 9.05723 9.44916 9.08562 9.35263C9.11401 9.25609 9.22759 8.81031 9.42634 8.01529C9.52288 7.62914 9.60238 7.31397 9.66485 7.06978C10.0624 5.50814 10.2611 4.71028 10.2611 4.6762C10.2611 4.64781 10.1788 4.63361 10.0141 4.63361H9.75003C9.36956 4.63361 9.11969 4.65065 9.00044 4.68472C8.7449 4.74151 8.54614 4.85792 8.40418 5.03396C8.26221 5.21 8.10888 5.53937 7.9442 6.02206C7.90445 6.14699 7.87605 6.22082 7.85902 6.24353C7.84198 6.26624 7.80223 6.2776 7.73977 6.2776H7.71421Z" fill="black"/>
<path d="M424.205 8.18072C424.068 8.18072 424 8.14056 424 8.06023C424 8.04417 424.012 7.98795 424.036 7.89156C424.068 7.76305 424.1 7.69076 424.133 7.67469C424.165 7.65863 424.257 7.64658 424.41 7.63855C424.627 7.63855 424.867 7.6265 425.133 7.6024C425.245 7.57831 425.321 7.53011 425.361 7.45782C425.378 7.41766 425.663 6.28915 426.217 4.07228C426.771 1.85542 427.052 0.730917 427.06 0.698789C427.06 0.642564 427.044 0.614451 427.012 0.614451C426.948 0.590355 426.735 0.570275 426.373 0.55421H426C425.952 0.506018 425.928 0.473889 425.928 0.457825C425.928 0.441761 425.936 0.373487 425.952 0.253006C425.984 0.116459 426.024 0.032122 426.072 -6.49691e-06H432.566C432.622 0.032122 432.651 0.0762987 432.651 0.132524C432.651 0.172684 432.598 0.622483 432.494 1.48192C432.39 2.34136 432.333 2.78313 432.325 2.80722C432.309 2.86345 432.229 2.89156 432.084 2.89156H431.94C431.884 2.8514 431.855 2.79919 431.855 2.73493C431.855 2.7269 431.867 2.63052 431.892 2.44578C431.916 2.26104 431.928 2.04819 431.928 1.80722C431.928 1.56626 431.9 1.36947 431.843 1.21686C431.787 1.06425 431.711 0.939753 431.614 0.843367C431.518 0.746981 431.369 0.682724 431.169 0.650596C430.968 0.618467 430.763 0.590355 430.554 0.566259C430.345 0.542162 430.056 0.538146 429.687 0.55421H429.41C428.751 0.562242 428.402 0.574291 428.361 0.590355C428.321 0.606419 428.293 0.638548 428.277 0.68674C428.269 0.694773 428.133 1.22088 427.867 2.26505L427.482 3.81927H428.145C428.169 3.81927 428.261 3.81927 428.422 3.81927C428.582 3.81927 428.695 3.81525 428.759 3.80722C428.823 3.79919 428.912 3.78714 429.024 3.77108C429.137 3.75501 429.233 3.7269 429.313 3.68674C429.394 3.64658 429.462 3.59839 429.518 3.54216C429.622 3.44578 429.711 3.31325 429.783 3.14457C429.855 2.9759 429.908 2.82329 429.94 2.68674C429.972 2.55019 429.992 2.47791 430 2.46987C430.024 2.42971 430.1 2.40963 430.229 2.40963H430.373C430.43 2.44979 430.458 2.48995 430.458 2.53011C430.458 2.55421 430.333 3.08031 430.084 4.10843C429.835 5.13654 429.699 5.66666 429.675 5.69879C429.659 5.75501 429.578 5.78313 429.434 5.78313H429.289C429.233 5.73493 429.205 5.68674 429.205 5.63855C429.205 5.61445 429.225 5.5261 429.265 5.37349C429.305 5.22088 429.325 5.06023 429.325 4.89156C429.325 4.65863 429.245 4.51405 429.084 4.45782C428.924 4.4016 428.566 4.37349 428.012 4.37349H427.349L426.964 5.90361C426.707 6.89959 426.578 7.42168 426.578 7.46987C426.578 7.58232 426.936 7.63855 427.651 7.63855H427.952C428 7.68674 428.024 7.71485 428.024 7.72288C428.024 7.73092 428.016 7.81124 428 7.96385C427.968 8.06827 427.928 8.14457 427.88 8.19276H427.675C427.345 8.1767 426.739 8.16867 425.855 8.16867C425.333 8.16867 424.936 8.16867 424.663 8.16867C424.39 8.16867 424.237 8.17268 424.205 8.18072Z" fill="black"/>
<path d="M433.341 4.57399C433.188 4.57399 433.097 4.57115 433.069 4.56547C433.04 4.55979 433.026 4.52856 433.026 4.47177C433.026 4.31845 433.057 4.22475 433.12 4.19067C433.125 4.185 433.494 4.18216 434.227 4.18216C435.698 4.18216 436.473 4.18784 436.552 4.19919C436.91 4.25598 437.208 4.38375 437.447 4.58251C437.685 4.78126 437.807 5.04248 437.813 5.36617C437.813 5.72961 437.648 6.05613 437.319 6.34575C436.99 6.63536 436.612 6.83128 436.186 6.93349L436.101 6.95905C436.464 7.01016 436.763 7.14077 436.995 7.35088C437.228 7.56099 437.347 7.82221 437.353 8.13454C437.353 8.54909 437.149 8.94944 436.74 9.33559C436.331 9.72174 435.828 9.94037 435.232 9.99148C435.192 9.99716 434.593 10 433.435 10C432.299 10 431.723 9.99432 431.706 9.98296C431.683 9.96593 431.672 9.94321 431.672 9.91482C431.672 9.87507 431.677 9.83532 431.689 9.79557C431.717 9.68767 431.745 9.62804 431.774 9.61669C431.797 9.61101 431.839 9.60817 431.902 9.60817H431.953C432.106 9.60817 432.276 9.59965 432.464 9.58261C432.543 9.56558 432.597 9.53151 432.626 9.4804C432.643 9.45768 432.847 8.66834 433.239 7.11237C433.631 5.55641 433.827 4.73583 433.827 4.65065C433.827 4.6109 433.665 4.58535 433.341 4.57399ZM436.902 5.36617C436.902 5.19581 436.859 5.0368 436.774 4.88916C436.689 4.74151 436.55 4.64497 436.357 4.59954C436.317 4.58818 436.056 4.57967 435.573 4.57399C435.459 4.57399 435.34 4.57399 435.215 4.57399C435.09 4.57399 434.991 4.57683 434.917 4.58251H434.806C434.721 4.58818 434.667 4.61658 434.644 4.66769C434.633 4.6904 434.542 5.03112 434.372 5.68986C434.372 5.70689 434.369 5.72393 434.363 5.74096L434.099 6.81424H434.789C435.249 6.81424 435.513 6.80856 435.581 6.7972C435.922 6.74042 436.226 6.57573 436.493 6.30316C436.76 6.03058 436.896 5.71825 436.902 5.36617ZM436.442 8.04936C436.442 7.7995 436.376 7.59222 436.246 7.42754C436.115 7.26286 435.945 7.16632 435.735 7.13793C435.701 7.13225 435.465 7.12941 435.028 7.12941C434.358 7.12941 434.02 7.13225 434.014 7.13793C434.014 7.14928 433.966 7.35656 433.869 7.75975C433.773 8.16294 433.673 8.56329 433.571 8.9608L433.418 9.55706C433.418 9.57978 433.452 9.59113 433.52 9.59113C433.588 9.59113 433.818 9.59681 434.21 9.60817C434.715 9.60817 434.988 9.60533 435.028 9.59965C435.38 9.5599 435.704 9.39522 435.999 9.1056C436.294 8.81599 436.442 8.46391 436.442 8.04936Z" fill="black"/>
<path d="M16.3536 0.646447C16.1583 0.451184 15.8417 0.451184 15.6464 0.646447L12.4645 3.82843C12.2692 4.02369 12.2692 4.34027 12.4645 4.53553C12.6597 4.7308 12.9763 4.7308 13.1716 4.53553L16 1.70711L18.8284 4.53553C19.0237 4.7308 19.3403 4.7308 19.5355 4.53553C19.7308 4.34027 19.7308 4.02369 19.5355 3.82843L16.3536 0.646447ZM16.5 226L16.5 1H15.5L15.5 226H16.5Z" fill="black"/>
<path d="M441.354 0.646447C441.158 0.451184 440.842 0.451184 440.646 0.646447L437.464 3.82843C437.269 4.02369 437.269 4.34027 437.464 4.53553C437.66 4.7308 437.976 4.7308 438.172 4.53553L441 1.70711L443.828 4.53553C444.024 4.7308 444.34 4.7308 444.536 4.53553C444.731 4.34027 444.731 4.02369 444.536 3.82843L441.354 0.646447ZM441.5 226V1H440.5V226H441.5Z" fill="black"/>
<path d="M351.354 226.354C351.549 226.158 351.549 225.842 351.354 225.646L348.172 222.464C347.976 222.269 347.66 222.269 347.464 222.464C347.269 222.66 347.269 222.976 347.464 223.172L350.293 226L347.464 228.828C347.269 229.024 347.269 229.34 347.464 229.536C347.66 229.731 347.976 229.731 348.172 229.536L351.354 226.354ZM16 226.5H351V225.5H16V226.5Z" fill="black"/>
<path d="M776.354 226.354C776.549 226.158 776.549 225.842 776.354 225.646L773.172 222.464C772.976 222.269 772.66 222.269 772.464 222.464C772.269 222.66 772.269 222.976 772.464 223.172L775.293 226L772.464 228.828C772.269 229.024 772.269 229.34 772.464 229.536C772.66 229.731 772.976 229.731 773.172 229.536L776.354 226.354ZM441 226.5H776V225.5H441V226.5Z" fill="black"/>
<path d="M16.75 244.119C16.108 244.119 15.5611 243.945 15.1094 243.595C14.6577 243.243 14.3125 242.733 14.0739 242.065C13.8352 241.395 13.7159 240.585 13.7159 239.636C13.7159 238.693 13.8352 237.888 14.0739 237.22C14.3153 236.55 14.6619 236.038 15.1136 235.686C15.5682 235.331 16.1136 235.153 16.75 235.153C17.3864 235.153 17.9304 235.331 18.3821 235.686C18.8366 236.038 19.1832 236.55 19.4219 237.22C19.6634 237.888 19.7841 238.693 19.7841 239.636C19.7841 240.585 19.6648 241.395 19.4261 242.065C19.1875 242.733 18.8423 243.243 18.3906 243.595C17.9389 243.945 17.392 244.119 16.75 244.119ZM16.75 243.182C17.3864 243.182 17.8807 242.875 18.233 242.261C18.5852 241.648 18.7614 240.773 18.7614 239.636C18.7614 238.881 18.6804 238.237 18.5185 237.706C18.3594 237.175 18.1293 236.77 17.8281 236.491C17.5298 236.213 17.1705 236.074 16.75 236.074C16.1193 236.074 15.6264 236.385 15.2713 237.007C14.9162 237.626 14.7386 238.503 14.7386 239.636C14.7386 240.392 14.8182 241.034 14.9773 241.562C15.1364 242.091 15.3651 242.493 15.6634 242.768C15.9645 243.044 16.3267 243.182 16.75 243.182Z" fill="black"/>
<path d="M441.75 244.119C441.108 244.119 440.561 243.945 440.109 243.595C439.658 243.243 439.313 242.733 439.074 242.065C438.835 241.395 438.716 240.585 438.716 239.636C438.716 238.693 438.835 237.888 439.074 237.22C439.315 236.55 439.662 236.038 440.114 235.686C440.568 235.331 441.114 235.153 441.75 235.153C442.386 235.153 442.93 235.331 443.382 235.686C443.837 236.038 444.183 236.55 444.422 237.22C444.663 237.888 444.784 238.693 444.784 239.636C444.784 240.585 444.665 241.395 444.426 242.065C444.188 242.733 443.842 243.243 443.391 243.595C442.939 243.945 442.392 244.119 441.75 244.119ZM441.75 243.182C442.386 243.182 442.881 242.875 443.233 242.261C443.585 241.648 443.761 240.773 443.761 239.636C443.761 238.881 443.68 238.237 443.518 237.706C443.359 237.175 443.129 236.77 442.828 236.491C442.53 236.213 442.17 236.074 441.75 236.074C441.119 236.074 440.626 236.385 440.271 237.007C439.916 237.626 439.739 238.503 439.739 239.636C439.739 240.392 439.818 241.034 439.977 241.562C440.136 242.091 440.365 242.493 440.663 242.768C440.964 243.044 441.327 243.182 441.75 243.182Z" fill="black"/>
<circle cx="150.5" cy="162.5" r="3" stroke="black"/>
<circle cx="575.5" cy="99.5" r="3" stroke="black"/>
<circle cx="150.5" cy="226.5" r="3" fill="black" stroke="black"/>
<circle cx="575.5" cy="226.5" r="3" fill="black" stroke="black"/>
<line x1="16.448" y1="119.568" x2="147.448" y2="160.568" stroke="black" stroke-width="3"/>
<line x1="441" y1="99.5" x2="573" y2="99.5" stroke="black" stroke-width="3"/>
<line x1="153" y1="225.5" x2="309" y2="225.5" stroke="black" stroke-width="3"/>
<line x1="578" y1="225.5" x2="734" y2="225.5" stroke="black" stroke-width="3"/>
<line x1="150.5" y1="165" x2="150.5" y2="224" stroke="black" stroke-width="3" stroke-dasharray="6 6"/>
<line x1="575.5" y1="103" x2="575.5" y2="224" stroke="black" stroke-width="3" stroke-dasharray="6 6"/>
<path d="M3.83077 123.433C3.84835 123.433 3.87473 123.442 3.90989 123.459C3.94505 123.477 3.99341 123.49 4.05495 123.499C4.11648 123.508 4.16923 123.512 4.21319 123.512C4.32747 123.512 4.43297 123.455 4.52967 123.341C4.62637 123.226 4.6967 123.099 4.74066 122.958C4.82857 122.721 4.97802 122.048 5.18901 120.941C5.4 119.833 5.6022 118.778 5.7956 117.776C5.98901 116.774 6.08571 116.268 6.08571 116.259V116.22H5.46593C5.05275 116.22 4.83297 116.211 4.80659 116.193C4.77143 116.167 4.75385 116.123 4.75385 116.062L4.84615 115.692C4.86374 115.648 4.8989 115.626 4.95165 115.626C5.0044 115.626 5.21099 115.622 5.57143 115.613C5.99341 115.613 6.2044 115.609 6.2044 115.6C6.2044 115.582 6.24396 115.363 6.32308 114.941C6.4022 114.519 6.45495 114.264 6.48132 114.176C6.80659 112.725 7.44835 112 8.40659 112C8.73187 112.018 9 112.114 9.21099 112.29C9.42198 112.466 9.52747 112.699 9.52747 112.989C9.52747 113.305 9.43516 113.534 9.25055 113.675C9.06593 113.815 8.88132 113.89 8.6967 113.899C8.30989 113.899 8.11648 113.714 8.11648 113.345C8.11648 113.178 8.16484 113.033 8.26154 112.91C8.35824 112.787 8.46374 112.695 8.57802 112.633L8.6967 112.567C8.55604 112.514 8.42418 112.488 8.3011 112.488C8.1956 112.488 8.09451 112.532 7.9978 112.62C7.9011 112.708 7.83516 112.831 7.8 112.989C7.73846 113.244 7.66813 113.587 7.58901 114.018C7.50989 114.448 7.43956 114.813 7.37802 115.112C7.31648 115.411 7.28571 115.569 7.28571 115.587C7.28571 115.604 7.52747 115.613 8.01099 115.613C8.40659 115.613 8.63516 115.618 8.6967 115.626C8.75824 115.635 8.80659 115.662 8.84176 115.705C8.85055 115.741 8.84176 115.815 8.81538 115.93C8.78901 116.044 8.76703 116.114 8.74945 116.141C8.73187 116.185 8.69231 116.207 8.63077 116.207C8.56923 116.207 8.33187 116.211 7.91868 116.22H7.18022L6.87692 117.829C6.45495 120.009 6.16044 121.371 5.99341 121.916C5.75604 122.664 5.44835 123.218 5.07033 123.578C4.74505 123.859 4.42418 124 4.10769 124C3.82637 124 3.57143 123.916 3.34286 123.749C3.11429 123.582 3 123.345 3 123.037C3 122.712 3.09231 122.475 3.27692 122.325C3.46154 122.176 3.64615 122.101 3.83077 122.101C4.21758 122.101 4.41099 122.286 4.41099 122.655C4.41099 122.822 4.36264 122.967 4.26593 123.09C4.16923 123.213 4.06374 123.305 3.94945 123.367L3.83077 123.433Z" fill="black"/>
<path d="M392 99C392 98.448 392.04 97.924 392.12 97.428C392.2 96.932 392.292 96.504 392.396 96.144C392.5 95.784 392.648 95.432 392.84 95.088C393.032 94.744 393.184 94.476 393.296 94.284C393.408 94.092 393.576 93.884 393.8 93.66C394.024 93.436 394.156 93.3 394.196 93.252C394.236 93.204 394.336 93.12 394.496 93H394.652H394.7C394.812 93 394.868 93.036 394.868 93.108C394.868 93.132 394.8 93.216 394.664 93.36C394.528 93.504 394.364 93.716 394.172 93.996C393.98 94.276 393.784 94.62 393.584 95.028C393.384 95.436 393.216 95.988 393.08 96.684C392.944 97.38 392.876 98.152 392.876 99C392.876 99.848 392.944 100.616 393.08 101.304C393.216 101.992 393.38 102.548 393.572 102.972C393.764 103.396 393.96 103.74 394.16 104.004C394.36 104.268 394.528 104.48 394.664 104.64C394.8 104.8 394.868 104.884 394.868 104.892C394.868 104.964 394.808 105 394.688 105H394.652H394.496L394.16 104.712C393.408 104.032 392.86 103.184 392.516 102.168C392.172 101.152 392 100.096 392 99Z" fill="black"/>
<path d="M398.348 94.356C398.324 94.356 398.292 94.356 398.252 94.356C398.052 94.356 397.932 94.352 397.892 94.344C397.852 94.336 397.832 94.292 397.832 94.212C397.832 93.996 397.876 93.864 397.964 93.816C397.98 93.808 398.368 93.804 399.128 93.804C399.744 93.804 400.096 93.804 400.184 93.804C400.272 93.804 400.328 93.828 400.352 93.876C402.04 97.844 402.9 99.88 402.932 99.984L403.58 97.428C404.004 95.74 404.216 94.84 404.216 94.728C404.216 94.512 403.96 94.388 403.448 94.356C403.256 94.356 403.16 94.312 403.16 94.224C403.16 94.208 403.168 94.16 403.184 94.08C403.216 93.952 403.24 93.876 403.256 93.852C403.272 93.828 403.312 93.812 403.376 93.804C403.4 93.804 403.524 93.808 403.748 93.816C403.972 93.824 404.304 93.832 404.744 93.84C405.144 93.84 405.448 93.836 405.656 93.828C405.864 93.82 405.984 93.816 406.016 93.816C406.136 93.816 406.196 93.856 406.196 93.936C406.196 94.112 406.164 94.232 406.1 94.296C406.084 94.336 405.996 94.356 405.836 94.356C405.268 94.388 404.912 94.548 404.768 94.836L402.98 101.916C402.964 101.972 402.88 102 402.728 102C402.616 102 402.548 101.992 402.524 101.976C402.5 101.952 401.984 100.74 400.976 98.34L399.452 94.752L398.672 97.872C398.152 99.92 397.892 100.98 397.892 101.052C397.932 101.316 398.22 101.448 398.756 101.448H398.876C398.924 101.488 398.948 101.52 398.948 101.544C398.948 101.568 398.94 101.644 398.924 101.772C398.892 101.876 398.852 101.952 398.804 102H398.648C398.4 101.984 397.968 101.976 397.352 101.976C397.128 101.976 396.924 101.976 396.74 101.976C396.556 101.976 396.408 101.976 396.296 101.976C396.184 101.976 396.116 101.98 396.092 101.988C395.972 101.988 395.912 101.952 395.912 101.88C395.912 101.848 395.924 101.784 395.948 101.688C395.972 101.592 395.992 101.536 396.008 101.52C396.024 101.472 396.116 101.448 396.284 101.448C396.828 101.424 397.18 101.268 397.34 100.98C397.372 100.932 397.656 99.824 398.192 97.656L399.008 94.392C398.992 94.384 398.772 94.372 398.348 94.356Z" fill="black"/>
<path d="M409.534 99.156C409.534 99.156 409.534 99.104 409.534 99C409.534 98.896 409.59 98.816 409.702 98.76H413.29V96.96L413.302 95.16C413.382 95.056 413.458 95.004 413.53 95.004C413.634 95.004 413.714 95.064 413.77 95.184V98.76H417.346C417.466 98.824 417.526 98.904 417.526 99C417.526 99.096 417.466 99.176 417.346 99.24H413.77V102.816C413.706 102.928 413.634 102.984 413.554 102.984H413.53H413.506C413.41 102.984 413.338 102.928 413.29 102.816V99.24H409.702C409.59 99.184 409.534 99.104 409.534 99V99.156Z" fill="black"/>
<path d="M423.421 95.064L423.265 95.124C423.153 95.164 422.993 95.204 422.785 95.244C422.577 95.284 422.345 95.312 422.089 95.328H421.861V94.776H422.089C422.465 94.76 422.813 94.7 423.133 94.596C423.453 94.492 423.677 94.396 423.805 94.308C423.933 94.22 424.045 94.132 424.141 94.044C424.157 94.02 424.205 94.008 424.285 94.008C424.357 94.008 424.425 94.032 424.489 94.08V97.668L424.501 101.268C424.557 101.324 424.605 101.36 424.645 101.376C424.685 101.392 424.781 101.408 424.933 101.424C425.085 101.44 425.333 101.448 425.677 101.448H425.989V102H425.857C425.689 101.976 425.053 101.964 423.949 101.964C422.861 101.964 422.233 101.976 422.065 102H421.921V101.448H422.233C422.409 101.448 422.561 101.448 422.689 101.448C422.817 101.448 422.917 101.444 422.989 101.436C423.061 101.428 423.125 101.416 423.181 101.4C423.237 101.384 423.269 101.376 423.277 101.376C423.285 101.376 423.309 101.356 423.349 101.316C423.389 101.276 423.413 101.26 423.421 101.268V95.064Z" fill="black"/>
<path d="M427.585 93.012L427.633 93C427.673 93 427.713 93 427.753 93H427.897L428.233 93.288C428.985 93.968 429.533 94.816 429.877 95.832C430.221 96.848 430.393 97.904 430.393 99C430.393 99.544 430.353 100.068 430.273 100.572C430.193 101.076 430.101 101.504 429.997 101.856C429.893 102.208 429.745 102.56 429.553 102.912C429.361 103.264 429.209 103.532 429.097 103.716C428.985 103.9 428.821 104.104 428.605 104.328C428.389 104.552 428.261 104.684 428.221 104.724C428.181 104.764 428.089 104.84 427.945 104.952C427.921 104.976 427.905 104.992 427.897 105H427.753C427.689 105 427.645 105 427.621 105C427.597 105 427.577 104.988 427.561 104.964C427.545 104.94 427.533 104.904 427.525 104.856C427.533 104.848 427.577 104.796 427.657 104.7C428.897 103.412 429.517 101.512 429.517 99C429.517 96.488 428.897 94.588 427.657 93.3C427.577 93.204 427.533 93.152 427.525 93.144C427.525 93.08 427.545 93.036 427.585 93.012Z" fill="black"/>
<path d="M432.949 103.944C432.965 103.944 432.989 103.952 433.021 103.968C433.053 103.984 433.097 103.996 433.153 104.004C433.209 104.012 433.257 104.016 433.297 104.016C433.401 104.016 433.497 103.964 433.585 103.86C433.673 103.756 433.737 103.64 433.777 103.512C433.857 103.296 433.993 102.684 434.185 101.676C434.377 100.668 434.561 99.708 434.737 98.796C434.913 97.884 435.001 97.424 435.001 97.416V97.38H434.437C434.061 97.38 433.861 97.372 433.837 97.356C433.805 97.332 433.789 97.292 433.789 97.236L433.873 96.9C433.889 96.86 433.921 96.84 433.969 96.84C434.017 96.84 434.205 96.836 434.533 96.828C434.917 96.828 435.109 96.824 435.109 96.816C435.109 96.8 435.145 96.6 435.217 96.216C435.289 95.832 435.337 95.6 435.361 95.52C435.657 94.2 436.241 93.54 437.113 93.54C437.409 93.556 437.653 93.644 437.845 93.804C438.037 93.964 438.133 94.176 438.133 94.44C438.133 94.728 438.049 94.936 437.881 95.064C437.713 95.192 437.545 95.26 437.377 95.268C437.025 95.268 436.849 95.1 436.849 94.764C436.849 94.612 436.893 94.48 436.981 94.368C437.069 94.256 437.165 94.172 437.269 94.116L437.377 94.056C437.249 94.008 437.129 93.984 437.017 93.984C436.921 93.984 436.829 94.024 436.741 94.104C436.653 94.184 436.593 94.296 436.561 94.44C436.505 94.672 436.441 94.984 436.369 95.376C436.297 95.768 436.233 96.1 436.177 96.372C436.121 96.644 436.093 96.788 436.093 96.804C436.093 96.82 436.313 96.828 436.753 96.828C437.113 96.828 437.321 96.832 437.377 96.84C437.433 96.848 437.477 96.872 437.509 96.912C437.517 96.944 437.509 97.012 437.485 97.116C437.461 97.22 437.441 97.284 437.425 97.308C437.409 97.348 437.373 97.368 437.317 97.368C437.261 97.368 437.045 97.372 436.669 97.38H435.997L435.721 98.844C435.337 100.828 435.069 102.068 434.917 102.564C434.701 103.244 434.421 103.748 434.077 104.076C433.781 104.332 433.489 104.46 433.201 104.46C432.945 104.46 432.713 104.384 432.505 104.232C432.297 104.08 432.193 103.864 432.193 103.584C432.193 103.288 432.277 103.072 432.445 102.936C432.613 102.8 432.781 102.732 432.949 102.732C433.301 102.732 433.477 102.9 433.477 103.236C433.477 103.388 433.433 103.52 433.345 103.632C433.257 103.744 433.161 103.828 433.057 103.884L432.949 103.944Z" fill="black"/>
<path d="M120 237.321C120.008 237.298 120.015 237.267 120.023 237.229C120.031 237.19 120.05 237.106 120.08 236.976C120.111 236.846 120.149 236.727 120.195 236.62C120.241 236.512 120.299 236.386 120.368 236.24C120.437 236.095 120.513 235.98 120.598 235.896C120.682 235.811 120.781 235.727 120.896 235.643C121.011 235.559 121.138 235.524 121.276 235.539C121.498 235.539 121.693 235.585 121.862 235.677C122.03 235.769 122.149 235.854 122.218 235.93C122.287 236.007 122.329 236.083 122.344 236.16C122.36 236.206 122.371 236.229 122.379 236.229C122.386 236.229 122.417 236.202 122.471 236.149C122.838 235.75 123.264 235.551 123.746 235.551H123.781C124.149 235.551 124.424 235.708 124.608 236.022C124.669 236.168 124.7 236.309 124.7 236.447C124.7 236.677 124.65 236.861 124.551 236.999C124.451 237.137 124.352 237.225 124.252 237.263C124.152 237.302 124.057 237.317 123.965 237.309C123.811 237.309 123.689 237.267 123.597 237.183C123.505 237.098 123.459 236.987 123.459 236.85C123.459 236.482 123.674 236.237 124.103 236.114C123.934 236.014 123.796 235.965 123.689 235.965C123.26 235.965 122.865 236.248 122.505 236.815C122.429 236.938 122.371 237.064 122.333 237.194C122.295 237.324 122.164 237.834 121.942 238.723C121.682 239.795 121.532 240.366 121.494 240.435C121.394 240.642 121.23 240.745 121 240.745C120.9 240.745 120.82 240.722 120.758 240.676C120.697 240.63 120.655 240.584 120.632 240.538C120.609 240.492 120.601 240.454 120.609 240.423C120.609 240.324 120.762 239.665 121.069 238.447C121.375 237.229 121.528 236.551 121.528 236.413C121.528 236.114 121.429 235.965 121.23 235.965C121.069 235.965 120.931 236.072 120.816 236.286C120.701 236.501 120.609 236.735 120.54 236.987C120.471 237.24 120.429 237.378 120.414 237.401C120.398 237.416 120.337 237.424 120.23 237.424H120.069C120.023 237.378 120 237.344 120 237.321Z" fill="black"/>
<path d="M126.022 237.746C126.022 237.217 126.06 236.715 126.137 236.24C126.213 235.765 126.301 235.356 126.401 235.011C126.5 234.666 126.642 234.329 126.826 234C127.01 233.67 127.156 233.413 127.263 233.23C127.37 233.046 127.531 232.847 127.745 232.632C127.96 232.418 128.086 232.287 128.125 232.241C128.163 232.195 128.259 232.115 128.412 232H128.561H128.607C128.715 232 128.768 232.034 128.768 232.103C128.768 232.126 128.703 232.207 128.573 232.345C128.443 232.483 128.286 232.686 128.102 232.954C127.918 233.222 127.73 233.551 127.539 233.942C127.347 234.333 127.186 234.861 127.056 235.528C126.926 236.194 126.861 236.934 126.861 237.746C126.861 238.558 126.926 239.293 127.056 239.952C127.186 240.611 127.343 241.144 127.527 241.55C127.711 241.956 127.899 242.285 128.09 242.538C128.282 242.791 128.443 242.994 128.573 243.147C128.703 243.3 128.768 243.381 128.768 243.388C128.768 243.457 128.711 243.492 128.596 243.492H128.561H128.412L128.09 243.216C127.37 242.565 126.845 241.753 126.516 240.78C126.186 239.807 126.022 238.795 126.022 237.746Z" fill="black"/>
<path d="M130.009 237.298C130.063 236.976 130.27 236.604 130.63 236.183C130.99 235.762 131.434 235.547 131.963 235.539C132.231 235.539 132.476 235.608 132.698 235.746C132.921 235.884 133.085 236.057 133.193 236.263C133.514 235.781 133.901 235.539 134.353 235.539C134.637 235.539 134.882 235.624 135.089 235.792C135.295 235.961 135.403 236.187 135.41 236.47C135.41 236.692 135.357 236.872 135.25 237.01C135.142 237.148 135.039 237.233 134.939 237.263C134.84 237.294 134.752 237.309 134.675 237.309C134.529 237.309 134.411 237.267 134.319 237.183C134.227 237.098 134.181 236.987 134.181 236.85C134.181 236.497 134.372 236.256 134.755 236.126C134.671 236.026 134.518 235.976 134.296 235.976C134.196 235.976 134.123 235.984 134.077 235.999C133.786 236.122 133.572 236.375 133.434 236.758C132.974 238.451 132.744 239.439 132.744 239.722C132.744 239.937 132.806 240.09 132.928 240.182C133.051 240.274 133.185 240.32 133.33 240.32C133.614 240.32 133.894 240.194 134.169 239.941C134.445 239.688 134.633 239.378 134.732 239.01C134.755 238.933 134.778 238.891 134.801 238.884C134.824 238.876 134.886 238.868 134.985 238.861H135.031C135.146 238.861 135.204 238.891 135.204 238.952C135.204 238.96 135.196 239.002 135.181 239.079C135.058 239.516 134.821 239.902 134.468 240.24C134.116 240.577 133.706 240.745 133.238 240.745C132.702 240.745 132.296 240.504 132.02 240.021C131.706 240.496 131.346 240.734 130.94 240.734H130.871C130.496 240.734 130.228 240.634 130.067 240.435C129.906 240.236 129.822 240.025 129.814 239.803C129.814 239.558 129.887 239.359 130.032 239.205C130.178 239.052 130.35 238.975 130.549 238.975C130.879 238.975 131.044 239.136 131.044 239.458C131.044 239.611 130.998 239.745 130.906 239.86C130.814 239.975 130.726 240.052 130.641 240.09C130.557 240.128 130.507 240.148 130.492 240.148L130.457 240.159C130.457 240.167 130.48 240.182 130.526 240.205C130.572 240.228 130.634 240.255 130.71 240.286C130.787 240.316 130.86 240.328 130.929 240.32C131.204 240.32 131.442 240.148 131.641 239.803C131.71 239.68 131.798 239.42 131.905 239.021C132.013 238.623 132.12 238.209 132.227 237.78C132.334 237.351 132.396 237.098 132.411 237.022C132.449 236.815 132.469 236.666 132.469 236.574C132.469 236.359 132.411 236.206 132.296 236.114C132.181 236.022 132.051 235.976 131.905 235.976C131.599 235.976 131.312 236.099 131.044 236.344C130.775 236.589 130.588 236.903 130.48 237.286C130.465 237.355 130.446 237.393 130.423 237.401C130.4 237.409 130.339 237.416 130.239 237.424H130.078C130.032 237.378 130.009 237.336 130.009 237.298Z" fill="black"/>
<path d="M137.48 237.468C137.48 237.338 137.531 237.224 137.634 237.127C137.737 237.029 137.856 236.978 137.992 236.972C138.089 236.972 138.171 237.005 138.236 237.07C138.301 237.135 138.336 237.216 138.341 237.313C138.341 237.438 138.287 237.552 138.179 237.655C138.07 237.758 137.951 237.812 137.821 237.817C137.74 237.817 137.664 237.79 137.594 237.736C137.523 237.682 137.485 237.592 137.48 237.468ZM136.156 240.011C136.156 239.967 136.18 239.884 136.229 239.759C136.277 239.634 136.342 239.496 136.424 239.345C136.505 239.193 136.624 239.055 136.781 238.93C136.938 238.806 137.101 238.746 137.269 238.751C137.48 238.751 137.656 238.814 137.797 238.938C137.938 239.063 138.011 239.231 138.016 239.442C138.016 239.534 137.978 239.686 137.902 239.897C137.827 240.108 137.718 240.393 137.577 240.75C137.437 241.108 137.323 241.414 137.236 241.668C137.209 241.787 137.196 241.874 137.196 241.928C137.196 242.064 137.242 242.131 137.334 242.131C137.382 242.131 137.434 242.123 137.488 242.107C137.542 242.091 137.605 242.053 137.675 241.993C137.745 241.934 137.818 241.839 137.894 241.709C137.97 241.579 138.038 241.419 138.097 241.229C138.114 241.164 138.127 241.127 138.138 241.116C138.149 241.105 138.195 241.1 138.276 241.1C138.384 241.1 138.439 241.127 138.439 241.181C138.439 241.224 138.414 241.308 138.366 241.433C138.317 241.557 138.249 241.695 138.162 241.847C138.076 241.999 137.954 242.134 137.797 242.253C137.64 242.372 137.472 242.432 137.293 242.432C137.12 242.432 136.96 242.375 136.814 242.261C136.667 242.148 136.592 241.974 136.586 241.741C136.586 241.649 136.6 241.563 136.627 241.481C136.654 241.4 136.77 241.091 136.976 240.555C137.182 240.008 137.301 239.68 137.334 239.572C137.366 239.464 137.385 239.358 137.391 239.255C137.391 239.125 137.345 239.06 137.252 239.06H137.236C137.074 239.06 136.925 239.15 136.789 239.328C136.654 239.507 136.551 239.735 136.481 240.011C136.475 240.016 136.47 240.024 136.464 240.035C136.459 240.046 136.456 240.054 136.456 240.06C136.456 240.065 136.451 240.07 136.44 240.076C136.429 240.081 136.421 240.084 136.416 240.084C136.41 240.084 136.399 240.084 136.383 240.084C136.367 240.084 136.345 240.084 136.318 240.084H136.204C136.172 240.051 136.156 240.027 136.156 240.011Z" fill="black"/>
<path d="M140.053 232.011L140.099 232C140.137 232 140.176 232 140.214 232H140.352L140.674 232.276C141.394 232.927 141.919 233.739 142.248 234.712C142.577 235.685 142.742 236.696 142.742 237.746C142.742 238.267 142.704 238.769 142.627 239.251C142.551 239.734 142.463 240.144 142.363 240.481C142.263 240.818 142.122 241.155 141.938 241.492C141.754 241.829 141.608 242.086 141.501 242.262C141.394 242.438 141.237 242.634 141.03 242.848C140.823 243.063 140.7 243.189 140.662 243.227C140.624 243.266 140.536 243.339 140.398 243.446C140.375 243.469 140.36 243.484 140.352 243.492H140.214C140.153 243.492 140.111 243.492 140.088 243.492C140.065 243.492 140.045 243.48 140.03 243.457C140.015 243.434 140.003 243.4 139.996 243.354C140.003 243.346 140.045 243.296 140.122 243.204C141.31 241.971 141.903 240.151 141.903 237.746C141.903 235.34 141.31 233.521 140.122 232.287C140.045 232.195 140.003 232.146 139.996 232.138C139.996 232.077 140.015 232.034 140.053 232.011Z" fill="black"/>
<path d="M147.031 237.895C147.031 237.895 147.031 237.845 147.031 237.746C147.031 237.646 147.085 237.57 147.192 237.516H150.628V235.792L150.639 234.069C150.716 233.969 150.789 233.919 150.858 233.919C150.957 233.919 151.034 233.977 151.087 234.091V237.516H154.512C154.627 237.577 154.684 237.654 154.684 237.746C154.684 237.838 154.627 237.914 154.512 237.976H151.087V241.4C151.026 241.507 150.957 241.561 150.881 241.561H150.858H150.835C150.743 241.561 150.674 241.507 150.628 241.4V237.976H147.192C147.085 237.922 147.031 237.845 147.031 237.746V237.895Z" fill="black"/>
<path d="M158.123 237.321C158.13 237.298 158.138 237.267 158.146 237.229C158.153 237.19 158.173 237.106 158.203 236.976C158.234 236.846 158.272 236.727 158.318 236.62C158.364 236.512 158.421 236.386 158.49 236.24C158.559 236.095 158.636 235.98 158.72 235.896C158.805 235.811 158.904 235.727 159.019 235.643C159.134 235.559 159.26 235.524 159.398 235.539C159.62 235.539 159.816 235.585 159.984 235.677C160.153 235.769 160.272 235.854 160.341 235.93C160.41 236.007 160.452 236.083 160.467 236.16C160.482 236.206 160.494 236.229 160.502 236.229C160.509 236.229 160.54 236.202 160.593 236.149C160.961 235.75 161.386 235.551 161.869 235.551H161.903C162.271 235.551 162.547 235.708 162.731 236.022C162.792 236.168 162.823 236.309 162.823 236.447C162.823 236.677 162.773 236.861 162.673 236.999C162.574 237.137 162.474 237.225 162.375 237.263C162.275 237.302 162.179 237.317 162.087 237.309C161.934 237.309 161.812 237.267 161.72 237.183C161.628 237.098 161.582 236.987 161.582 236.85C161.582 236.482 161.796 236.237 162.225 236.114C162.057 236.014 161.919 235.965 161.812 235.965C161.383 235.965 160.988 236.248 160.628 236.815C160.551 236.938 160.494 237.064 160.456 237.194C160.417 237.324 160.287 237.834 160.065 238.723C159.804 239.795 159.655 240.366 159.617 240.435C159.517 240.642 159.352 240.745 159.122 240.745C159.023 240.745 158.942 240.722 158.881 240.676C158.82 240.63 158.778 240.584 158.755 240.538C158.732 240.492 158.724 240.454 158.732 240.423C158.732 240.324 158.885 239.665 159.191 238.447C159.498 237.229 159.651 236.551 159.651 236.413C159.651 236.114 159.552 235.965 159.352 235.965C159.191 235.965 159.054 236.072 158.939 236.286C158.824 236.501 158.732 236.735 158.663 236.987C158.594 237.24 158.552 237.378 158.536 237.401C158.521 237.416 158.46 237.424 158.353 237.424H158.192C158.146 237.378 158.123 237.344 158.123 237.321Z" fill="black"/>
<path d="M164.144 237.746C164.144 237.217 164.183 236.715 164.259 236.24C164.336 235.765 164.424 235.356 164.524 235.011C164.623 234.666 164.765 234.329 164.949 234C165.133 233.67 165.278 233.413 165.385 233.23C165.493 233.046 165.654 232.847 165.868 232.632C166.083 232.418 166.209 232.287 166.247 232.241C166.286 232.195 166.381 232.115 166.535 232H166.684H166.73C166.837 232 166.891 232.034 166.891 232.103C166.891 232.126 166.826 232.207 166.696 232.345C166.565 232.483 166.408 232.686 166.224 232.954C166.041 233.222 165.853 233.551 165.661 233.942C165.47 234.333 165.309 234.861 165.179 235.528C165.048 236.194 164.983 236.934 164.983 237.746C164.983 238.558 165.048 239.293 165.179 239.952C165.309 240.611 165.466 241.144 165.65 241.55C165.834 241.956 166.021 242.285 166.213 242.538C166.404 242.791 166.565 242.994 166.696 243.147C166.826 243.3 166.891 243.381 166.891 243.388C166.891 243.457 166.833 243.492 166.719 243.492H166.684H166.535L166.213 243.216C165.493 242.565 164.968 241.753 164.639 240.78C164.309 239.807 164.144 238.795 164.144 237.746Z" fill="black"/>
<path d="M168.132 237.298C168.186 236.976 168.392 236.604 168.753 236.183C169.113 235.762 169.557 235.547 170.086 235.539C170.354 235.539 170.599 235.608 170.821 235.746C171.043 235.884 171.208 236.057 171.315 236.263C171.637 235.781 172.024 235.539 172.476 235.539C172.759 235.539 173.005 235.624 173.211 235.792C173.418 235.961 173.525 236.187 173.533 236.47C173.533 236.692 173.479 236.872 173.372 237.01C173.265 237.148 173.162 237.233 173.062 237.263C172.962 237.294 172.874 237.309 172.798 237.309C172.652 237.309 172.533 237.267 172.441 237.183C172.349 237.098 172.304 236.987 172.304 236.85C172.304 236.497 172.495 236.256 172.878 236.126C172.794 236.026 172.641 235.976 172.418 235.976C172.319 235.976 172.246 235.984 172.2 235.999C171.909 236.122 171.694 236.375 171.557 236.758C171.097 238.451 170.867 239.439 170.867 239.722C170.867 239.937 170.928 240.09 171.051 240.182C171.173 240.274 171.308 240.32 171.453 240.32C171.737 240.32 172.016 240.194 172.292 239.941C172.568 239.688 172.756 239.378 172.855 239.01C172.878 238.933 172.901 238.891 172.924 238.884C172.947 238.876 173.008 238.868 173.108 238.861H173.154C173.269 238.861 173.326 238.891 173.326 238.952C173.326 238.96 173.319 239.002 173.303 239.079C173.181 239.516 172.943 239.902 172.591 240.24C172.238 240.577 171.829 240.745 171.361 240.745C170.825 240.745 170.419 240.504 170.143 240.021C169.829 240.496 169.469 240.734 169.063 240.734H168.994C168.618 240.734 168.35 240.634 168.189 240.435C168.029 240.236 167.944 240.025 167.937 239.803C167.937 239.558 168.009 239.359 168.155 239.205C168.301 239.052 168.473 238.975 168.672 238.975C169.002 238.975 169.166 239.136 169.166 239.458C169.166 239.611 169.12 239.745 169.028 239.86C168.936 239.975 168.848 240.052 168.764 240.09C168.68 240.128 168.63 240.148 168.615 240.148L168.58 240.159C168.58 240.167 168.603 240.182 168.649 240.205C168.695 240.228 168.756 240.255 168.833 240.286C168.91 240.316 168.982 240.328 169.051 240.32C169.327 240.32 169.565 240.148 169.764 239.803C169.833 239.68 169.921 239.42 170.028 239.021C170.135 238.623 170.243 238.209 170.35 237.78C170.457 237.351 170.518 237.098 170.534 237.022C170.572 236.815 170.591 236.666 170.591 236.574C170.591 236.359 170.534 236.206 170.419 236.114C170.304 236.022 170.174 235.976 170.028 235.976C169.722 235.976 169.434 236.099 169.166 236.344C168.898 236.589 168.71 236.903 168.603 237.286C168.588 237.355 168.569 237.393 168.546 237.401C168.523 237.409 168.461 237.416 168.362 237.424H168.201C168.155 237.378 168.132 237.336 168.132 237.298Z" fill="black"/>
<path d="M176.521 237.5C176.521 237.332 176.578 237.202 176.691 237.11C176.805 237.018 176.922 236.972 177.041 236.972C177.133 236.972 177.209 236.999 177.268 237.053C177.328 237.108 177.366 237.183 177.382 237.281C177.382 237.433 177.331 237.56 177.228 237.663C177.125 237.766 177.006 237.817 176.87 237.817C176.773 237.817 176.691 237.79 176.626 237.736C176.561 237.682 176.526 237.603 176.521 237.5ZM176.448 239.288C176.448 239.131 176.377 239.052 176.236 239.052C176.117 239.052 176.003 239.085 175.895 239.15C175.787 239.215 175.692 239.299 175.611 239.401C175.53 239.504 175.465 239.605 175.416 239.702C175.367 239.8 175.321 239.886 175.278 239.962L175.221 240.076C175.21 240.081 175.167 240.084 175.091 240.084H174.977C174.945 240.051 174.928 240.03 174.928 240.019C174.928 240.008 174.939 239.973 174.961 239.913C175.075 239.648 175.234 239.399 175.44 239.166C175.646 238.933 175.884 238.798 176.155 238.76C176.161 238.76 176.182 238.76 176.22 238.76C176.258 238.76 176.291 238.757 176.318 238.751C176.448 238.757 176.567 238.784 176.675 238.833C176.811 238.909 176.913 238.992 176.984 239.085C177.054 239.177 177.089 239.32 177.089 239.515V239.645L176.691 241.262C176.415 242.345 176.269 242.909 176.253 242.952C176.155 243.223 175.966 243.464 175.684 243.675C175.402 243.886 175.08 243.995 174.717 244C174.446 244 174.262 243.943 174.165 243.829C174.067 243.716 174.016 243.591 174.01 243.456C174.01 243.309 174.062 243.185 174.165 243.082C174.268 242.979 174.392 242.925 174.538 242.919C174.63 242.919 174.709 242.947 174.774 243.001C174.839 243.055 174.874 243.139 174.88 243.253C174.88 243.448 174.793 243.596 174.62 243.699C174.652 243.705 174.69 243.708 174.733 243.708C174.917 243.708 175.085 243.632 175.237 243.48C175.389 243.328 175.505 243.15 175.586 242.944L175.676 242.603C175.735 242.37 175.806 242.088 175.887 241.758C175.968 241.427 176.055 241.089 176.147 240.742C176.239 240.395 176.312 240.095 176.366 239.84C176.421 239.586 176.45 239.431 176.456 239.377C176.456 239.339 176.453 239.309 176.448 239.288Z" fill="black"/>
<path d="M178.719 232.011L178.765 232C178.804 232 178.842 232 178.88 232H179.018L179.34 232.276C180.06 232.927 180.585 233.739 180.914 234.712C181.244 235.685 181.408 236.696 181.408 237.746C181.408 238.267 181.37 238.769 181.294 239.251C181.217 239.734 181.129 240.144 181.029 240.481C180.93 240.818 180.788 241.155 180.604 241.492C180.42 241.829 180.275 242.086 180.167 242.262C180.06 242.438 179.903 242.634 179.696 242.848C179.489 243.063 179.367 243.189 179.328 243.227C179.29 243.266 179.202 243.339 179.064 243.446C179.041 243.469 179.026 243.484 179.018 243.492H178.88C178.819 243.492 178.777 243.492 178.754 243.492C178.731 243.492 178.712 243.48 178.696 243.457C178.681 243.434 178.67 243.4 178.662 243.354C178.67 243.346 178.712 243.296 178.788 243.204C179.976 241.971 180.57 240.151 180.57 237.746C180.57 235.34 179.976 233.521 178.788 232.287C178.712 232.195 178.67 232.146 178.662 232.138C178.662 232.077 178.681 232.034 178.719 232.011Z" fill="black"/>
<path d="M286.23 243.48H286.207C286.115 243.48 286.046 243.427 286 243.319V237.734L286.011 232.149C286.088 232.05 286.161 232 286.23 232C286.329 232 286.406 232.057 286.46 232.172V243.319C286.398 243.427 286.329 243.48 286.253 243.48H286.23Z" fill="black"/>
<path d="M289.425 243.48H289.402C289.31 243.48 289.241 243.427 289.195 243.319V237.734L289.206 232.149C289.283 232.05 289.356 232 289.425 232C289.524 232 289.601 232.057 289.654 232.172V243.319C289.593 243.427 289.524 243.48 289.448 243.48H289.425Z" fill="black"/>
<path d="M291.619 237.298C291.673 236.976 291.88 236.604 292.24 236.183C292.6 235.762 293.044 235.547 293.573 235.539C293.841 235.539 294.086 235.608 294.309 235.746C294.531 235.884 294.695 236.057 294.803 236.263C295.124 235.781 295.511 235.539 295.963 235.539C296.247 235.539 296.492 235.624 296.699 235.792C296.906 235.961 297.013 236.187 297.021 236.47C297.021 236.692 296.967 236.872 296.86 237.01C296.752 237.148 296.649 237.233 296.549 237.263C296.45 237.294 296.362 237.309 296.285 237.309C296.14 237.309 296.021 237.267 295.929 237.183C295.837 237.098 295.791 236.987 295.791 236.85C295.791 236.497 295.982 236.256 296.366 236.126C296.281 236.026 296.128 235.976 295.906 235.976C295.806 235.976 295.734 235.984 295.688 235.999C295.396 236.122 295.182 236.375 295.044 236.758C294.584 238.451 294.354 239.439 294.354 239.722C294.354 239.937 294.416 240.09 294.538 240.182C294.661 240.274 294.795 240.32 294.941 240.32C295.224 240.32 295.504 240.194 295.779 239.941C296.055 239.688 296.243 239.378 296.343 239.01C296.366 238.933 296.389 238.891 296.412 238.884C296.435 238.876 296.496 238.868 296.595 238.861H296.641C296.756 238.861 296.814 238.891 296.814 238.952C296.814 238.96 296.806 239.002 296.791 239.079C296.668 239.516 296.431 239.902 296.078 240.24C295.726 240.577 295.316 240.745 294.849 240.745C294.312 240.745 293.906 240.504 293.631 240.021C293.316 240.496 292.956 240.734 292.55 240.734H292.481C292.106 240.734 291.838 240.634 291.677 240.435C291.516 240.236 291.432 240.025 291.424 239.803C291.424 239.558 291.497 239.359 291.642 239.205C291.788 239.052 291.96 238.975 292.16 238.975C292.489 238.975 292.654 239.136 292.654 239.458C292.654 239.611 292.608 239.745 292.516 239.86C292.424 239.975 292.336 240.052 292.252 240.09C292.167 240.128 292.117 240.148 292.102 240.148L292.068 240.159C292.068 240.167 292.091 240.182 292.137 240.205C292.183 240.228 292.244 240.255 292.32 240.286C292.397 240.316 292.47 240.328 292.539 240.32C292.815 240.32 293.052 240.148 293.251 239.803C293.32 239.68 293.408 239.42 293.516 239.021C293.623 238.623 293.73 238.209 293.837 237.78C293.945 237.351 294.006 237.098 294.021 237.022C294.06 236.815 294.079 236.666 294.079 236.574C294.079 236.359 294.021 236.206 293.906 236.114C293.791 236.022 293.661 235.976 293.516 235.976C293.209 235.976 292.922 236.099 292.654 236.344C292.386 236.589 292.198 236.903 292.091 237.286C292.075 237.355 292.056 237.393 292.033 237.401C292.01 237.409 291.949 237.416 291.849 237.424H291.688C291.642 237.378 291.619 237.336 291.619 237.298Z" fill="black"/>
<path d="M299.09 237.468C299.09 237.338 299.142 237.224 299.244 237.127C299.347 237.029 299.467 236.978 299.602 236.972C299.699 236.972 299.781 237.005 299.846 237.07C299.911 237.135 299.946 237.216 299.951 237.313C299.951 237.438 299.897 237.552 299.789 237.655C299.681 237.758 299.561 237.812 299.431 237.817C299.35 237.817 299.274 237.79 299.204 237.736C299.133 237.682 299.096 237.592 299.09 237.468ZM297.766 240.011C297.766 239.967 297.79 239.884 297.839 239.759C297.888 239.634 297.953 239.496 298.034 239.345C298.115 239.193 298.234 239.055 298.391 238.93C298.548 238.806 298.711 238.746 298.879 238.751C299.09 238.751 299.266 238.814 299.407 238.938C299.548 239.063 299.621 239.231 299.626 239.442C299.626 239.534 299.588 239.686 299.513 239.897C299.437 240.108 299.328 240.393 299.188 240.75C299.047 241.108 298.933 241.414 298.846 241.668C298.819 241.787 298.806 241.874 298.806 241.928C298.806 242.064 298.852 242.131 298.944 242.131C298.993 242.131 299.044 242.123 299.098 242.107C299.152 242.091 299.215 242.053 299.285 241.993C299.356 241.934 299.429 241.839 299.504 241.709C299.58 241.579 299.648 241.419 299.708 241.229C299.724 241.164 299.737 241.127 299.748 241.116C299.759 241.105 299.805 241.1 299.886 241.1C299.995 241.1 300.049 241.127 300.049 241.181C300.049 241.224 300.024 241.308 299.976 241.433C299.927 241.557 299.859 241.695 299.773 241.847C299.686 241.999 299.564 242.134 299.407 242.253C299.25 242.372 299.082 242.432 298.903 242.432C298.73 242.432 298.57 242.375 298.424 242.261C298.278 242.148 298.202 241.974 298.196 241.741C298.196 241.649 298.21 241.563 298.237 241.481C298.264 241.4 298.381 241.091 298.586 240.555C298.792 240.008 298.911 239.68 298.944 239.572C298.976 239.464 298.995 239.358 299.001 239.255C299.001 239.125 298.955 239.06 298.863 239.06H298.846C298.684 239.06 298.535 239.15 298.4 239.328C298.264 239.507 298.161 239.735 298.091 240.011C298.085 240.016 298.08 240.024 298.075 240.035C298.069 240.046 298.066 240.054 298.066 240.06C298.066 240.065 298.061 240.07 298.05 240.076C298.039 240.081 298.031 240.084 298.026 240.084C298.02 240.084 298.01 240.084 297.993 240.084C297.977 240.084 297.955 240.084 297.928 240.084H297.815C297.782 240.051 297.766 240.027 297.766 240.011Z" fill="black"/>
<path d="M304.493 237.895C304.493 237.895 304.493 237.845 304.493 237.746C304.493 237.646 304.546 237.57 304.653 237.516H311.33C311.445 237.577 311.502 237.654 311.502 237.746C311.502 237.838 311.445 237.914 311.33 237.976H304.653C304.546 237.922 304.493 237.845 304.493 237.746V237.895Z" fill="black"/>
<path d="M315.619 237.298C315.672 236.976 315.879 236.604 316.239 236.183C316.599 235.762 317.044 235.547 317.572 235.539C317.841 235.539 318.086 235.608 318.308 235.746C318.53 235.884 318.695 236.057 318.802 236.263C319.124 235.781 319.511 235.539 319.963 235.539C320.246 235.539 320.491 235.624 320.698 235.792C320.905 235.961 321.012 236.187 321.02 236.47C321.02 236.692 320.966 236.872 320.859 237.01C320.752 237.148 320.648 237.233 320.549 237.263C320.449 237.294 320.361 237.309 320.284 237.309C320.139 237.309 320.02 237.267 319.928 237.183C319.836 237.098 319.79 236.987 319.79 236.85C319.79 236.497 319.982 236.256 320.365 236.126C320.281 236.026 320.127 235.976 319.905 235.976C319.806 235.976 319.733 235.984 319.687 235.999C319.396 236.122 319.181 236.375 319.043 236.758C318.584 238.451 318.354 239.439 318.354 239.722C318.354 239.937 318.415 240.09 318.538 240.182C318.66 240.274 318.794 240.32 318.94 240.32C319.223 240.32 319.503 240.194 319.779 239.941C320.055 239.688 320.242 239.378 320.342 239.01C320.365 238.933 320.388 238.891 320.411 238.884C320.434 238.876 320.495 238.868 320.595 238.861H320.641C320.756 238.861 320.813 238.891 320.813 238.952C320.813 238.96 320.805 239.002 320.79 239.079C320.668 239.516 320.43 239.902 320.078 240.24C319.725 240.577 319.315 240.745 318.848 240.745C318.312 240.745 317.906 240.504 317.63 240.021C317.316 240.496 316.956 240.734 316.55 240.734H316.481C316.105 240.734 315.837 240.634 315.676 240.435C315.515 240.236 315.431 240.025 315.423 239.803C315.423 239.558 315.496 239.359 315.642 239.205C315.787 239.052 315.96 238.975 316.159 238.975C316.488 238.975 316.653 239.136 316.653 239.458C316.653 239.611 316.607 239.745 316.515 239.86C316.423 239.975 316.335 240.052 316.251 240.09C316.167 240.128 316.117 240.148 316.101 240.148L316.067 240.159C316.067 240.167 316.09 240.182 316.136 240.205C316.182 240.228 316.243 240.255 316.32 240.286C316.396 240.316 316.469 240.328 316.538 240.32C316.814 240.32 317.051 240.148 317.251 239.803C317.32 239.68 317.408 239.42 317.515 239.021C317.622 238.623 317.729 238.209 317.837 237.78C317.944 237.351 318.005 237.098 318.021 237.022C318.059 236.815 318.078 236.666 318.078 236.574C318.078 236.359 318.021 236.206 317.906 236.114C317.791 236.022 317.661 235.976 317.515 235.976C317.209 235.976 316.921 236.099 316.653 236.344C316.385 236.589 316.197 236.903 316.09 237.286C316.075 237.355 316.056 237.393 316.033 237.401C316.01 237.409 315.948 237.416 315.849 237.424H315.688C315.642 237.378 315.619 237.336 315.619 237.298Z" fill="black"/>
<path d="M324.008 237.5C324.008 237.332 324.064 237.202 324.178 237.11C324.292 237.018 324.408 236.972 324.528 236.972C324.62 236.972 324.695 236.999 324.755 237.053C324.815 237.108 324.853 237.183 324.869 237.281C324.869 237.433 324.817 237.56 324.714 237.663C324.611 237.766 324.492 237.817 324.357 237.817C324.259 237.817 324.178 237.79 324.113 237.736C324.048 237.682 324.013 237.603 324.008 237.5ZM323.934 239.288C323.934 239.131 323.864 239.052 323.723 239.052C323.604 239.052 323.49 239.085 323.382 239.15C323.274 239.215 323.179 239.299 323.098 239.401C323.016 239.504 322.951 239.605 322.903 239.702C322.854 239.8 322.808 239.886 322.764 239.962L322.708 240.076C322.697 240.081 322.653 240.084 322.578 240.084H322.464C322.431 240.051 322.415 240.03 322.415 240.019C322.415 240.008 322.426 239.973 322.448 239.913C322.561 239.648 322.721 239.399 322.927 239.166C323.133 238.933 323.371 238.798 323.642 238.76C323.647 238.76 323.669 238.76 323.707 238.76C323.745 238.76 323.777 238.757 323.804 238.751C323.934 238.757 324.054 238.784 324.162 238.833C324.297 238.909 324.4 238.992 324.471 239.085C324.541 239.177 324.576 239.32 324.576 239.515V239.645L324.178 241.262C323.902 242.345 323.756 242.909 323.739 242.952C323.642 243.223 323.452 243.464 323.171 243.675C322.889 243.886 322.567 243.995 322.204 244C321.933 244 321.749 243.943 321.651 243.829C321.554 243.716 321.502 243.591 321.497 243.456C321.497 243.309 321.548 243.185 321.651 243.082C321.754 242.979 321.879 242.925 322.025 242.919C322.117 242.919 322.196 242.947 322.261 243.001C322.326 243.055 322.361 243.139 322.366 243.253C322.366 243.448 322.28 243.596 322.106 243.699C322.139 243.705 322.177 243.708 322.22 243.708C322.404 243.708 322.572 243.632 322.724 243.48C322.876 243.328 322.992 243.15 323.073 242.944L323.163 242.603C323.222 242.37 323.293 242.088 323.374 241.758C323.455 241.427 323.542 241.089 323.634 240.742C323.726 240.395 323.799 240.095 323.853 239.84C323.907 239.586 323.937 239.431 323.943 239.377C323.943 239.339 323.94 239.309 323.934 239.288Z" fill="black"/>
<path d="M327.114 243.48H327.091C326.999 243.48 326.93 243.427 326.884 243.319V237.734L326.896 232.149C326.972 232.05 327.045 232 327.114 232C327.214 232 327.29 232.057 327.344 232.172V243.319C327.283 243.427 327.214 243.48 327.137 243.48H327.114Z" fill="black"/>
<path d="M330.309 243.48H330.286C330.194 243.48 330.125 243.427 330.079 243.319V237.734L330.09 232.149C330.167 232.05 330.24 232 330.309 232C330.408 232 330.485 232.057 330.539 232.172V243.319C330.477 243.427 330.408 243.48 330.332 243.48H330.309Z" fill="black"/>
<path d="M565 237.556C565.008 237.532 565.016 237.5 565.024 237.46C565.032 237.42 565.052 237.332 565.084 237.196C565.116 237.06 565.156 236.936 565.204 236.824C565.252 236.712 565.312 236.58 565.384 236.428C565.456 236.276 565.536 236.156 565.624 236.068C565.712 235.98 565.816 235.892 565.936 235.804C566.056 235.716 566.188 235.68 566.332 235.696C566.564 235.696 566.768 235.744 566.944 235.84C567.12 235.936 567.244 236.024 567.316 236.104C567.388 236.184 567.432 236.264 567.448 236.344C567.464 236.392 567.476 236.416 567.484 236.416C567.492 236.416 567.524 236.388 567.58 236.332C567.964 235.916 568.408 235.708 568.912 235.708H568.948C569.332 235.708 569.62 235.872 569.812 236.2C569.876 236.352 569.908 236.5 569.908 236.644C569.908 236.884 569.856 237.076 569.752 237.22C569.648 237.364 569.544 237.456 569.44 237.496C569.336 237.536 569.236 237.552 569.14 237.544C568.98 237.544 568.852 237.5 568.756 237.412C568.66 237.324 568.612 237.208 568.612 237.064C568.612 236.68 568.836 236.424 569.284 236.296C569.108 236.192 568.964 236.14 568.852 236.14C568.404 236.14 567.992 236.436 567.616 237.028C567.536 237.156 567.476 237.288 567.436 237.424C567.396 237.56 567.26 238.092 567.028 239.02C566.756 240.14 566.6 240.736 566.56 240.808C566.456 241.024 566.284 241.132 566.044 241.132C565.94 241.132 565.856 241.108 565.792 241.06C565.728 241.012 565.684 240.964 565.66 240.916C565.636 240.868 565.628 240.828 565.636 240.796C565.636 240.692 565.796 240.004 566.116 238.732C566.436 237.46 566.596 236.752 566.596 236.608C566.596 236.296 566.492 236.14 566.284 236.14C566.116 236.14 565.972 236.252 565.852 236.476C565.732 236.7 565.636 236.944 565.564 237.208C565.492 237.472 565.448 237.616 565.432 237.64C565.416 237.656 565.352 237.664 565.24 237.664H565.072C565.024 237.616 565 237.58 565 237.556Z" fill="black"/>
<path d="M571.288 238C571.288 237.448 571.328 236.924 571.408 236.428C571.488 235.932 571.58 235.504 571.684 235.144C571.788 234.784 571.936 234.432 572.128 234.088C572.32 233.744 572.472 233.476 572.584 233.284C572.696 233.092 572.864 232.884 573.088 232.66C573.312 232.436 573.444 232.3 573.484 232.252C573.524 232.204 573.624 232.12 573.784 232H573.94H573.988C574.1 232 574.156 232.036 574.156 232.108C574.156 232.132 574.088 232.216 573.952 232.36C573.816 232.504 573.652 232.716 573.46 232.996C573.268 233.276 573.072 233.62 572.872 234.028C572.672 234.436 572.504 234.988 572.368 235.684C572.232 236.38 572.164 237.152 572.164 238C572.164 238.848 572.232 239.616 572.368 240.304C572.504 240.992 572.668 241.548 572.86 241.972C573.052 242.396 573.248 242.74 573.448 243.004C573.648 243.268 573.816 243.48 573.952 243.64C574.088 243.8 574.156 243.884 574.156 243.892C574.156 243.964 574.096 244 573.976 244H573.94H573.784L573.448 243.712C572.696 243.032 572.148 242.184 571.804 241.168C571.46 240.152 571.288 239.096 571.288 238Z" fill="black"/>
<path d="M575.452 237.532C575.508 237.196 575.724 236.808 576.1 236.368C576.476 235.928 576.94 235.704 577.492 235.696C577.772 235.696 578.028 235.768 578.26 235.912C578.492 236.056 578.664 236.236 578.776 236.452C579.112 235.948 579.516 235.696 579.988 235.696C580.284 235.696 580.54 235.784 580.756 235.96C580.972 236.136 581.084 236.372 581.092 236.668C581.092 236.9 581.036 237.088 580.924 237.232C580.812 237.376 580.704 237.464 580.6 237.496C580.496 237.528 580.404 237.544 580.324 237.544C580.172 237.544 580.048 237.5 579.952 237.412C579.856 237.324 579.808 237.208 579.808 237.064C579.808 236.696 580.008 236.444 580.408 236.308C580.32 236.204 580.16 236.152 579.928 236.152C579.824 236.152 579.748 236.16 579.7 236.176C579.396 236.304 579.172 236.568 579.028 236.968C578.548 238.736 578.308 239.768 578.308 240.064C578.308 240.288 578.372 240.448 578.5 240.544C578.628 240.64 578.768 240.688 578.92 240.688C579.216 240.688 579.508 240.556 579.796 240.292C580.084 240.028 580.28 239.704 580.384 239.32C580.408 239.24 580.432 239.196 580.456 239.188C580.48 239.18 580.544 239.172 580.648 239.164H580.696C580.816 239.164 580.876 239.196 580.876 239.26C580.876 239.268 580.868 239.312 580.852 239.392C580.724 239.848 580.476 240.252 580.108 240.604C579.74 240.956 579.312 241.132 578.824 241.132C578.264 241.132 577.84 240.88 577.552 240.376C577.224 240.872 576.848 241.12 576.424 241.12H576.352C575.96 241.12 575.68 241.016 575.512 240.808C575.344 240.6 575.256 240.38 575.248 240.148C575.248 239.892 575.324 239.684 575.476 239.524C575.628 239.364 575.808 239.284 576.016 239.284C576.36 239.284 576.532 239.452 576.532 239.788C576.532 239.948 576.484 240.088 576.388 240.208C576.292 240.328 576.2 240.408 576.112 240.448C576.024 240.488 575.972 240.508 575.956 240.508L575.92 240.52C575.92 240.528 575.944 240.544 575.992 240.568C576.04 240.592 576.104 240.62 576.184 240.652C576.264 240.684 576.34 240.696 576.412 240.688C576.7 240.688 576.948 240.508 577.156 240.148C577.228 240.02 577.32 239.748 577.432 239.332C577.544 238.916 577.656 238.484 577.768 238.036C577.88 237.588 577.944 237.324 577.96 237.244C578 237.028 578.02 236.872 578.02 236.776C578.02 236.552 577.96 236.392 577.84 236.296C577.72 236.2 577.584 236.152 577.432 236.152C577.112 236.152 576.812 236.28 576.532 236.536C576.252 236.792 576.056 237.12 575.944 237.52C575.928 237.592 575.908 237.632 575.884 237.64C575.86 237.648 575.796 237.656 575.692 237.664H575.524C575.476 237.616 575.452 237.572 575.452 237.532Z" fill="black"/>
<path d="M583.253 237.71C583.253 237.574 583.307 237.455 583.414 237.353C583.522 237.251 583.646 237.198 583.788 237.192C583.889 237.192 583.974 237.226 584.042 237.294C584.11 237.362 584.147 237.447 584.152 237.548C584.152 237.678 584.096 237.797 583.983 237.905C583.87 238.012 583.745 238.069 583.609 238.074C583.525 238.074 583.445 238.046 583.372 237.99C583.298 237.933 583.259 237.84 583.253 237.71ZM581.87 240.365C581.87 240.32 581.896 240.232 581.947 240.102C581.997 239.972 582.065 239.828 582.15 239.669C582.235 239.511 582.359 239.367 582.523 239.237C582.687 239.107 582.857 239.044 583.032 239.05C583.253 239.05 583.437 239.115 583.584 239.245C583.731 239.375 583.807 239.551 583.813 239.771C583.813 239.867 583.773 240.026 583.694 240.246C583.615 240.467 583.502 240.764 583.355 241.137C583.208 241.51 583.089 241.83 582.999 242.096C582.97 242.22 582.956 242.311 582.956 242.367C582.956 242.509 583.004 242.579 583.1 242.579C583.151 242.579 583.205 242.571 583.262 242.554C583.318 242.537 583.383 242.497 583.457 242.435C583.53 242.373 583.607 242.274 583.686 242.138C583.765 242.002 583.836 241.836 583.898 241.638C583.915 241.57 583.929 241.53 583.94 241.519C583.952 241.508 584 241.502 584.084 241.502C584.198 241.502 584.254 241.53 584.254 241.587C584.254 241.632 584.229 241.72 584.178 241.85C584.127 241.98 584.056 242.124 583.966 242.282C583.875 242.441 583.748 242.582 583.584 242.707C583.42 242.831 583.245 242.893 583.058 242.893C582.877 242.893 582.71 242.834 582.557 242.715C582.405 242.596 582.325 242.415 582.32 242.172C582.32 242.076 582.334 241.986 582.362 241.901C582.391 241.816 582.512 241.493 582.727 240.934C582.942 240.362 583.066 240.02 583.1 239.907C583.134 239.794 583.154 239.684 583.16 239.576C583.16 239.44 583.112 239.372 583.016 239.372H582.999C582.829 239.372 582.673 239.466 582.532 239.652C582.391 239.839 582.283 240.077 582.21 240.365C582.204 240.371 582.198 240.379 582.193 240.391C582.187 240.402 582.184 240.41 582.184 240.416C582.184 240.422 582.178 240.427 582.167 240.433C582.156 240.439 582.147 240.441 582.142 240.441C582.136 240.441 582.125 240.441 582.108 240.441C582.091 240.441 582.068 240.441 582.04 240.441H581.921C581.887 240.407 581.87 240.382 581.87 240.365Z" fill="black"/>
<path d="M585.94 232.012L585.988 232C586.028 232 586.068 232 586.108 232H586.252L586.588 232.288C587.34 232.968 587.888 233.816 588.232 234.832C588.576 235.848 588.748 236.904 588.748 238C588.748 238.544 588.708 239.068 588.628 239.572C588.548 240.076 588.456 240.504 588.352 240.856C588.248 241.208 588.1 241.56 587.908 241.912C587.716 242.264 587.564 242.532 587.452 242.716C587.34 242.9 587.176 243.104 586.96 243.328C586.744 243.552 586.616 243.684 586.576 243.724C586.536 243.764 586.444 243.84 586.3 243.952C586.276 243.976 586.26 243.992 586.252 244H586.108C586.044 244 586 244 585.976 244C585.952 244 585.932 243.988 585.916 243.964C585.9 243.94 585.888 243.904 585.88 243.856C585.888 243.848 585.932 243.796 586.012 243.7C587.252 242.412 587.872 240.512 587.872 238C587.872 235.488 587.252 233.588 586.012 232.3C585.932 232.204 585.888 232.152 585.88 232.144C585.88 232.08 585.9 232.036 585.94 232.012Z" fill="black"/>
</svg>
