<?xml version="1.0" encoding="utf-8" ?>
<svg baseProfile="tiny" height="400" version="1.2" width="600" xmlns="http://www.w3.org/2000/svg" xmlns:ev="http://www.w3.org/2001/xml-events" xmlns:xlink="http://www.w3.org/1999/xlink"><defs /><rect width="600" height="400" fill="none" stroke="black" /><circle cx="133.8632" cy="253.7869" fill="black" r="7.4622" /><circle cx="511.065" cy="374.0134" fill="black" r="7.754" /><circle cx="141.6208" cy="255.1012" fill="black" r="4.8476" /><circle cx="569.8847" cy="295.6285" fill="black" r="7.0515" /><circle cx="574.1789" cy="41.6622" fill="black" r="9.5574" /><circle cx="252.0352" cy="199.7568" fill="black" r="4.6071" /><circle cx="475.2777" cy="142.2418" fill="black" r="2.907" /><circle cx="538.87" cy="26.856" fill="black" r="6.2012" /><circle cx="588.8482" cy="283.3853" fill="black" r="2.4121" /><circle cx="134.4314" cy="103.8298" fill="black" r="6.7834" /><circle cx="105.5211" cy="221.315" fill="black" r="8.2107" /><circle cx="355.3319" cy="284.6251" fill="black" r="4.372" /><circle cx="342.6586" cy="176.6899" fill="black" r="3.1849" /><circle cx="116.0162" cy="265.6278" fill="black" r="8.0767" /><circle cx="74.6415" cy="196.0513" fill="black" r="7.7154" /><circle cx="500.8179" cy="128.0305" fill="black" r="8.7148" /><circle cx="514.3447" cy="180.4732" fill="black" r="6.2436" /><circle cx="304.3371" cy="115.2604" fill="black" r="6.1312" /><circle cx="356.1927" cy="265.1846" fill="black" r="3.8127" /><circle cx="115.4681" cy="238.3636" fill="black" r="3.4812" /><circle cx="543.1244" cy="224.0074" fill="black" r="8.9112" /><circle cx="220.2417" cy="299.9614" fill="black" r="7.7362" /><circle cx="483.4445" cy="358.4142" fill="black" r="2.1013" /><circle cx="9.6373" cy="207.3768" fill="black" r="4.1175" /><circle cx="171.9285" cy="247.3895" fill="black" r="7.685" /><circle cx="422.8192" cy="292.4881" fill="black" r="6.9386" /><circle cx="238.7066" cy="261.4921" fill="black" r="6.478" /><circle cx="292.5584" cy="59.2256" fill="black" r="9.4078" /><circle cx="494.5189" cy="333.2436" fill="black" r="8.7107" /><circle cx="139.9904" cy="216.2843" fill="black" r="8.3859" /><circle cx="87.9501" cy="383.1667" fill="black" r="8.0671" /><circle cx="2.2894" cy="325.1636" fill="black" r="7.1158" /><circle cx="153.9453" cy="273.742" fill="black" r="8.8049" /><circle cx="412.5227" cy="101.7884" fill="black" r="4.9075" /><circle cx="347.5478" cy="43.8354" fill="black" r="8.4169" /><circle cx="107.2601" cy="330.4472" fill="black" r="3.1594" /><circle cx="467.5279" cy="140.6989" fill="black" r="5.5267" /><circle cx="126.0957" cy="137.1084" fill="black" r="6.8851" /><circle cx="409.7156" cy="137.0777" fill="black" r="5.9942" /><circle cx="298.413" cy="215.0893" fill="black" r="3.2835" /><circle cx="164.4342" cy="208.6119" fill="black" r="2.4926" /><circle cx="479.5479" cy="263.6062" fill="black" r="3.059" /><circle cx="487.0179" cy="117.124" fill="black" r="5.909" /><circle cx="67.9537" cy="106.4476" fill="black" r="5.0123" /><circle cx="588.7486" cy="175.8341" fill="black" r="3.8589" /><circle cx="383.185" cy="369.8906" fill="black" r="9.1797" /><circle cx="136.6866" cy="272.1237" fill="black" r="9.0762" /><circle cx="327.8911" cy="131.5756" fill="black" r="2.8324" /><circle cx="225.7653" cy="246.8156" fill="black" r="7.9766" /><circle cx="317.7438" cy="341.5625" fill="black" r="7.4783" /><circle cx="209.0806" cy="334.1142" fill="black" r="3.6034" /><circle cx="1.2229" cy="273.3132" fill="black" r="5.1189" /><circle cx="289.969" cy="243.786" fill="black" r="3.7213" /><circle cx="524.965" cy="47.5307" fill="black" r="2.809" /><circle cx="486.8428" cy="397.2531" fill="black" r="7.6117" /><circle cx="480.5423" cy="301.5443" fill="black" r="2.7707" /><circle cx="529.8366" cy="356.4678" fill="black" r="9.7716" /><circle cx="75.6666" cy="76.0258" fill="black" r="6.432" /><circle cx="94.4664" cy="245.0185" fill="black" r="7.3614" /><circle cx="21.6173" cy="109.205" fill="black" r="5.0402" /><circle cx="60.653" cy="149.6966" fill="black" r="9.6719" /><circle cx="537.109" cy="363.9343" fill="black" r="8.1202" /><circle cx="45.0271" cy="225.2722" fill="black" r="7.8445" /><circle cx="264.6248" cy="95.1823" fill="black" r="4.0417" /><circle cx="491.8831" cy="218.3902" fill="black" r="4.4541" /><circle cx="549.4686" cy="206.528" fill="black" r="5.3081" /><circle cx="219.5212" cy="104.5266" fill="black" r="8.6233" /><circle cx="219.3752" cy="4.5063" fill="black" r="3.8551" /><circle cx="566.3378" cy="10.1366" fill="black" r="4.6384" /><circle cx="49.3538" cy="294.8147" fill="black" r="8.6428" /><circle cx="375.6881" cy="327.5944" fill="black" r="6.374" /><circle cx="232.6608" cy="378.8819" fill="black" r="5.3141" /><circle cx="73.1908" cy="303.908" fill="black" r="4.5296" /><circle cx="554.19" cy="204.769" fill="black" r="7.7363" /><circle cx="124.5938" cy="181.448" fill="black" r="2.6647" /><circle cx="87.5476" cy="357.101" fill="black" r="5.175" /><circle cx="568.177" cy="220.6334" fill="black" r="8.6634" /><circle cx="370.9717" cy="251.5724" fill="black" r="2.5" /><circle cx="329.259" cy="235.6406" fill="black" r="2.746" /><circle cx="41.3154" cy="298.5951" fill="black" r="2.2463" /><circle cx="53.687" cy="204.4384" fill="black" r="4.6707" /><circle cx="398.1369" cy="160.6017" fill="black" r="4.0213" /><circle cx="412.1565" cy="366.5526" fill="black" r="6.9977" /><circle cx="543.0923" cy="393.4306" fill="black" r="8.7699" /><circle cx="82.4254" cy="263.5824" fill="black" r="5.4121" /><circle cx="262.5248" cy="325.651" fill="black" r="3.5194" /><circle cx="571.5812" cy="204.6042" fill="black" r="4.6863" /><circle cx="556.7267" cy="340.3856" fill="black" r="3.2681" /><circle cx="216.7133" cy="7.4201" fill="black" r="3.34" /><circle cx="222.7742" cy="297.0626" fill="black" r="2.0754" /><circle cx="245.4278" cy="173.2804" fill="black" r="2.3312" /><circle cx="91.638" cy="264.7484" fill="black" r="6.9253" /><circle cx="433.3921" cy="381.0501" fill="black" r="8.0247" /><circle cx="51.8623" cy="328.5147" fill="black" r="8.7487" /><circle cx="425.3339" cy="358.3761" fill="black" r="5.3602" /><circle cx="313.6933" cy="341.7933" fill="black" r="9.0718" /><circle cx="57.3842" cy="211.9503" fill="black" r="4.0954" /><circle cx="594.6449" cy="34.3117" fill="black" r="4.9254" /><circle cx="327.8907" cy="206.3105" fill="black" r="8.9091" /><circle cx="93.6801" cy="219.3898" fill="black" r="7.4932" /></svg>