<svg width="762" height="327" viewBox="0 0 762 327" fill="none" xmlns="http://www.w3.org/2000/svg">
<path d="M641 83L680 121C711.641 118.224 729.472 117.068 761.5 116" stroke="black"/>
<rect x="13.5" y="0.5" width="326" height="326" stroke="black"/>
<rect x="435.5" y="0.5" width="326" height="326" stroke="black"/>
<circle cx="53" cy="66" r="52.5" stroke="black" stroke-dasharray="4 4"/>
<circle cx="287" cy="134" r="52.5" stroke="black" stroke-dasharray="4 4"/>
<g filter="url(#filter0_d_45_88)">
<circle cx="185" cy="160" r="78.5" stroke="black" stroke-dasharray="4 4" shape-rendering="crispEdges"/>
</g>
<rect x="50.5" y="63.5" width="5" height="5" stroke="black"/>
<rect x="182.5" y="160.5" width="5" height="5" stroke="black"/>
<rect x="284.5" y="131.5" width="5" height="5" stroke="black"/>
<rect x="484.5" y="50.5" width="5" height="5" stroke="black"/>
<rect x="582.5" y="50.5" width="5" height="5" stroke="black"/>
<rect x="701.5" y="55.5" width="5" height="5" stroke="black"/>
<rect x="499.5" y="142.5" width="5" height="5" stroke="black"/>
<rect x="618.5" y="139.5" width="5" height="5" stroke="black"/>
<rect x="709.5" y="175.5" width="5" height="5" stroke="black"/>
<path d="M643 212.5H624M624 212.5C602.102 187.882 587.717 174.84 559.5 152.5M624 212.5L572.5 257.5M559.5 152.5L512 195M559.5 152.5L559 116.5M512 195C516.498 213.582 518.068 224.099 519.5 243M512 195C482.807 183.653 466.048 179.208 435.5 174.5M519.5 243C540.675 246.554 552.251 249.852 572.5 257.5M519.5 243L494.5 266.5M572.5 257.5C577.602 283.175 578.607 298.167 577 326M494.5 266.5C470.821 261.42 457.967 260.897 435.5 262.5M494.5 266.5C500.277 286.512 501.527 299.374 500 326" stroke="black"/>
<rect x="711.5" y="274.5" width="5" height="5" stroke="black"/>
<rect x="617.5" y="277.5" width="5" height="5" stroke="black"/>
<rect x="558.5" y="206.5" width="5" height="5" stroke="black"/>
<rect x="473.5" y="220.5" width="5" height="5" stroke="black"/>
<rect x="467.5" y="293.5" width="5" height="5" stroke="black"/>
<rect x="534.5" y="283.5" width="5" height="5" stroke="black"/>
<path d="M533.5 0.5V95M533.5 95C533.5 95 517 95.5 488.5 100.5C460 105.5 435.5 114 435.5 114M533.5 95L559 116.5L641 83L644.5 0.5" stroke="black"/>
<path d="M124 66L119 63.1132V68.8868L124 66ZM53 66.5H119.5V65.5H53V66.5Z" fill="black"/>
<path d="M136.867 176.537L142.462 177.962L140.899 172.405L136.867 176.537ZM184.865 162.519L141.064 174.838L141.335 175.8L185.135 163.481L184.865 162.519Z" fill="black"/>
<path d="M325.506 123L319.911 121.575L321.474 127.133L325.506 123ZM321.039 123.737L286.865 133.348L287.135 134.311L321.309 124.7L321.039 123.737Z" fill="black"/>
<path d="M113.205 58.1807C113.068 58.1807 113 58.1406 113 58.0602C113 58.0442 113.012 57.9879 113.036 57.8916C113.068 57.763 113.1 57.6908 113.133 57.6747C113.165 57.6586 113.257 57.6466 113.41 57.6385C113.627 57.6385 113.867 57.6265 114.133 57.6024C114.245 57.5783 114.321 57.5301 114.361 57.4578C114.378 57.4177 114.663 56.2891 115.217 54.0723C115.771 51.8554 116.052 50.7309 116.06 50.6988C116.06 50.6426 116.044 50.6145 116.012 50.6145C115.948 50.5904 115.735 50.5703 115.373 50.5542H115C114.952 50.506 114.928 50.4739 114.928 50.4578C114.928 50.4418 114.936 50.3735 114.952 50.253C114.984 50.1165 115.024 50.0321 115.072 50H121.566C121.622 50.0321 121.651 50.0763 121.651 50.1325C121.651 50.1727 121.598 50.6225 121.494 51.4819C121.39 52.3414 121.333 52.7831 121.325 52.8072C121.309 52.8634 121.229 52.8916 121.084 52.8916H120.94C120.884 52.8514 120.855 52.7992 120.855 52.7349C120.855 52.7269 120.867 52.6305 120.892 52.4458C120.916 52.261 120.928 52.0482 120.928 51.8072C120.928 51.5663 120.9 51.3695 120.843 51.2169C120.787 51.0643 120.711 50.9398 120.614 50.8434C120.518 50.747 120.369 50.6827 120.169 50.6506C119.968 50.6185 119.763 50.5904 119.554 50.5663C119.345 50.5422 119.056 50.5381 118.687 50.5542H118.41C117.751 50.5622 117.402 50.5743 117.361 50.5904C117.321 50.6064 117.293 50.6385 117.277 50.6867C117.269 50.6948 117.133 51.2209 116.867 52.2651L116.482 53.8193H117.145C117.169 53.8193 117.261 53.8193 117.422 53.8193C117.582 53.8193 117.695 53.8153 117.759 53.8072C117.823 53.7992 117.912 53.7871 118.024 53.7711C118.137 53.755 118.233 53.7269 118.313 53.6867C118.394 53.6466 118.462 53.5984 118.518 53.5422C118.622 53.4458 118.711 53.3132 118.783 53.1446C118.855 52.9759 118.908 52.8233 118.94 52.6867C118.972 52.5502 118.992 52.4779 119 52.4699C119.024 52.4297 119.1 52.4096 119.229 52.4096H119.373C119.43 52.4498 119.458 52.49 119.458 52.5301C119.458 52.5542 119.333 53.0803 119.084 54.1084C118.835 55.1365 118.699 55.6667 118.675 55.6988C118.659 55.755 118.578 55.7831 118.434 55.7831H118.289C118.233 55.7349 118.205 55.6867 118.205 55.6385C118.205 55.6145 118.225 55.5261 118.265 55.3735C118.305 55.2209 118.325 55.0602 118.325 54.8916C118.325 54.6586 118.245 54.514 118.084 54.4578C117.924 54.4016 117.566 54.3735 117.012 54.3735H116.349L115.964 55.9036C115.707 56.8996 115.578 57.4217 115.578 57.4699C115.578 57.5823 115.936 57.6385 116.651 57.6385H116.952C117 57.6867 117.024 57.7149 117.024 57.7229C117.024 57.7309 117.016 57.8112 117 57.9638C116.968 58.0683 116.928 58.1446 116.88 58.1928H116.675C116.345 58.1767 115.739 58.1687 114.855 58.1687C114.333 58.1687 113.936 58.1687 113.663 58.1687C113.39 58.1687 113.237 58.1727 113.205 58.1807Z" fill="black"/>
<path d="M122.341 54.574C122.188 54.574 122.097 54.5711 122.069 54.5655C122.04 54.5598 122.026 54.5286 122.026 54.4718C122.026 54.3184 122.057 54.2247 122.12 54.1907C122.125 54.185 122.494 54.1822 123.227 54.1822C124.698 54.1822 125.473 54.1878 125.552 54.1992C125.91 54.256 126.208 54.3838 126.447 54.5825C126.685 54.7813 126.807 55.0425 126.813 55.3662C126.813 55.7296 126.648 56.0561 126.319 56.3457C125.99 56.6354 125.612 56.8313 125.186 56.9335L125.101 56.959C125.464 57.0102 125.763 57.1408 125.995 57.3509C126.228 57.561 126.348 57.8222 126.353 58.1345C126.353 58.5491 126.149 58.9494 125.74 59.3356C125.331 59.7217 124.828 59.9404 124.232 59.9915C124.192 59.9972 123.593 60 122.435 60C121.299 60 120.723 59.9943 120.706 59.983C120.683 59.9659 120.672 59.9432 120.672 59.9148C120.672 59.8751 120.677 59.8353 120.689 59.7956C120.717 59.6877 120.745 59.628 120.774 59.6167C120.797 59.611 120.839 59.6082 120.902 59.6082H120.953C121.106 59.6082 121.276 59.5997 121.464 59.5826C121.543 59.5656 121.597 59.5315 121.626 59.4804C121.643 59.4577 121.847 58.6683 122.239 57.1124C122.631 55.5564 122.827 54.7358 122.827 54.6507C122.827 54.6109 122.665 54.5853 122.341 54.574ZM125.902 55.3662C125.902 55.1958 125.859 55.0368 125.774 54.8892C125.689 54.7415 125.55 54.645 125.357 54.5995C125.317 54.5882 125.056 54.5797 124.573 54.574C124.459 54.574 124.34 54.574 124.215 54.574C124.09 54.574 123.991 54.5768 123.917 54.5825H123.806C123.721 54.5882 123.667 54.6166 123.644 54.6677C123.633 54.6904 123.542 55.0311 123.372 55.6899C123.372 55.7069 123.369 55.7239 123.363 55.741L123.099 56.8142H123.789C124.249 56.8142 124.513 56.8086 124.581 56.7972C124.922 56.7404 125.226 56.5757 125.493 56.3032C125.76 56.0306 125.896 55.7182 125.902 55.3662ZM125.442 58.0494C125.442 57.7995 125.376 57.5922 125.246 57.4275C125.115 57.2629 124.945 57.1663 124.735 57.1379C124.701 57.1322 124.465 57.1294 124.028 57.1294C123.358 57.1294 123.02 57.1322 123.014 57.1379C123.014 57.1493 122.966 57.3566 122.869 57.7597C122.773 58.1629 122.673 58.5633 122.571 58.9608L122.418 59.5571C122.418 59.5798 122.452 59.5911 122.52 59.5911C122.588 59.5911 122.818 59.5968 123.21 59.6082C123.715 59.6082 123.988 59.6053 124.028 59.5997C124.38 59.5599 124.704 59.3952 124.999 59.1056C125.294 58.816 125.442 58.4639 125.442 58.0494Z" fill="black"/>
<path d="M134.205 168.181C134.068 168.181 134 168.141 134 168.06C134 168.044 134.012 167.988 134.036 167.892C134.068 167.763 134.1 167.691 134.133 167.675C134.165 167.659 134.257 167.647 134.41 167.639C134.627 167.639 134.867 167.627 135.133 167.602C135.245 167.578 135.321 167.53 135.361 167.458C135.378 167.418 135.663 166.289 136.217 164.072C136.771 161.855 137.052 160.731 137.06 160.699C137.06 160.643 137.044 160.614 137.012 160.614C136.948 160.59 136.735 160.57 136.373 160.554H136C135.952 160.506 135.928 160.474 135.928 160.458C135.928 160.442 135.936 160.373 135.952 160.253C135.984 160.116 136.024 160.032 136.072 160H142.566C142.622 160.032 142.651 160.076 142.651 160.133C142.651 160.173 142.598 160.622 142.494 161.482C142.39 162.341 142.333 162.783 142.325 162.807C142.309 162.863 142.229 162.892 142.084 162.892H141.94C141.884 162.851 141.855 162.799 141.855 162.735C141.855 162.727 141.867 162.631 141.892 162.446C141.916 162.261 141.928 162.048 141.928 161.807C141.928 161.566 141.9 161.369 141.843 161.217C141.787 161.064 141.711 160.94 141.614 160.843C141.518 160.747 141.369 160.683 141.169 160.651C140.968 160.618 140.763 160.59 140.554 160.566C140.345 160.542 140.056 160.538 139.687 160.554H139.41C138.751 160.562 138.402 160.574 138.361 160.59C138.321 160.606 138.293 160.639 138.277 160.687C138.269 160.695 138.133 161.221 137.867 162.265L137.482 163.819H138.145C138.169 163.819 138.261 163.819 138.422 163.819C138.582 163.819 138.695 163.815 138.759 163.807C138.823 163.799 138.912 163.787 139.024 163.771C139.137 163.755 139.233 163.727 139.313 163.687C139.394 163.647 139.462 163.598 139.518 163.542C139.622 163.446 139.711 163.313 139.783 163.145C139.855 162.976 139.908 162.823 139.94 162.687C139.972 162.55 139.992 162.478 140 162.47C140.024 162.43 140.1 162.41 140.229 162.41H140.373C140.43 162.45 140.458 162.49 140.458 162.53C140.458 162.554 140.333 163.08 140.084 164.108C139.835 165.137 139.699 165.667 139.675 165.699C139.659 165.755 139.578 165.783 139.434 165.783H139.289C139.233 165.735 139.205 165.687 139.205 165.639C139.205 165.614 139.225 165.526 139.265 165.373C139.305 165.221 139.325 165.06 139.325 164.892C139.325 164.659 139.245 164.514 139.084 164.458C138.924 164.402 138.566 164.373 138.012 164.373H137.349L136.964 165.904C136.707 166.9 136.578 167.422 136.578 167.47C136.578 167.582 136.936 167.639 137.651 167.639H137.952C138 167.687 138.024 167.715 138.024 167.723C138.024 167.731 138.016 167.811 138 167.964C137.968 168.068 137.928 168.145 137.88 168.193H137.675C137.345 168.177 136.739 168.169 135.855 168.169C135.333 168.169 134.936 168.169 134.663 168.169C134.39 168.169 134.237 168.173 134.205 168.181Z" fill="black"/>
<path d="M141.714 166.278C141.606 166.278 141.552 166.255 141.552 166.209C141.552 166.181 141.598 166.022 141.689 165.732C141.78 165.443 141.876 165.156 141.978 164.872L142.123 164.455C142.151 164.353 142.188 164.279 142.234 164.233H146.22H146.987C147.169 164.233 147.277 164.236 147.311 164.242C147.345 164.247 147.365 164.273 147.37 164.318C147.37 164.353 147.322 164.676 147.225 165.29C147.129 165.903 147.075 166.212 147.064 166.218C147.064 166.258 147.01 166.278 146.902 166.278C146.851 166.278 146.817 166.278 146.8 166.278C146.782 166.278 146.765 166.263 146.748 166.235L146.731 166.209C146.731 166.175 146.748 166.048 146.782 165.826C146.817 165.605 146.834 165.431 146.834 165.307C146.834 165.108 146.797 164.957 146.723 164.855C146.649 164.753 146.493 164.682 146.254 164.642C146.226 164.636 146.061 164.631 145.76 164.625C145.499 164.625 145.334 164.628 145.266 164.634C145.198 164.639 145.147 164.662 145.113 164.702C145.107 164.707 144.906 165.5 144.508 167.078C144.111 168.657 143.912 169.461 143.912 169.489C143.912 169.557 144.162 169.597 144.661 169.608C144.843 169.608 144.96 169.611 145.011 169.617C145.062 169.622 145.087 169.648 145.087 169.693C145.087 169.722 145.079 169.761 145.062 169.813C145.039 169.915 145.014 169.974 144.985 169.991L144.968 170C144.951 170 144.931 170 144.908 170C144.88 170 144.732 169.997 144.466 169.991C144.199 169.986 143.815 169.983 143.316 169.983C142.583 169.983 142.117 169.989 141.919 170H141.791C141.757 169.966 141.74 169.94 141.74 169.923C141.74 169.906 141.745 169.855 141.757 169.77C141.78 169.696 141.808 169.642 141.842 169.608H142.08H142.174C142.628 169.608 142.898 169.583 142.983 169.532C142.989 169.526 142.995 169.523 143 169.523C143.029 169.506 143.057 169.449 143.086 169.353C143.114 169.256 143.228 168.81 143.426 168.015C143.523 167.629 143.602 167.314 143.665 167.07C144.062 165.508 144.261 164.71 144.261 164.676C144.261 164.648 144.179 164.634 144.014 164.634H143.75C143.37 164.634 143.12 164.651 143 164.685C142.745 164.742 142.546 164.858 142.404 165.034C142.262 165.21 142.109 165.539 141.944 166.022C141.904 166.147 141.876 166.221 141.859 166.244C141.842 166.266 141.802 166.278 141.74 166.278H141.714Z" fill="black"/>
<path d="M313.205 117.181C313.068 117.181 313 117.141 313 117.06C313 117.044 313.012 116.988 313.036 116.892C313.068 116.763 313.1 116.691 313.133 116.675C313.165 116.659 313.257 116.647 313.41 116.639C313.627 116.639 313.867 116.627 314.133 116.602C314.245 116.578 314.321 116.53 314.361 116.458C314.378 116.418 314.663 115.289 315.217 113.072C315.771 110.855 316.052 109.731 316.06 109.699C316.06 109.643 316.044 109.614 316.012 109.614C315.948 109.59 315.735 109.57 315.373 109.554H315C314.952 109.506 314.928 109.474 314.928 109.458C314.928 109.442 314.936 109.373 314.952 109.253C314.984 109.116 315.024 109.032 315.072 109H321.566C321.622 109.032 321.651 109.076 321.651 109.133C321.651 109.173 321.598 109.622 321.494 110.482C321.39 111.341 321.333 111.783 321.325 111.807C321.309 111.863 321.229 111.892 321.084 111.892H320.94C320.884 111.851 320.855 111.799 320.855 111.735C320.855 111.727 320.867 111.631 320.892 111.446C320.916 111.261 320.928 111.048 320.928 110.807C320.928 110.566 320.9 110.369 320.843 110.217C320.787 110.064 320.711 109.94 320.614 109.843C320.518 109.747 320.369 109.683 320.169 109.651C319.968 109.618 319.763 109.59 319.554 109.566C319.345 109.542 319.056 109.538 318.687 109.554H318.41C317.751 109.562 317.402 109.574 317.361 109.59C317.321 109.606 317.293 109.639 317.277 109.687C317.269 109.695 317.133 110.221 316.867 111.265L316.482 112.819H317.145C317.169 112.819 317.261 112.819 317.422 112.819C317.582 112.819 317.695 112.815 317.759 112.807C317.823 112.799 317.912 112.787 318.024 112.771C318.137 112.755 318.233 112.727 318.313 112.687C318.394 112.647 318.462 112.598 318.518 112.542C318.622 112.446 318.711 112.313 318.783 112.145C318.855 111.976 318.908 111.823 318.94 111.687C318.972 111.55 318.992 111.478 319 111.47C319.024 111.43 319.1 111.41 319.229 111.41H319.373C319.43 111.45 319.458 111.49 319.458 111.53C319.458 111.554 319.333 112.08 319.084 113.108C318.835 114.137 318.699 114.667 318.675 114.699C318.659 114.755 318.578 114.783 318.434 114.783H318.289C318.233 114.735 318.205 114.687 318.205 114.639C318.205 114.614 318.225 114.526 318.265 114.373C318.305 114.221 318.325 114.06 318.325 113.892C318.325 113.659 318.245 113.514 318.084 113.458C317.924 113.402 317.566 113.373 317.012 113.373H316.349L315.964 114.904C315.707 115.9 315.578 116.422 315.578 116.47C315.578 116.582 315.936 116.639 316.651 116.639H316.952C317 116.687 317.024 116.715 317.024 116.723C317.024 116.731 317.016 116.811 317 116.964C316.968 117.068 316.928 117.145 316.88 117.193H316.675C316.345 117.177 315.739 117.169 314.855 117.169C314.333 117.169 313.936 117.169 313.663 117.169C313.39 117.169 313.237 117.173 313.205 117.181Z" fill="black"/>
<path d="M320.714 115.278C320.606 115.278 320.552 115.255 320.552 115.209C320.552 115.181 320.598 115.022 320.689 114.732C320.78 114.443 320.876 114.156 320.978 113.872L321.123 113.455C321.151 113.353 321.188 113.279 321.234 113.233H325.22H325.987C326.169 113.233 326.277 113.236 326.311 113.242C326.345 113.247 326.365 113.273 326.37 113.318C326.37 113.353 326.322 113.676 326.225 114.29C326.129 114.903 326.075 115.212 326.064 115.218C326.064 115.258 326.01 115.278 325.902 115.278C325.851 115.278 325.817 115.278 325.8 115.278C325.782 115.278 325.765 115.263 325.748 115.235L325.731 115.209C325.731 115.175 325.748 115.048 325.782 114.826C325.817 114.605 325.834 114.431 325.834 114.307C325.834 114.108 325.797 113.957 325.723 113.855C325.649 113.753 325.493 113.682 325.254 113.642C325.226 113.636 325.061 113.631 324.76 113.625C324.499 113.625 324.334 113.628 324.266 113.634C324.198 113.639 324.147 113.662 324.113 113.702C324.107 113.707 323.906 114.5 323.508 116.078C323.111 117.657 322.912 118.461 322.912 118.489C322.912 118.557 323.162 118.597 323.661 118.608C323.843 118.608 323.96 118.611 324.011 118.617C324.062 118.622 324.087 118.648 324.087 118.693C324.087 118.722 324.079 118.761 324.062 118.813C324.039 118.915 324.014 118.974 323.985 118.991L323.968 119C323.951 119 323.931 119 323.908 119C323.88 119 323.732 118.997 323.466 118.991C323.199 118.986 322.815 118.983 322.316 118.983C321.583 118.983 321.117 118.989 320.919 119H320.791C320.757 118.966 320.74 118.94 320.74 118.923C320.74 118.906 320.745 118.855 320.757 118.77C320.78 118.696 320.808 118.642 320.842 118.608H321.08H321.174C321.628 118.608 321.898 118.583 321.983 118.532C321.989 118.526 321.995 118.523 322 118.523C322.029 118.506 322.057 118.449 322.086 118.353C322.114 118.256 322.228 117.81 322.426 117.015C322.523 116.629 322.602 116.314 322.665 116.07C323.062 114.508 323.261 113.71 323.261 113.676C323.261 113.648 323.179 113.634 323.014 113.634H322.75C322.37 113.634 322.12 113.651 322 113.685C321.745 113.742 321.546 113.858 321.404 114.034C321.262 114.21 321.109 114.539 320.944 115.022C320.904 115.147 320.876 115.221 320.859 115.244C320.842 115.266 320.802 115.278 320.74 115.278H320.714Z" fill="black"/>
<path d="M40.2834 71.551C40.3612 71.0841 40.6614 70.545 41.1838 69.9337C41.7062 69.3223 42.3509 69.0111 43.1178 69C43.5069 69 43.8625 69.1 44.1849 69.3001C44.5072 69.5002 44.7462 69.7503 44.9018 70.0504C45.3687 69.3501 45.93 69 46.5858 69C46.997 69 47.3527 69.1223 47.6528 69.3668C47.953 69.6113 48.1086 69.9392 48.1197 70.3505C48.1197 70.6728 48.0419 70.9341 47.8863 71.1341C47.7307 71.3342 47.5806 71.4565 47.4361 71.5009C47.2916 71.5454 47.1638 71.5676 47.0526 71.5676C46.8414 71.5676 46.6691 71.5065 46.5358 71.3842C46.4024 71.262 46.3357 71.1008 46.3357 70.9007C46.3357 70.3894 46.6136 70.0393 47.1693 69.8503C47.0471 69.7058 46.8248 69.6336 46.5024 69.6336C46.3579 69.6336 46.2523 69.6447 46.1856 69.6669C45.7633 69.8448 45.452 70.2116 45.252 70.7673C44.585 73.2238 44.2516 74.6577 44.2516 75.0689C44.2516 75.3802 44.3405 75.6025 44.5183 75.7358C44.6962 75.8692 44.8907 75.9359 45.1019 75.9359C45.5132 75.9359 45.9189 75.7525 46.319 75.3857C46.7192 75.0189 46.9915 74.5687 47.136 74.0352C47.1693 73.9241 47.2027 73.8629 47.236 73.8518C47.2694 73.8407 47.3583 73.8296 47.5028 73.8185H47.5695C47.7362 73.8185 47.8196 73.8629 47.8196 73.9518C47.8196 73.963 47.8085 74.0241 47.7862 74.1352C47.6084 74.7688 47.2638 75.3301 46.7525 75.8192C46.2412 76.3083 45.6465 76.5528 44.9685 76.5528C44.1904 76.5528 43.6013 76.2027 43.2012 75.5024C42.7455 76.1916 42.223 76.5361 41.6339 76.5361H41.5339C40.9893 76.5361 40.6002 76.3916 40.3668 76.1026C40.1334 75.8136 40.0111 75.508 40 75.1856C40 74.8299 40.1056 74.541 40.3168 74.3186C40.528 74.0963 40.7781 73.9852 41.0671 73.9852C41.545 73.9852 41.784 74.2186 41.784 74.6855C41.784 74.9078 41.7173 75.1023 41.5839 75.269C41.4505 75.4357 41.3227 75.5469 41.2004 75.6025C41.0782 75.658 41.0059 75.6858 40.9837 75.6858L40.9337 75.7025C40.9337 75.7136 40.967 75.7358 41.0337 75.7692C41.1004 75.8025 41.1893 75.8414 41.3005 75.8859C41.4116 75.9304 41.5172 75.947 41.6173 75.9359C42.0174 75.9359 42.362 75.6858 42.651 75.1856C42.751 75.0078 42.8788 74.6299 43.0345 74.0519C43.1901 73.4739 43.3457 72.8737 43.5013 72.2512C43.6569 71.6288 43.7458 71.262 43.7681 71.1508C43.8236 70.8507 43.8514 70.6339 43.8514 70.5006C43.8514 70.1893 43.7681 69.967 43.6013 69.8336C43.4346 69.7003 43.2457 69.6336 43.0345 69.6336C42.5899 69.6336 42.173 69.8114 41.784 70.1671C41.395 70.5228 41.1226 70.9785 40.967 71.5343C40.9448 71.6343 40.917 71.6899 40.8837 71.701C40.8503 71.7121 40.7614 71.7232 40.6169 71.7344H40.3835C40.3168 71.6677 40.2834 71.6065 40.2834 71.551Z" fill="black"/>
<path d="M51.1223 71.7977C51.1223 71.6091 51.1969 71.4441 51.3462 71.3026C51.4955 71.1612 51.6684 71.0865 51.8649 71.0787C52.0063 71.0787 52.1242 71.1258 52.2185 71.2201C52.3128 71.3144 52.3639 71.4323 52.3718 71.5737C52.3718 71.7545 52.2932 71.9195 52.136 72.0688C51.9788 72.2181 51.806 72.2967 51.6173 72.3046C51.4995 72.3046 51.3895 72.2653 51.2873 72.1867C51.1851 72.1081 51.1301 71.9785 51.1223 71.7977ZM49.2009 75.4873C49.2009 75.4244 49.2362 75.3026 49.307 75.1218C49.3777 74.9411 49.472 74.7407 49.5899 74.5207C49.7077 74.3006 49.8806 74.1002 50.1085 73.9195C50.3364 73.7388 50.5722 73.6523 50.8158 73.6602C51.1223 73.6602 51.3777 73.7505 51.582 73.9313C51.7863 74.112 51.8924 74.3556 51.9003 74.6621C51.9003 74.7957 51.8452 75.0158 51.7352 75.3222C51.6252 75.6287 51.468 76.0413 51.2637 76.5599C51.0594 77.0786 50.8944 77.5226 50.7686 77.892C50.7293 78.0648 50.7097 78.1906 50.7097 78.2692C50.7097 78.4656 50.7765 78.5639 50.9101 78.5639C50.9808 78.5639 51.0555 78.5521 51.1341 78.5285C51.2126 78.5049 51.303 78.4499 51.4052 78.3635C51.5073 78.277 51.6134 78.1395 51.7234 77.9509C51.8335 77.7623 51.9317 77.5305 52.0181 77.2554C52.0417 77.1611 52.0614 77.1061 52.0771 77.0904C52.0928 77.0747 52.1596 77.0668 52.2775 77.0668C52.4346 77.0668 52.5132 77.1061 52.5132 77.1847C52.5132 77.2476 52.4779 77.3694 52.4071 77.5501C52.3364 77.7309 52.2382 77.9312 52.1124 78.1513C51.9867 78.3713 51.8099 78.5678 51.582 78.7407C51.3541 78.9136 51.1105 79 50.8511 79C50.5997 79 50.3679 78.9175 50.1557 78.7525C49.9435 78.5874 49.8335 78.336 49.8256 77.998C49.8256 77.8645 49.8453 77.7387 49.8846 77.6208C49.9238 77.503 50.0928 77.055 50.3914 76.277C50.69 75.4833 50.8629 75.0079 50.9101 74.8507C50.9572 74.6936 50.9847 74.5403 50.9926 74.391C50.9926 74.2024 50.9258 74.1081 50.7922 74.1081H50.7686C50.5329 74.1081 50.3168 74.2378 50.1203 74.4971C49.9238 74.7564 49.7745 75.0865 49.6724 75.4873C49.6645 75.4951 49.6567 75.5069 49.6488 75.5226C49.6409 75.5383 49.637 75.5501 49.637 75.558C49.637 75.5658 49.6292 75.5737 49.6134 75.5816C49.5977 75.5894 49.5859 75.5934 49.5781 75.5934C49.5702 75.5934 49.5545 75.5934 49.5309 75.5934C49.5073 75.5934 49.4759 75.5934 49.4366 75.5934H49.2716C49.2244 75.5462 49.2009 75.5108 49.2009 75.4873Z" fill="black"/>
<path d="M182.277 150.494C182.353 150.037 182.647 149.51 183.157 148.913C183.668 148.315 184.298 148.011 185.048 148C185.428 148 185.776 148.098 186.091 148.293C186.406 148.489 186.64 148.733 186.792 149.027C187.248 148.342 187.797 148 188.438 148C188.84 148 189.188 148.12 189.481 148.359C189.775 148.598 189.927 148.918 189.938 149.32C189.938 149.635 189.862 149.891 189.71 150.086C189.557 150.282 189.411 150.401 189.269 150.445C189.128 150.488 189.003 150.51 188.895 150.51C188.688 150.51 188.52 150.45 188.389 150.331C188.259 150.211 188.194 150.054 188.194 149.858C188.194 149.358 188.465 149.016 189.009 148.831C188.889 148.69 188.672 148.619 188.357 148.619C188.215 148.619 188.112 148.63 188.047 148.652C187.634 148.826 187.33 149.184 187.134 149.728C186.482 152.129 186.156 153.531 186.156 153.933C186.156 154.237 186.243 154.455 186.417 154.585C186.591 154.715 186.781 154.781 186.988 154.781C187.39 154.781 187.786 154.601 188.177 154.243C188.569 153.884 188.835 153.444 188.976 152.922C189.009 152.814 189.041 152.754 189.074 152.743C189.106 152.732 189.193 152.721 189.335 152.71H189.4C189.563 152.71 189.644 152.754 189.644 152.841C189.644 152.852 189.634 152.912 189.612 153.02C189.438 153.64 189.101 154.188 188.601 154.666C188.101 155.145 187.52 155.384 186.857 155.384C186.097 155.384 185.521 155.041 185.129 154.357C184.684 155.03 184.173 155.367 183.597 155.367H183.5C182.967 155.367 182.587 155.226 182.359 154.944C182.13 154.661 182.011 154.362 182 154.047C182 153.699 182.103 153.417 182.31 153.199C182.516 152.982 182.761 152.873 183.043 152.873C183.51 152.873 183.744 153.102 183.744 153.558C183.744 153.775 183.679 153.966 183.548 154.129C183.418 154.292 183.293 154.4 183.174 154.455C183.054 154.509 182.983 154.536 182.962 154.536L182.913 154.552C182.913 154.563 182.945 154.585 183.011 154.618C183.076 154.65 183.163 154.688 183.271 154.732C183.38 154.775 183.483 154.791 183.581 154.781C183.972 154.781 184.309 154.536 184.592 154.047C184.689 153.873 184.814 153.504 184.966 152.939C185.119 152.374 185.271 151.787 185.423 151.178C185.575 150.57 185.662 150.211 185.684 150.103C185.738 149.809 185.765 149.597 185.765 149.467C185.765 149.163 185.684 148.945 185.521 148.815C185.358 148.685 185.173 148.619 184.966 148.619C184.532 148.619 184.124 148.793 183.744 149.141C183.364 149.489 183.097 149.934 182.945 150.477C182.924 150.575 182.896 150.63 182.864 150.64C182.831 150.651 182.744 150.662 182.603 150.673H182.375C182.31 150.608 182.277 150.548 182.277 150.494Z" fill="black"/>
<path d="M194.175 150.781C194.175 150.543 194.256 150.359 194.417 150.228C194.579 150.097 194.744 150.032 194.913 150.032C195.043 150.032 195.151 150.07 195.235 150.147C195.32 150.224 195.374 150.332 195.397 150.47C195.397 150.685 195.324 150.866 195.178 151.012C195.032 151.158 194.863 151.231 194.671 151.231C194.532 151.231 194.417 151.192 194.325 151.115C194.233 151.038 194.183 150.927 194.175 150.781ZM194.072 153.316C194.072 153.094 193.972 152.982 193.772 152.982C193.603 152.982 193.442 153.028 193.288 153.12C193.134 153.213 193 153.332 192.885 153.478C192.769 153.624 192.677 153.766 192.608 153.904C192.539 154.042 192.474 154.165 192.412 154.273L192.331 154.434C192.316 154.442 192.255 154.446 192.147 154.446H191.986C191.94 154.4 191.917 154.369 191.917 154.353C191.917 154.338 191.932 154.288 191.963 154.204C192.124 153.827 192.351 153.474 192.643 153.143C192.935 152.813 193.273 152.621 193.657 152.567C193.664 152.567 193.695 152.567 193.749 152.567C193.803 152.567 193.849 152.563 193.887 152.556C194.072 152.563 194.241 152.602 194.394 152.671C194.586 152.779 194.732 152.898 194.832 153.028C194.932 153.159 194.982 153.362 194.982 153.639V153.823L194.417 156.117C194.025 157.653 193.818 158.452 193.795 158.513C193.657 158.898 193.388 159.239 192.988 159.539C192.589 159.839 192.132 159.992 191.617 160C191.233 160 190.972 159.919 190.833 159.758C190.695 159.597 190.622 159.42 190.614 159.228C190.614 159.02 190.687 158.844 190.833 158.698C190.979 158.552 191.156 158.475 191.363 158.467C191.494 158.467 191.605 158.506 191.698 158.583C191.79 158.659 191.84 158.778 191.847 158.94C191.847 159.216 191.725 159.428 191.479 159.574C191.525 159.581 191.579 159.585 191.64 159.585C191.901 159.585 192.139 159.478 192.355 159.262C192.57 159.047 192.735 158.794 192.85 158.502L192.977 158.018C193.061 157.688 193.161 157.288 193.276 156.819C193.392 156.351 193.515 155.871 193.645 155.379C193.776 154.887 193.879 154.461 193.956 154.1C194.033 153.739 194.075 153.52 194.083 153.443C194.083 153.389 194.079 153.347 194.072 153.316Z" fill="black"/>
<path d="M283.283 123.551C283.361 123.084 283.661 122.545 284.184 121.934C284.706 121.322 285.351 121.011 286.118 121C286.507 121 286.863 121.1 287.185 121.3C287.507 121.5 287.746 121.75 287.902 122.05C288.369 121.35 288.93 121 289.586 121C289.997 121 290.353 121.122 290.653 121.367C290.953 121.611 291.109 121.939 291.12 122.351C291.12 122.673 291.042 122.934 290.886 123.134C290.731 123.334 290.581 123.456 290.436 123.501C290.292 123.545 290.164 123.568 290.053 123.568C289.841 123.568 289.669 123.506 289.536 123.384C289.402 123.262 289.336 123.101 289.336 122.901C289.336 122.389 289.614 122.039 290.169 121.85C290.047 121.706 289.825 121.634 289.502 121.634C289.358 121.634 289.252 121.645 289.186 121.667C288.763 121.845 288.452 122.212 288.252 122.767C287.585 125.224 287.252 126.658 287.252 127.069C287.252 127.38 287.341 127.602 287.518 127.736C287.696 127.869 287.891 127.936 288.102 127.936C288.513 127.936 288.919 127.753 289.319 127.386C289.719 127.019 289.991 126.569 290.136 126.035C290.169 125.924 290.203 125.863 290.236 125.852C290.269 125.841 290.358 125.83 290.503 125.818H290.569C290.736 125.818 290.82 125.863 290.82 125.952C290.82 125.963 290.808 126.024 290.786 126.135C290.608 126.769 290.264 127.33 289.753 127.819C289.241 128.308 288.647 128.553 287.969 128.553C287.19 128.553 286.601 128.203 286.201 127.502C285.745 128.192 285.223 128.536 284.634 128.536H284.534C283.989 128.536 283.6 128.392 283.367 128.103C283.133 127.814 283.011 127.508 283 127.186C283 126.83 283.106 126.541 283.317 126.319C283.528 126.096 283.778 125.985 284.067 125.985C284.545 125.985 284.784 126.219 284.784 126.685C284.784 126.908 284.717 127.102 284.584 127.269C284.451 127.436 284.323 127.547 284.2 127.602C284.078 127.658 284.006 127.686 283.984 127.686L283.934 127.702C283.934 127.714 283.967 127.736 284.034 127.769C284.1 127.803 284.189 127.841 284.3 127.886C284.412 127.93 284.517 127.947 284.617 127.936C285.017 127.936 285.362 127.686 285.651 127.186C285.751 127.008 285.879 126.63 286.034 126.052C286.19 125.474 286.346 124.874 286.501 124.251C286.657 123.629 286.746 123.262 286.768 123.151C286.824 122.851 286.851 122.634 286.851 122.501C286.851 122.189 286.768 121.967 286.601 121.834C286.435 121.7 286.246 121.634 286.034 121.634C285.59 121.634 285.173 121.811 284.784 122.167C284.395 122.523 284.123 122.979 283.967 123.534C283.945 123.634 283.917 123.69 283.884 123.701C283.85 123.712 283.761 123.723 283.617 123.734H283.383C283.317 123.668 283.283 123.607 283.283 123.551Z" fill="black"/>
<path d="M293.38 123.244C293.38 123.165 293.395 123.075 293.427 122.973C293.458 122.87 293.505 122.819 293.568 122.819C293.576 122.819 293.859 122.8 294.417 122.76C294.975 122.721 295.262 122.698 295.277 122.69C295.372 122.69 295.419 122.721 295.419 122.784C295.419 122.839 295.222 123.66 294.83 125.248C294.437 126.804 294.24 127.609 294.24 127.664C294.389 127.585 294.503 127.511 294.582 127.44C294.771 127.299 295.042 127.051 295.395 126.697C295.749 126.344 296.024 126.104 296.22 125.978C296.535 125.766 296.833 125.66 297.116 125.66C297.352 125.66 297.537 125.735 297.67 125.884C297.804 126.033 297.875 126.246 297.883 126.521C297.883 126.717 297.855 126.882 297.8 127.016C297.745 127.149 297.67 127.248 297.576 127.31C297.482 127.373 297.399 127.417 297.329 127.44C297.258 127.464 297.187 127.475 297.116 127.475C296.959 127.475 296.833 127.432 296.739 127.346C296.645 127.259 296.598 127.145 296.598 127.004C296.598 126.808 296.661 126.646 296.786 126.521C296.912 126.395 297.038 126.312 297.163 126.273L297.352 126.238C297.258 126.143 297.163 126.096 297.069 126.096H297.022C296.771 126.12 296.523 126.218 296.279 126.391C296.036 126.564 295.749 126.815 295.419 127.145C295.089 127.475 294.83 127.715 294.641 127.864C294.657 127.872 294.716 127.884 294.818 127.9C294.92 127.916 295.014 127.939 295.101 127.971C295.187 128.002 295.289 128.033 295.407 128.065C295.525 128.096 295.631 128.151 295.725 128.23C295.82 128.308 295.906 128.379 295.985 128.442C296.063 128.505 296.13 128.607 296.185 128.749C296.24 128.89 296.264 129.02 296.256 129.138C296.256 129.271 296.236 129.432 296.197 129.621C296.158 129.809 296.134 129.967 296.126 130.092C296.126 130.407 296.232 130.564 296.444 130.564C296.822 130.564 297.128 130.096 297.364 129.161C297.38 129.098 297.458 129.067 297.6 129.067H297.647C297.773 129.067 297.835 129.102 297.835 129.173C297.835 129.212 297.824 129.267 297.8 129.338C297.478 130.446 297.014 131 296.409 131C296.055 131 295.769 130.898 295.549 130.694C295.329 130.489 295.219 130.195 295.219 129.809C295.219 129.668 295.23 129.546 295.254 129.444C295.277 129.342 295.289 129.248 295.289 129.161C295.289 128.988 295.234 128.839 295.124 128.713C295.014 128.587 294.877 128.497 294.712 128.442C294.547 128.387 294.413 128.344 294.311 128.312C294.209 128.281 294.138 128.269 294.099 128.277H294.075C293.981 128.607 293.898 128.925 293.828 129.232C293.757 129.538 293.702 129.766 293.663 129.916C293.623 130.065 293.588 130.21 293.556 130.352C293.525 130.493 293.498 130.587 293.474 130.635C293.45 130.682 293.423 130.733 293.391 130.788C293.36 130.843 293.317 130.878 293.262 130.894C293.16 130.965 293.05 131 292.932 131C292.798 131 292.696 130.961 292.625 130.882C292.554 130.804 292.519 130.737 292.519 130.682C292.519 130.603 292.665 129.974 292.955 128.796C293.246 127.617 293.533 126.458 293.816 125.318L294.252 123.609C294.26 123.507 294.232 123.444 294.169 123.42C294.107 123.397 293.953 123.377 293.71 123.362H293.651C293.572 123.362 293.521 123.362 293.498 123.362C293.474 123.362 293.446 123.35 293.415 123.326C293.384 123.303 293.372 123.275 293.38 123.244Z" fill="black"/>
<path d="M680 121L643 212.5L660.5 229M660.5 229C700.164 227.038 722.282 227.013 761.5 229M660.5 229C664.66 267.742 664.949 289.102 661.5 326.5" stroke="black"/>
<defs>
<filter id="filter0_d_45_88" x="102" y="81" width="166" height="166" filterUnits="userSpaceOnUse" color-interpolation-filters="sRGB">
<feFlood flood-opacity="0" result="BackgroundImageFix"/>
<feColorMatrix in="SourceAlpha" type="matrix" values="0 0 0 0 0 0 0 0 0 0 0 0 0 0 0 0 0 0 127 0" result="hardAlpha"/>
<feOffset dy="4"/>
<feGaussianBlur stdDeviation="2"/>
<feComposite in2="hardAlpha" operator="out"/>
<feColorMatrix type="matrix" values="0 0 0 0 0 0 0 0 0 0 0 0 0 0 0 0 0 0 0.25 0"/>
<feBlend mode="normal" in2="BackgroundImageFix" result="effect1_dropShadow_45_88"/>
<feBlend mode="normal" in="SourceGraphic" in2="effect1_dropShadow_45_88" result="shape"/>
</filter>
</defs>
</svg>
