<svg width="1517" height="953" xmlns="http://www.w3.org/2000/svg" xmlns:xlink="http://www.w3.org/1999/xlink" xml:space="preserve" overflow="hidden"><defs><clipPath id="clip0"><rect x="237" y="780" width="1517" height="953"/></clipPath></defs><g clip-path="url(#clip0)" transform="translate(-237 -780)"><rect x="239.5" y="780.5" width="1325" height="951" stroke="#000000" stroke-width="1.14583" stroke-miterlimit="8" fill="none"/><g><g><g><path d="M85.4093 95.7682 36.7435 190.821 18.3717 190.174 0 189.528 18.1689 193.035C32.6387 195.826 57.6867 209.835 141.136 261.801 209.766 304.54 245.12 328.468 243.58 331.135 240.912 335.756 201.164 392.273 197.795 396.237 196.585 397.66 169.378 384.741 137.334 367.524 105.287 350.311 64.3733 328.413 46.4106 318.862 28.448 309.312 11.7814 299.968 9.37151 298.094 6.9616 296.224 4.15977 295.526 3.14217 296.544 1.29606 298.387 32.5734 316.04 138.139 372.746L193.77 402.628 173.944 434.235C163.042 451.62 152.663 468.514 150.883 471.776 148.016 477.036 142.003 474.489 97.8886 449.324 16.5222 402.91 0.670376 394.332 2.89121 397.921 4.04976 399.798 35.994 418.944 73.8788 440.464 111.764 461.989 142.353 481.244 141.855 483.255 140.284 489.608 65.4527 594.72 62.4859 594.744 60.9286 594.754 47.2323 586.159 32.0474 575.64 16.866 565.123 3.70254 557.254 2.80183 558.158 1.89768 559.059 13.2734 567.877 28.0836 577.75 42.8903 587.624 56.3391 596.903 57.972 598.371 59.605 599.842 53.4857 611.874 44.372 625.113L27.8051 649.188 14.4045 642.351C7.03035 638.59 2.03519 637.184 3.29687 639.226 4.55856 641.271 10.2482 645.348 15.9343 648.291 28.5924 654.837 30.8923 653.242 48.7587 625.505 55.9781 614.301 63.1872 605.126 64.7858 605.109 66.381 605.091 78.293 612.194 91.2536 620.888L114.82 636.702 80.1288 688.785C61.0489 717.433 44.8292 741.573 44.0832 742.426 43.3372 743.282 36.2072 741.508 28.2383 738.483 20.2694 735.457 10.6573 731.823 6.87565 730.407 2.3721 728.716 1.18605 728.987 3.43782 731.194 7.0716 734.752 43.5607 750.164 44.7467 748.641 45.1249 748.15 61.4064 723.769 80.9195 694.461 100.433 665.154 116.762 640.663 117.206 640.04 117.804 639.195 186.402 683.591 193.677 689.528 194.313 690.05 178.457 713.737 158.439 742.168 138.421 770.595 122.043 794.581 122.043 795.464 122.043 796.351 141.367 811.22 164.981 828.512L207.92 859.948 202.729 869.168C199.872 874.235 189.008 891.534 178.588 907.606 154.52 944.724 151.354 950.273 155.809 947.519 157.741 946.327 170.66 927.559 184.515 905.822 198.369 884.081 215.122 857.833 221.74 847.489 228.357 837.148 243.615 813.166 255.64 794.199 267.669 775.233 278.502 759.103 279.712 758.353 280.922 757.604 292.28 763.066 304.956 770.492L327.999 783.992 278.962 862.131C218.876 957.878 223.366 950.387 227.622 947.753 229.554 946.56 253.337 909.934 280.478 866.356 311.127 817.147 331.454 787.753 334.126 788.778 336.491 789.685 365.932 810.35 399.547 834.7 466.379 883.112 555.185 944.309 562.896 947.268 566.213 948.54 582.467 928.766 613.913 885.199 685.605 785.866 684.488 787.3 687.864 790.676 690.539 793.347 726.694 813.771 850.116 882.321L871.715 894.319 857.49 920.086C849.669 934.256 844.113 946.694 845.144 947.729 846.179 948.76 866.624 910.377 890.579 862.43 914.534 814.479 934.679 774.666 935.339 773.947 938.378 770.667 980.371 801.759 1068.58 872.609 1121.2 914.874 1164.92 948.788 1165.74 947.973 1166.55 947.162 1157.83 939.121 1146.36 930.11 1124.15 912.663 1124.16 912.698 1139.65 897.293 1151.73 885.278 1201.13 825.099 1198.91 825.099 1197.27 825.099 1180.07 843.663 1160.69 866.352 1141.31 889.042 1123.87 907.606 1121.92 907.606 1119.98 907.606 1106.55 897.987 1092.06 886.23 1077.58 874.476 1046.71 849.528 1023.47 830.788 981.65 797.067 981.286 796.647 987.354 789.424 990.723 785.409 1004.36 769.75 1017.65 754.623 1030.95 739.497 1050.06 717.453 1060.13 705.634 1070.2 693.818 1079.89 684.148 1081.66 684.148 1086.81 684.148 1304.66 834.91 1304.64 838.461 1304.64 840.27 1238.67 924.579 1222.58 943.346 1219.51 946.932 1218.76 949.252 1220.93 948.503 1228.3 945.952 1327.52 819.32 1324.51 816.305 1323.56 815.352 1320.21 818.488 1317.07 823.273 1313.94 828.058 1310.07 831.974 1308.48 831.974 1306.33 831.974 1091.46 684.677 1085.25 678.946 1083.74 677.557 1153.29 596.782 1157.25 595.314 1158.99 594.668 1183.97 607.976 1212.76 624.883 1281.59 665.295 1325.28 688.644 1325.28 685.014 1325.28 683.398 1317.93 678.551 1308.95 674.24 1299.97 669.929 1286.1 662.627 1278.14 658.013L1263.65 649.628 1272.79 634.512 1281.91 619.4 1302.23 629.651C1313.4 635.293 1323.09 639.353 1323.77 638.679 1326.28 636.163 1283.94 615.037 1280.57 617.124 1278.63 618.32 1273.95 625.378 1270.16 632.814 1266.36 640.25 1261.61 646.332 1259.59 646.332 1257.57 646.332 1234.42 633.436 1208.15 617.677L1160.38 589.027 1181.81 565.006C1193.6 551.795 1219.26 522.917 1238.85 500.836 1258.43 478.755 1275.1 460.689 1275.89 460.689 1276.68 460.689 1288.11 466.124 1301.3 472.766 1314.49 479.405 1325.28 483.448 1325.28 481.746 1325.28 480.044 1315.23 474.379 1302.94 469.153 1290.65 463.931 1280.59 457.939 1280.59 455.842 1280.59 453.741 1284.07 448.172 1288.33 443.466 1306.97 422.839 1326.02 398.406 1324.59 396.966 1323.27 395.652 1302.97 418.899 1280.08 447.938L1274.41 455.127 1243.12 443.442C1225.91 437.016 1211.83 430.44 1211.83 428.827 1211.83 427.218 1218.1 417.871 1225.75 408.056 1233.4 398.244 1253.66 372.038 1270.76 349.819 1287.86 327.601 1302.56 309.426 1303.43 309.426 1304.29 309.426 1309.95 311.767 1316 314.63 1334 323.149 1321.41 315.297 1220.43 255.032 1167.49 223.435 1122.26 196.373 1119.92 194.891 1114.02 191.144 1138.28 143.547 1161.2 113.91 1197.84 66.5226 1212.5 48.1509 1213.66 48.1509 1214.32 48.1509 1237.8 64.0852 1265.84 83.557 1326.27 125.523 1328.49 126.942 1322.99 120.146 1320.78 117.42 1296.45 99.7182 1268.92 80.8102 1241.39 61.9022 1218.83 45.0293 1218.79 43.3104 1218.74 41.5949 1225.12 31.8866 1232.94 21.7381 1240.78 11.5897 1246.49 2.58943 1245.64 1.74029 1244.79 0.887712 1222.65 28.0293 1196.44 62.0534 1170.23 96.0776 1147.07 125.33 1144.99 127.059 1142.54 129.094 1133.59 125.371 1119.67 116.526 1062.24 80.0126 998.695 41.9284 998.74 44.0564 998.77 45.3628 1029.86 65.7697 1067.82 89.4048 1105.79 113.04 1137.51 133.443 1138.32 134.75 1140.06 137.555 1115.04 189.102 1111.93 189.102 1110.25 189.102 935.607 83.031 819.01 11.1909 808.109 4.47337 798.541-0.370532 797.751 0.420167 796.276 1.89499 807.734 9.05255 995.25 123.766 1054.81 160.203 1104.8 191.147 1106.34 192.533 1107.89 193.918 1083.13 228.193 1051.34 268.694 1019.55 309.199 981.327 361.288 966.41 384.452 951.494 407.613 937.973 426.122 936.367 425.579 934.762 425.035 905.052 404.56 870.34 380.079L807.229 335.567 828.186 309.212C839.713 294.719 862.028 267.041 877.776 247.71 893.525 228.379 905.722 211.877 904.883 211.035 904.041 210.196 891.754 223.868 877.573 241.418 863.392 258.969 840.637 287.093 827.003 303.915 803.175 333.322 802.46 334.731 808.49 340.445 811.942 343.711 842.019 365.606 875.329 389.096L935.893 431.808 902.023 476.331C883.397 500.815 866.59 520.466 864.678 519.995 862.763 519.524 837.99 502.541 809.621 482.251 767.181 451.899 757.992 443.823 757.776 436.693 757.631 431.928 756.951 425.001 756.259 421.302 755.569 417.599 754.001 384.338 752.78 347.389L750.56 280.204 800.992 210.296C828.729 171.847 850.807 139.769 850.05 139.013 849.294 138.256 841.693 147.284 833.164 159.072 824.634 170.861 801.8 202.454 782.421 229.276L747.187 278.045 707.064 248.359C647.109 204.005 636.101 195.465 634.935 192.399 634.351 190.862 639.648 180.596 646.706 169.585 659.99 148.869 665.711 139.838 687.72 104.875 694.86 93.5301 712.809 65.2987 727.602 42.1347 742.395 18.9741 753.365 0.0248189 751.973 0.0282567 750.584 0.0316945 728.736 32.9076 703.427 73.082 637.744 177.341 630.181 189.102 628.795 189.102 626.2 189.102 525.936 116.099 524.963 113.497 523.316 109.1 575.616 30.6249 590.852 14.6321 605.655-0.906833 604.669-5.83323 589.638 8.56438L580.721 17.1108 568.149 8.56438C561.232 3.86487 553.559 0.0351322 551.094 0.0523213 548.629 0.0729482 553.187 4.02645 561.225 8.84284 569.262 13.6592 575.836 19.1082 575.836 20.9509 575.836 23.9039 527.294 100.389 520.765 107.721 517.695 111.17 508.355 106.494 399.035 46.8067 351.903 21.0746 311.68 0.03857 309.655 0.0626348 305.846 0.103889 318.759 7.90088 356.386 28.2734 443.283 75.3234 527.025 121.614 532.44 125.591 540.024 131.167 544.273 122.879 489.302 209.729 469.555 240.927 436.624 294.299 416.125 328.334 395.625 362.367 377.738 391.482 376.376 393.029 375.015 394.58 358.617 387.381 339.936 377.036L305.966 358.228 291.225 308.903C283.119 281.775 260.15 203.111 240.187 134.096 220.224 65.0821 202.374 6.29541 200.525 3.45921 197.696-0.869017 197.445-0.765882 198.943 4.10208 199.927 7.29582 202.471 16.5779 204.595 24.729 206.72 32.8835 215.968 65.0821 225.147 96.2804 234.326 127.479 254.389 195.96 269.732 248.459 285.075 300.958 298.63 346.522 299.854 349.713 302.673 357.052 297.953 354.323 163.297 270.698 105.627 234.887 54.1836 202.953 48.9753 199.735L39.5075 193.887 87.9533 98.405C114.6 45.8853 135.877 2.42442 135.237 1.81936 134.598 1.21087 112.176 43.4892 85.4093 95.7682ZM597.14 172.469C646.81 208.697 740.892 278.028 743.997 280.689 744.997 281.545 587.641 519.087 577.324 532.296 576.434 533.433 489.543 474.011 479.116 465.127 474.021 460.792 476.682 454.669 507.478 399.819 526.166 366.531 541.457 338.678 541.457 337.918 541.457 337.158 560.121 307.102 582.931 271.121 605.745 235.138 625.234 203.125 626.248 199.979 628.187 193.942 600.378 235.715 568.836 286.213 558.506 302.756 548.907 316.291 547.505 316.294 541.598 316.308 452.074 280.723 452.074 278.361 452.074 276.935 471.412 245.186 495.047 207.803 518.682 170.424 538.02 138.545 538.02 136.967 538.02 130.494 546.91 135.833 597.14 172.469ZM1216.13 257.569C1261.04 284.415 1297.78 306.943 1297.78 307.631 1297.78 310.357 1207.93 424.664 1204.98 425.685 1202.45 426.565 1010.07 339.046 1006.21 335.257 1005.15 334.223 1010.96 326.57 1079.02 239.37L1112.94 195.912 1123.71 202.337C1129.63 205.871 1171.23 230.727 1216.13 257.569ZM498.612 303.096C535.871 317.281 544.802 321.929 543.173 326.302 538.367 339.197 471.119 457.251 468.582 457.251 464.154 457.251 380.062 400.833 379.966 397.798 379.814 392.978 445.903 285.361 449.014 285.361 450.661 285.361 472.979 293.343 498.612 303.096ZM748.896 346.381C750.13 376.16 751.134 411.356 751.123 424.592L751.103 448.657 728.729 479.597C716.425 496.614 695.324 526.008 681.837 544.916 668.351 563.824 656.129 580.635 654.679 582.275 653.228 583.911 635.74 574.055 615.814 560.369L579.586 535.482 661.076 413.966C705.899 347.134 743.488 292.405 744.609 292.343 745.733 292.285 747.661 316.604 748.896 346.381ZM330.031 376.387C398.007 415.224 466.585 460.686 464.608 465.605 463.797 467.627 439.371 505.13 410.332 548.942 350.527 639.171 303.175 712.517 290.496 734.553 285.769 742.773 280.131 748.827 277.969 748.009 273.479 746.314 201.113 690.731 201.113 688.981 201.113 688.349 211.852 670.41 224.978 649.12 238.104 627.829 248.073 609.64 247.138 608.701 246.2 607.763 244.354 608.89 243.04 611.204 241.724 613.518 230.788 631.532 218.742 651.234L196.833 687.056 159.522 662.397C139.002 648.834 122.173 635.712 122.125 633.237 122.081 630.762 120.63 629.61 118.904 630.676 117.178 631.741 104.816 625.069 91.4289 615.848L67.0926 599.082 74.9893 587.469C79.3347 581.082 98.1568 554.198 116.821 527.727 135.481 501.255 161.426 462.037 174.473 440.574 187.523 419.112 209.834 385.401 224.053 365.657L249.906 329.764 262.464 337.365C269.374 341.545 299.778 359.105 330.031 376.387ZM1023.19 348.544C1033.35 353.044 1078.02 373.674 1122.45 394.391 1166.88 415.11 1218.24 437.958 1236.59 445.167L1269.93 458.276 1260.65 469.339C1255.55 475.42 1224.26 511.16 1191.13 548.756 1158 586.352 1120.11 629.875 1106.93 645.472 1093.75 661.07 1081.68 673.834 1080.11 673.834 1078.53 673.834 1059.25 661.29 1037.26 645.953 999.011 619.279 988.375 612.806 988.375 616.203 988.375 617.052 1008.47 631.429 1033.02 648.15 1071.87 674.608 1077.08 679.249 1073.2 683.928 1070.74 686.884 1048.21 712.891 1023.13 741.718L977.542 794.131 961.47 783.277C952.631 777.306 907.122 745.303 860.336 712.156 784.072 658.123 775.711 651.261 779.547 645.847 801.879 614.308 937.842 436.624 939.643 436.624 940.939 436.624 953.127 444.995 966.73 455.23L991.458 473.835 1028.59 460.751C1067.1 447.182 1094.88 435.521 1082.91 437.944 1079.13 438.711 1058.07 445.69 1036.09 453.452 1014.13 461.215 994.346 467.565 992.139 467.565 987.202 467.565 943.683 433.046 943.683 429.133 943.683 425.194 999.919 340.438 1002.56 340.4 1003.74 340.38 1013.02 344.047 1023.19 348.544ZM811.024 488.412 864.255 526.448 848.104 548.165C839.221 560.108 818.261 587.899 801.522 609.925L771.094 649.969 749.955 638.256C738.331 631.814 712.286 617.76 692.079 607.027L655.342 587.514 683.281 549.024C737.032 474.977 755.304 450.376 756.541 450.376 757.229 450.376 781.744 467.493 811.024 488.412ZM524.976 502.352C550.114 519.775 571.353 534.578 572.178 535.242 573.68 536.459 532.447 617.976 527.544 623.48 525.667 625.591 421.687 564.398 411.418 555.143 410.799 554.586 423.743 534.558 440.179 510.634 459.397 482.66 471.704 467.768 474.667 468.902 477.198 469.875 499.839 484.926 524.976 502.352ZM609.224 560.73C625.839 572.264 641.563 583.732 644.166 586.211 648.147 590.003 644.932 597.693 623.831 634.853 610.049 659.131 598.426 679.462 598.006 680.033 596.844 681.617 533.024 632.402 531.752 628.943 530.666 625.983 575.072 539.759 577.682 539.759 578.414 539.759 592.609 549.196 609.224 560.73ZM431.935 572.996C443.17 579.933 451.665 587.438 450.805 589.676 449.595 592.825 396.849 676.199 334.146 774.067 330.853 779.21 328.656 778.746 311.357 769.23 281.462 752.787 281.874 754.08 298.314 728.468 306.303 716.016 333.727 673.147 359.253 633.203 384.779 593.258 406.977 560.53 408.582 560.479 410.187 560.427 420.697 566.062 431.935 572.996ZM492.348 610.681C530.164 634.922 593.025 681.27 593.025 684.918 593.025 686.424 587.899 694.987 581.632 703.95 575.365 712.912 551.85 747.318 529.377 780.407 506.904 813.496 483.056 848.568 476.379 858.346 469.376 868.604 462.645 875.146 460.466 873.816 445.59 864.73 335.208 782.937 335.281 781.053 335.518 775.113 455.46 591.326 459.101 591.326 460.778 591.326 475.74 600.038 492.348 610.681ZM711.753 621.841C741.938 637.679 767.233 651.169 767.962 651.818 768.959 652.705 713.765 741.965 707.862 749.019 706.686 750.419 703.946 748.799 644.678 711.65 622.054 697.469 603.496 684.017 603.441 681.758 603.307 676.361 652.334 590.969 654.895 592.141 655.982 592.64 681.566 606.003 711.753 621.841ZM853.406 712.193C896.44 742.749 932.128 768.106 932.713 768.55 933.589 769.213 875.992 886.636 873.328 889.623 872.874 890.132 836.681 870.437 792.903 845.849 749.123 821.265 707.233 798.053 699.814 794.268L686.324 787.386 714.597 744.918C730.146 721.562 748.989 692.172 756.469 679.606 763.95 667.045 771.217 656.738 772.617 656.704 774.016 656.673 810.371 681.641 853.406 712.193ZM619.833 700.024C663.648 727.825 703.035 753.846 703.035 754.987 703.035 756.18 671.813 799.401 601.025 896.203L565.371 944.958 518.176 912.825C492.221 895.151 471.161 878.625 471.377 876.099 471.759 871.636 596.273 687.586 598.91 687.586 599.636 687.586 609.052 693.182 619.833 700.024ZM240.235 725.563 276.645 753.722 268.962 766.315C230.441 829.43 212.568 855.551 208.783 854.258 201.199 851.666 128.918 797.166 128.918 794.038 128.918 792.394 139.084 776.666 151.508 759.085 163.933 741.504 179.018 719.791 185.027 710.832 191.04 701.873 197.726 695.187 199.889 695.974 202.051 696.761 220.206 710.076 240.235 725.563Z" fill="#4B4BFF" fill-rule="evenodd" transform="matrix(1 0 0 1.00076 237 780)"/></g></g></g><path d="M434.5 1109.5C434.5 1087.96 451.961 1070.5 473.5 1070.5 495.039 1070.5 512.5 1087.96 512.5 1109.5 512.5 1131.04 495.039 1148.5 473.5 1148.5 451.961 1148.5 434.5 1131.04 434.5 1109.5Z" stroke="#00B050" stroke-width="4.58333" stroke-linecap="square" stroke-miterlimit="8" stroke-dasharray="13.75 4.58333" fill="none" fill-rule="evenodd"/><text font-family="Microsoft YaHei,Microsoft YaHei_MSFontService,sans-serif" font-weight="700" font-size="46" transform="matrix(1 0 0 1 458.603 1126)">1</text><path d="M743.5 1105.5C743.5 1083.96 760.961 1066.5 782.5 1066.5 804.039 1066.5 821.5 1083.96 821.5 1105.5 821.5 1127.04 804.039 1144.5 782.5 1144.5 760.961 1144.5 743.5 1127.04 743.5 1105.5Z" stroke="#00B050" stroke-width="4.58333" stroke-linecap="square" stroke-miterlimit="8" stroke-dasharray="13.75 4.58333" fill="none" fill-rule="evenodd"/><text font-family="Microsoft YaHei,Microsoft YaHei_MSFontService,sans-serif" font-weight="700" font-size="46" transform="matrix(1 0 0 1 767.995 1121)">5</text><path d="M669.5 1650.5C669.5 1628.96 686.961 1611.5 708.5 1611.5 730.039 1611.5 747.5 1628.96 747.5 1650.5 747.5 1672.04 730.039 1689.5 708.5 1689.5 686.961 1689.5 669.5 1672.04 669.5 1650.5Z" stroke="#00B050" stroke-width="4.58333" stroke-linecap="square" stroke-miterlimit="8" stroke-dasharray="13.75 4.58333" fill="none" fill-rule="evenodd"/><text font-family="Microsoft YaHei,Microsoft YaHei_MSFontService,sans-serif" font-weight="700" font-size="46" transform="matrix(1 0 0 1 694.038 1667)">3</text><path d="M782.5 1324.5C782.5 1302.96 799.961 1285.5 821.5 1285.5 843.039 1285.5 860.5 1302.96 860.5 1324.5 860.5 1346.04 843.039 1363.5 821.5 1363.5 799.961 1363.5 782.5 1346.04 782.5 1324.5Z" stroke="#00B050" stroke-width="4.58333" stroke-linecap="square" stroke-miterlimit="8" stroke-dasharray="13.75 4.58333" fill="none" fill-rule="evenodd"/><text font-family="Microsoft YaHei,Microsoft YaHei_MSFontService,sans-serif" font-weight="700" font-size="46" transform="matrix(1 0 0 1 806.976 1340)">6</text><path d="M1286 909 1364 909 1364 909 1481 909 1754 909 1754 967.333 1754 967.333 1754 992.333 1754 1009 1481 1009 1322.41 1090.27 1364 1009 1286 1009 1286 992.333 1286 967.333 1286 967.333Z" fill="#808080" fill-rule="evenodd"/><text fill="#FFFFFF" font-family="Microsoft YaHei,Microsoft YaHei_MSFontService,sans-serif" font-weight="400" font-size="55" transform="matrix(1 0 0 1 1327.56 979)">需求点（需求）</text><path d="M857 910 905.833 910 905.833 910 979.083 910 1150 910 1150 968.333 1150 968.333 1150 993.333 1150 1010 979.083 1010 835.371 1083.02 905.833 1010 857 1010 857 993.333 857 968.333 857 968.333Z" fill="#808080" fill-rule="evenodd"/><text fill="#FFFFFF" font-family="Microsoft YaHei,Microsoft YaHei_MSFontService,sans-serif" font-weight="400" font-size="55" transform="matrix(1 0 0 1 920.881 980)">候选点</text><path d="M968.5 1439.5C968.5 1417.96 985.737 1400.5 1007 1400.5 1028.26 1400.5 1045.5 1417.96 1045.5 1439.5 1045.5 1461.04 1028.26 1478.5 1007 1478.5 985.737 1478.5 968.5 1461.04 968.5 1439.5Z" stroke="#00B050" stroke-width="4.58333" stroke-linecap="square" stroke-miterlimit="8" stroke-dasharray="13.75 4.58333" fill="none" fill-rule="evenodd"/><text font-family="Microsoft YaHei,Microsoft YaHei_MSFontService,sans-serif" font-weight="700" font-size="46" transform="matrix(1 0 0 1 992.474 1455)">7</text><path d="M717.5 899.5C717.5 877.409 735.409 859.5 757.5 859.5 779.591 859.5 797.5 877.409 797.5 899.5 797.5 921.591 779.591 939.5 757.5 939.5 735.409 939.5 717.5 921.591 717.5 899.5Z" stroke="#000000" stroke-width="4.58333" stroke-miterlimit="8" fill="#FF0000" fill-rule="evenodd"/><text fill="#FFFFFF" font-family="Microsoft YaHei,Microsoft YaHei_MSFontService,sans-serif" font-weight="700" font-size="46" transform="matrix(1 0 0 1 743.076 916)">4</text><path d="M462.5 1532C462.5 1509.63 480.632 1491.5 503 1491.5 525.367 1491.5 543.5 1509.63 543.5 1532 543.5 1554.37 525.367 1572.5 503 1572.5 480.632 1572.5 462.5 1554.37 462.5 1532Z" stroke="#000000" stroke-width="4.58333" stroke-miterlimit="8" fill="#FF0000" fill-rule="evenodd"/><text fill="#FFFFFF" font-family="Microsoft YaHei,Microsoft YaHei_MSFontService,sans-serif" font-weight="700" font-size="46" transform="matrix(1 0 0 1 488.453 1548)">2</text><path d="M1128.5 1205.5C1128.5 1183.41 1146.41 1165.5 1168.5 1165.5 1190.59 1165.5 1208.5 1183.41 1208.5 1205.5 1208.5 1227.59 1190.59 1245.5 1168.5 1245.5 1146.41 1245.5 1128.5 1227.59 1128.5 1205.5Z" stroke="#000000" stroke-width="4.58333" stroke-miterlimit="8" fill="#FF0000" fill-rule="evenodd"/><text fill="#FFFFFF" font-family="Microsoft YaHei,Microsoft YaHei_MSFontService,sans-serif" font-weight="700" font-size="46" transform="matrix(1 0 0 1 1153.84 1221)">9</text><path d="M1128.5 1546.5C1128.5 1524.41 1146.41 1506.5 1168.5 1506.5 1190.59 1506.5 1208.5 1524.41 1208.5 1546.5 1208.5 1568.59 1190.59 1586.5 1168.5 1586.5 1146.41 1586.5 1128.5 1568.59 1128.5 1546.5Z" stroke="#000000" stroke-width="4.58333" stroke-miterlimit="8" fill="#FF0000" fill-rule="evenodd"/><text fill="#FFFFFF" font-family="Microsoft YaHei,Microsoft YaHei_MSFontService,sans-serif" font-weight="700" font-size="46" transform="matrix(1 0 0 1 1153.84 1562)">8</text><rect x="791.5" y="790.5" width="115" height="78" stroke="#FF0000" stroke-width="3.4375" stroke-linejoin="round" stroke-miterlimit="10" fill="none"/><text fill="#FF0000" font-family="Microsoft YaHei,Microsoft YaHei_MSFontService,sans-serif" font-weight="400" font-size="37" transform="matrix(1 0 0 1 826.715 841)">10</text><rect x="537.5" y="1427.5" width="115" height="79.0001" stroke="#FF0000" stroke-width="3.4375" stroke-linejoin="round" stroke-miterlimit="10" fill="none"/><text fill="#FF0000" font-family="Microsoft YaHei,Microsoft YaHei_MSFontService,sans-serif" font-weight="400" font-size="37" transform="matrix(1 0 0 1 572.861 1479)">20</text><rect x="1206.5" y="1096.5" width="156" height="78" stroke="#FF0000" stroke-width="3.4375" stroke-linejoin="round" stroke-miterlimit="10" fill="none"/><text fill="#FF0000" font-family="Microsoft YaHei,Microsoft YaHei_MSFontService,sans-serif" font-weight="400" font-size="37" transform="matrix(1 0 0 1 1251.22 1147)">100</text><rect x="1208.5" y="1447.5" width="156" height="78" stroke="#FF0000" stroke-width="3.4375" stroke-linejoin="round" stroke-miterlimit="10" fill="none"/><text fill="#FF0000" font-family="Microsoft YaHei,Microsoft YaHei_MSFontService,sans-serif" font-weight="400" font-size="37" transform="matrix(1 0 0 1 1253.52 1499)">200</text></g></svg>