<svg width="1604" height="796" xmlns="http://www.w3.org/2000/svg" xmlns:xlink="http://www.w3.org/1999/xlink" xml:space="preserve" overflow="hidden"><g transform="translate(-65 -1487)"><path d="M1.14583-6.46129e-07 1.14618 617.084-1.14549 617.084-1.14583 6.46129e-07ZM13.7503 612.5 0.000360892 640-13.7497 612.5Z" transform="matrix(1 0 0 -1 204 2234)"/><path d="M1.21624e-06-1.14583 1337.08-1.14441 1337.08 1.14725-1.21624e-06 1.14583ZM1332.5-13.7486 1360 0.00144357 1332.5 13.7514Z" transform="matrix(1 0 0 -1 204 2234)"/><path d="M0 0 432.448 526.46" stroke="#000000" stroke-width="2.29167" stroke-miterlimit="8" fill="none" fill-rule="evenodd" transform="matrix(1 0 0 -1 204 2234.46)"/><path d="M0 0 557.109 162.957" stroke="#000000" stroke-width="2.29167" stroke-miterlimit="8" fill="none" fill-rule="evenodd" transform="matrix(1 0 0 -1 291 1968.96)"/><path d="M345 1827 1393.33 2074.04" stroke="#000000" stroke-width="2.29167" stroke-miterlimit="8" fill="none" fill-rule="evenodd"/><path d="M1024 1876 1439 2233.26" stroke="#000000" stroke-width="2.29167" stroke-miterlimit="8" fill="none" fill-rule="evenodd"/><path d="M0 0 256.067 313.086" stroke="#000000" stroke-width="13.75" stroke-miterlimit="8" fill="none" fill-rule="evenodd" transform="matrix(1 0 0 -1 204 2234.09)"/><path d="M0 0 125.287 38.4239" stroke="#000000" stroke-width="13.75" stroke-miterlimit="8" fill="none" fill-rule="evenodd" transform="matrix(1 0 0 -1 460 1921.42)"/><path d="M585 1883 1198.02 2028.72" stroke="#000000" stroke-width="13.75" stroke-miterlimit="8" fill="none" fill-rule="evenodd"/><path d="M1198 2028 1439.25 2232.64" stroke="#000000" stroke-width="13.75" stroke-miterlimit="8" fill="none" fill-rule="evenodd"/><path d="M131.986 1530.56 151.08 1530.56 151.591 1531.91 138.78 1546.62C136.292 1549.47 134.134 1551.89 132.308 1553.87L132.469 1554.06 138.539 1554.06C139.613 1554.06 140.437 1554 141.009 1553.89 141.582 1553.77 142.084 1553.55 142.513 1553.23 142.943 1552.91 143.386 1552.42 143.843 1551.77 144.299 1551.11 144.868 1550.09 145.548 1548.69L147.938 1548.69 146.3 1556.24 126.857 1556.24 126.346 1554.92 141.036 1538C143.113 1535.62 144.635 1533.93 145.602 1532.93L145.441 1532.74 139.156 1532.74C138.225 1532.74 137.545 1532.8 137.115 1532.93 136.686 1533.05 136.256 1533.27 135.826 1533.59 135.397 1533.9 134.936 1534.36 134.443 1534.98 133.951 1535.6 133.4 1536.48 132.792 1537.63L130.402 1537.63Z" fill-rule="evenodd"/><text fill="#000000" fill-opacity="0" font-family="Arial,Arial_MSFontService,sans-serif" font-size="25.6738" x="126.346" y="1553.03">𝑧</text><path d="M187.033 1544.21C186.72 1544.21 186.362 1544.21 185.958 1544.23 185.555 1544.24 185.164 1544.24 184.786 1544.24L182.462 1554.46 184.786 1554.46C187.365 1554.46 189.344 1553.94 190.724 1552.89 192.104 1551.84 192.794 1550.25 192.794 1548.11 192.794 1547.4 192.687 1546.79 192.472 1546.29 192.257 1545.78 191.915 1545.38 191.447 1545.07 190.978 1544.77 190.382 1544.55 189.66 1544.41 188.937 1544.27 188.061 1544.21 187.033 1544.21ZM178.79 1542.14 187.755 1542.14C189.474 1542.14 190.906 1542.29 192.052 1542.58 193.198 1542.88 194.116 1543.3 194.806 1543.82 195.496 1544.35 195.984 1544.97 196.271 1545.69 196.557 1546.41 196.701 1547.18 196.701 1548.01 196.701 1549.94 196.111 1551.55 194.933 1552.84 193.755 1554.13 191.967 1555.11 189.572 1555.79 189.546 1555.84 189.533 1555.89 189.533 1555.92 189.533 1555.96 189.533 1556.01 189.533 1556.06 190.145 1556.48 190.636 1557 191.007 1557.62 191.378 1558.25 191.701 1559.08 191.974 1560.1 192.286 1561.33 192.544 1562.32 192.745 1563.07 192.947 1563.83 193.182 1564.42 193.449 1564.86 193.715 1565.3 194.054 1565.62 194.464 1565.82 194.874 1566.02 195.431 1566.17 196.134 1566.28L195.861 1567.47 190.177 1567.47C189.943 1566.96 189.715 1566.34 189.493 1565.6 189.272 1564.87 189.077 1564.15 188.908 1563.44 188.647 1562.42 188.429 1561.53 188.253 1560.78 188.077 1560.03 187.905 1559.4 187.736 1558.88 187.566 1558.37 187.391 1557.96 187.208 1557.65 187.026 1557.35 186.811 1557.1 186.564 1556.92 186.316 1556.74 186.017 1556.62 185.665 1556.56 185.314 1556.5 184.884 1556.46 184.376 1556.43L182.052 1556.43C181.896 1557.12 181.727 1557.86 181.544 1558.66 181.362 1559.45 181.183 1560.23 181.007 1560.98 180.831 1561.74 180.685 1562.44 180.568 1563.1 180.451 1563.76 180.392 1564.29 180.392 1564.69 180.392 1564.97 180.424 1565.2 180.49 1565.39 180.555 1565.58 180.669 1565.73 180.831 1565.85 180.994 1565.96 181.215 1566.05 181.495 1566.12 181.775 1566.18 182.13 1566.24 182.56 1566.28L182.306 1567.47 173.966 1567.47 174.181 1566.28C174.585 1566.21 174.913 1566.13 175.167 1566.03 175.421 1565.93 175.649 1565.75 175.851 1565.47 176.053 1565.19 176.238 1564.77 176.408 1564.21 176.577 1563.65 176.772 1562.86 176.993 1561.86L180.197 1547.62C180.327 1547.05 180.424 1546.54 180.49 1546.1 180.555 1545.66 180.587 1545.29 180.587 1545.01 180.587 1544.42 180.441 1544 180.148 1543.76 179.855 1543.51 179.305 1543.38 178.497 1543.37ZM156.79 1542.14 165.033 1542.14 164.818 1543.31C164.362 1543.42 164.001 1543.53 163.734 1543.61 163.467 1543.69 163.239 1543.87 163.05 1544.15 162.861 1544.42 162.692 1544.83 162.542 1545.37 162.393 1545.91 162.201 1546.7 161.966 1547.74L158.001 1565.4 163.099 1565.4C163.815 1565.4 164.434 1565.34 164.954 1565.21 165.475 1565.09 165.957 1564.83 166.4 1564.43 166.842 1564.03 167.269 1563.47 167.679 1562.74 168.089 1562.01 168.542 1561.04 169.036 1559.83L171.185 1559.83 169.173 1567.47 151.966 1567.47 152.181 1566.28C152.585 1566.21 152.917 1566.13 153.177 1566.03 153.438 1565.93 153.669 1565.75 153.87 1565.47 154.072 1565.19 154.255 1564.77 154.417 1564.21 154.58 1563.65 154.772 1562.86 154.993 1561.86L158.197 1547.62C158.327 1547.05 158.424 1546.54 158.49 1546.1 158.555 1545.66 158.587 1545.28 158.587 1544.97 158.587 1544.39 158.438 1543.99 158.138 1543.75 157.839 1543.51 157.292 1543.38 156.497 1543.37Z" fill-rule="evenodd"/><text fill="#000000" fill-opacity="0" font-family="Arial,Arial_MSFontService,sans-serif" font-size="25.332" x="151.966" y="1564.3">𝐿𝑅</text><path d="M259.787 1515.05C265.015 1516.43 269.03 1519.4 271.832 1523.98 274.634 1528.55 276.035 1534.07 276.035 1540.53 276.035 1547.02 274.638 1552.53 271.845 1557.09 269.052 1561.65 265.033 1564.61 259.787 1565.99L259.143 1563.93C263.278 1562.55 266.353 1559.83 268.368 1555.76 270.382 1551.7 271.389 1546.53 271.389 1540.27 271.389 1534.21 270.386 1529.19 268.381 1525.19 266.376 1521.19 263.27 1518.49 259.062 1517.12ZM223.39 1515.05 224.115 1517.12C219.926 1518.49 216.824 1521.19 214.81 1525.19 212.795 1529.19 211.788 1534.21 211.788 1540.27 211.788 1546.53 212.795 1551.7 214.81 1555.76 216.824 1559.83 219.899 1562.55 224.034 1563.93L223.39 1565.99C218.144 1564.61 214.125 1561.65 211.332 1557.09 208.539 1552.53 207.142 1547.02 207.142 1540.53 207.142 1534.07 208.543 1528.55 211.345 1523.98 214.147 1519.4 218.162 1516.43 223.39 1515.05Z" fill-rule="evenodd"/><path d="M233.808 1530.11C234.953 1530.11 235.858 1530.49 236.52 1531.26 237.182 1532.03 237.514 1533.07 237.514 1534.38 237.514 1535.79 237.236 1537.56 236.681 1539.67L235.5 1544.31C235.195 1545.5 234.976 1546.42 234.842 1547.08 234.707 1547.74 234.609 1548.32 234.546 1548.8 234.483 1549.28 234.452 1549.69 234.452 1550.01 234.452 1551.24 234.658 1552.13 235.07 1552.68 235.482 1553.23 236.153 1553.5 237.084 1553.5 237.836 1553.5 238.646 1553.2 239.514 1552.6 240.383 1552 241.305 1551.1 242.281 1549.89 243.256 1548.68 244.04 1547.51 244.63 1546.37 245.221 1545.23 245.705 1543.83 246.081 1542.17L248.632 1530.54 253.278 1530.54 249.357 1547.56C248.963 1549.28 248.766 1550.61 248.766 1551.54 248.766 1552.25 248.883 1552.77 249.115 1553.1 249.348 1553.42 249.715 1553.58 250.216 1553.58 250.753 1553.58 251.326 1553.36 251.935 1552.92 252.544 1552.48 253.403 1551.65 254.513 1550.41L256.044 1551.91C254.415 1553.65 253.027 1554.88 251.881 1555.59 250.736 1556.31 249.518 1556.67 248.229 1556.67 247.119 1556.67 246.233 1556.3 245.57 1555.57 244.908 1554.83 244.577 1553.86 244.577 1552.64 244.577 1551.67 244.792 1550.62 245.221 1549.47L244.899 1549.36C243.126 1551.85 241.448 1553.69 239.864 1554.87 238.279 1556.05 236.654 1556.64 234.989 1556.64 233.324 1556.64 232.044 1556.16 231.149 1555.2 230.254 1554.25 229.806 1552.92 229.806 1551.22 229.806 1550.09 230.066 1548.49 230.585 1546.41L232.331 1539.37C232.814 1537.42 233.056 1536.04 233.056 1535.24 233.056 1534.52 232.939 1534 232.707 1533.68 232.474 1533.36 232.107 1533.2 231.605 1533.2 231.05 1533.2 230.464 1533.42 229.846 1533.88 229.229 1534.34 228.383 1535.17 227.309 1536.36L225.778 1534.86C227.3 1533.32 228.445 1532.27 229.215 1531.69 229.985 1531.12 230.724 1530.71 231.431 1530.47 232.138 1530.23 232.93 1530.11 233.808 1530.11Z" fill-rule="evenodd"/><text fill="#000000" fill-opacity="0" font-family="Arial,Arial_MSFontService,sans-serif" font-size="26.5601" x="225.778" y="1553.35">𝑢</text><path d="M1605.01 2226.47C1606.15 2226.47 1607.06 2226.85 1607.72 2227.62 1608.38 2228.39 1608.71 2229.43 1608.71 2230.74 1608.71 2232.15 1608.44 2233.92 1607.88 2236.03L1606.7 2240.68C1606.39 2241.86 1606.17 2242.78 1606.04 2243.44 1605.91 2244.1 1605.81 2244.68 1605.75 2245.16 1605.68 2245.64 1605.65 2246.05 1605.65 2246.37 1605.65 2247.6 1605.86 2248.5 1606.27 2249.04 1606.68 2249.59 1607.35 2249.86 1608.28 2249.86 1609.03 2249.86 1609.85 2249.56 1610.71 2248.96 1611.58 2248.36 1612.5 2247.46 1613.48 2246.25 1614.46 2245.04 1615.24 2243.87 1615.83 2242.73 1616.42 2241.59 1616.9 2240.19 1617.28 2238.53L1619.83 2226.9 1624.48 2226.9 1620.56 2243.93C1620.16 2245.64 1619.97 2246.97 1619.97 2247.9 1619.97 2248.62 1620.08 2249.14 1620.31 2249.46 1620.55 2249.78 1620.91 2249.94 1621.42 2249.94 1621.95 2249.94 1622.53 2249.72 1623.13 2249.28 1623.74 2248.84 1624.6 2248.01 1625.71 2246.77L1627.24 2248.28C1625.61 2250.01 1624.23 2251.24 1623.08 2251.96 1621.93 2252.67 1620.72 2253.03 1619.43 2253.03 1618.32 2253.03 1617.43 2252.66 1616.77 2251.93 1616.11 2251.19 1615.78 2250.22 1615.78 2249 1615.78 2248.03 1615.99 2246.98 1616.42 2245.83L1616.1 2245.72C1614.33 2248.21 1612.65 2250.05 1611.06 2251.23 1609.48 2252.41 1607.85 2253 1606.19 2253 1604.52 2253 1603.24 2252.52 1602.35 2251.57 1601.45 2250.61 1601.01 2249.28 1601.01 2247.58 1601.01 2246.45 1601.26 2244.85 1601.78 2242.77L1603.53 2235.73C1604.01 2233.78 1604.25 2232.4 1604.25 2231.6 1604.25 2230.88 1604.14 2230.36 1603.91 2230.04 1603.67 2229.72 1603.31 2229.56 1602.8 2229.56 1602.25 2229.56 1601.66 2229.79 1601.05 2230.24 1600.43 2230.7 1599.58 2231.53 1598.51 2232.73L1596.98 2231.22C1598.5 2229.68 1599.64 2228.63 1600.41 2228.05 1601.18 2227.48 1601.92 2227.07 1602.63 2226.83 1603.34 2226.59 1604.13 2226.47 1605.01 2226.47Z" fill-rule="evenodd"/><text fill="#000000" fill-opacity="0" font-family="Arial,Arial_MSFontService,sans-serif" font-size="26.5601" x="1596.98" y="2249.71">𝑢</text><path d="M375.445 1649.66 382.482 1649.66 384.093 1670.85C386.617 1666.73 388.439 1663.6 389.558 1661.45 390.677 1659.3 391.505 1657.45 392.042 1655.88 392.579 1654.31 392.991 1652.68 393.277 1650.98L393.573 1649.66 397.44 1649.66 399.401 1670.88C402.194 1666.91 404.32 1663.44 405.779 1660.47 407.238 1657.51 407.967 1655.1 407.967 1653.24 407.967 1652.39 407.788 1651.82 407.43 1651.52 407.072 1651.21 406.464 1651.03 405.604 1650.98L405.873 1649.66 412.801 1649.66 413.527 1651.01C412.9 1652.6 412.399 1653.83 412.023 1654.69 411.647 1655.55 411.154 1656.58 410.546 1657.79 409.937 1659 409.292 1660.2 408.612 1661.4 407.932 1662.6 407.13 1663.92 406.208 1665.36 405.286 1666.8 404.252 1668.37 403.107 1670.06 401.961 1671.75 400.609 1673.65 399.051 1675.77L395.856 1675.77 394.755 1664.54C394.665 1663.66 394.571 1662.52 394.473 1661.1 394.374 1659.69 394.307 1658.6 394.271 1657.83L393.976 1657.8C393.009 1660.18 391.693 1662.83 390.028 1665.75 388.363 1668.67 386.304 1672.01 383.851 1675.77L380.253 1675.77 378.212 1655.55C378.104 1654.51 377.97 1653.67 377.809 1653.02 377.648 1652.38 377.379 1651.89 377.003 1651.57 376.627 1651.25 376.009 1651.05 375.15 1650.98Z" fill-rule="evenodd"/><text fill="#000000" fill-opacity="0" font-family="Arial,Arial_MSFontService,sans-serif" font-size="26.1035" x="375.15" y="1672.5">𝑤</text><path d="M435.241 1663.41 468.327 1663.41 468.327 1666.99 435.241 1666.99ZM435.241 1652.27 468.327 1652.27 468.327 1655.84 435.241 1655.84Z" fill-rule="evenodd"/><text fill="#000000" fill-opacity="0" font-family="Arial,Arial_MSFontService,sans-serif" font-size="14.7168" x="435.241" y="1665.15">=</text><path d="M505.553 1649.23C507.935 1649.23 510.128 1649.5 512.133 1650.04L510.817 1656.11 507.997 1656.11C507.961 1654.75 507.85 1653.76 507.662 1653.16 507.474 1652.55 507.169 1652.09 506.748 1651.79 506.328 1651.48 505.732 1651.33 504.963 1651.33 503.154 1651.33 501.53 1652.05 500.088 1653.49 498.647 1654.93 497.47 1656.97 496.557 1659.61 495.644 1662.25 495.187 1664.79 495.187 1667.23 495.187 1669.05 495.545 1670.41 496.261 1671.3 496.978 1672.18 498.052 1672.63 499.484 1672.63 501.113 1672.63 502.523 1672.32 503.714 1671.7 504.904 1671.08 506.162 1670.11 507.487 1668.78L509.125 1670.42C507.442 1672.29 505.746 1673.65 504.036 1674.51 502.326 1675.36 500.487 1675.79 498.517 1675.79 495.921 1675.79 493.952 1675.02 492.609 1673.48 491.266 1671.94 490.595 1669.71 490.595 1666.77 490.595 1664.86 490.953 1662.75 491.669 1660.46 492.385 1658.17 493.433 1656.15 494.811 1654.42 496.19 1652.68 497.801 1651.38 499.645 1650.52 501.489 1649.66 503.459 1649.23 505.553 1649.23Z" fill-rule="evenodd"/><text fill="#000000" fill-opacity="0" font-family="Arial,Arial_MSFontService,sans-serif" font-size="26.5601" x="490.595" y="1672.47">𝑐</text><path d="M525.333 1649.21C525.888 1649.21 526.376 1649.27 526.797 1649.4 527.217 1649.52 527.589 1649.71 527.911 1649.97 528.233 1650.23 528.52 1650.57 528.771 1650.98 529.021 1651.39 529.263 1651.95 529.496 1652.66 529.728 1653.37 529.948 1654.24 530.154 1655.29 530.359 1656.34 530.543 1657.43 530.704 1658.55L530.973 1658.55C532.691 1656.14 533.994 1654.37 534.88 1653.25 535.766 1652.13 536.514 1651.3 537.123 1650.75 537.731 1650.21 538.318 1649.82 538.882 1649.6 539.446 1649.37 540.193 1649.26 541.124 1649.26 541.966 1649.26 542.655 1649.37 543.192 1649.58L542.118 1654.44 540.238 1654.44C540.13 1653.69 539.817 1653.32 539.298 1653.32 539.137 1653.32 538.967 1653.34 538.788 1653.4 538.609 1653.45 538.389 1653.57 538.13 1653.75 537.87 1653.92 537.49 1654.27 536.988 1654.79 536.487 1655.31 535.923 1655.95 535.296 1656.7 534.67 1657.45 534.025 1658.24 533.363 1659.06L531.537 1661.35C531.859 1663.06 532.163 1664.55 532.45 1665.8 532.736 1667.06 532.991 1668.1 533.215 1668.93 533.439 1669.77 533.636 1670.42 533.806 1670.91 533.976 1671.39 534.159 1671.75 534.356 1671.99 534.553 1672.24 534.755 1672.41 534.961 1672.5 535.167 1672.6 535.404 1672.65 535.672 1672.65 536.156 1672.65 536.626 1672.46 537.082 1672.09 537.539 1671.71 538.197 1670.86 539.056 1669.54L540.802 1670.69C539.549 1672.55 538.416 1673.87 537.405 1674.63 536.393 1675.39 535.189 1675.77 533.792 1675.77 533.023 1675.77 532.369 1675.63 531.832 1675.35 531.295 1675.07 530.829 1674.63 530.436 1674.02 530.042 1673.41 529.693 1672.46 529.388 1671.18 528.833 1668.88 528.493 1667.13 528.368 1665.91L528.099 1665.91C526.201 1668.58 524.791 1670.49 523.869 1671.66 522.947 1672.82 522.186 1673.68 521.587 1674.24 520.987 1674.79 520.405 1675.18 519.841 1675.4 519.277 1675.63 518.53 1675.74 517.599 1675.74 516.757 1675.74 516.068 1675.63 515.531 1675.42L516.605 1670.56 518.485 1670.56C518.592 1671.31 518.906 1671.69 519.425 1671.69 519.675 1671.69 519.94 1671.62 520.217 1671.48 520.495 1671.35 520.893 1671.03 521.412 1670.52 521.931 1670.01 522.647 1669.21 523.561 1668.11 524.474 1667.02 525.799 1665.38 527.535 1663.2 527.267 1661.78 526.989 1660.42 526.703 1659.12 526.416 1657.81 526.121 1656.59 525.816 1655.46 525.512 1654.34 525.261 1653.6 525.064 1653.25 524.867 1652.9 524.657 1652.66 524.433 1652.52 524.21 1652.39 523.928 1652.32 523.587 1652.32 523.211 1652.32 522.871 1652.41 522.567 1652.58 522.263 1652.75 521.931 1653.04 521.573 1653.46 521.215 1653.88 520.741 1654.54 520.15 1655.44L518.404 1654.28C519.532 1652.58 520.615 1651.31 521.654 1650.47 522.692 1649.63 523.919 1649.21 525.333 1649.21Z" fill-rule="evenodd"/><text fill="#000000" fill-opacity="0" font-family="Arial,Arial_MSFontService,sans-serif" font-size="26.5601" x="515.531" y="1672.45">𝑥</text><path d="M558.984 1630.04 560.175 1630.04C560.149 1630.75 560.13 1631.4 560.117 1631.96 560.104 1632.53 560.094 1633.08 560.087 1633.61 560.081 1634.15 560.077 1634.67 560.077 1635.19L560.077 1650.04C560.077 1650.44 560.09 1650.79 560.117 1651.08 560.143 1651.38 560.185 1651.62 560.243 1651.82 560.302 1652.03 560.38 1652.2 560.478 1652.34 560.576 1652.49 560.689 1652.61 560.82 1652.71 560.976 1652.87 561.184 1652.99 561.445 1653.07 561.705 1653.16 562.037 1653.23 562.441 1653.29 562.844 1653.35 563.329 1653.39 563.896 1653.43 564.462 1653.46 565.143 1653.48 565.937 1653.49L565.937 1655.19 550.449 1655.19 550.449 1653.49C551.217 1653.47 551.868 1653.44 552.402 1653.41 552.936 1653.37 553.391 1653.33 553.769 1653.27 554.146 1653.21 554.449 1653.15 554.677 1653.07 554.905 1653 555.104 1652.92 555.273 1652.81 555.455 1652.69 555.611 1652.57 555.742 1652.43 555.872 1652.29 555.976 1652.12 556.054 1651.91 556.132 1651.7 556.194 1651.45 556.24 1651.15 556.285 1650.85 556.308 1650.48 556.308 1650.04L556.308 1636.03C556.308 1635.53 556.21 1635.17 556.015 1634.96 555.82 1634.75 555.54 1634.65 555.175 1634.65 554.771 1634.65 554.172 1634.86 553.378 1635.27 552.584 1635.69 551.555 1636.31 550.292 1637.13 550.123 1636.83 549.967 1636.53 549.824 1636.23 549.68 1635.93 549.531 1635.62 549.374 1635.31 550.989 1634.43 552.587 1633.54 554.169 1632.66 555.751 1631.79 557.356 1630.91 558.984 1630.04Z" fill-rule="evenodd"/><text fill="#000000" fill-opacity="0" font-family="Arial,Arial_MSFontService,sans-serif" font-size="25.1562" x="549.374" y="1652.05">1</text><path d="M587.797 1657.83 620.883 1657.83 620.883 1661.4 587.797 1661.4Z" fill-rule="evenodd"/><text fill="#000000" fill-opacity="0" font-family="Arial,Arial_MSFontService,sans-serif" font-size="3.57178" x="587.797" y="1660.95">−</text><path d="M645.935 1649.21C647.081 1649.21 647.985 1649.59 648.647 1650.36 649.31 1651.13 649.641 1652.17 649.641 1653.48 649.641 1654.89 649.363 1656.66 648.808 1658.77L647.627 1663.41C647.322 1664.6 647.103 1665.52 646.969 1666.18 646.834 1666.84 646.736 1667.42 646.673 1667.9 646.611 1668.38 646.579 1668.78 646.579 1669.11 646.579 1670.34 646.785 1671.23 647.197 1671.78 647.609 1672.33 648.28 1672.6 649.211 1672.6 649.963 1672.6 650.773 1672.3 651.642 1671.7 652.51 1671.1 653.432 1670.19 654.408 1668.99 655.383 1667.78 656.167 1666.61 656.758 1665.47 657.348 1664.33 657.832 1662.93 658.208 1661.27L660.759 1649.64 665.405 1649.64 661.484 1666.66C661.09 1668.38 660.893 1669.71 660.893 1670.64 660.893 1671.35 661.01 1671.87 661.242 1672.2 661.475 1672.52 661.842 1672.68 662.344 1672.68 662.881 1672.68 663.454 1672.46 664.062 1672.02 664.671 1671.58 665.53 1670.75 666.64 1669.51L668.171 1671.01C666.542 1672.75 665.154 1673.98 664.009 1674.69 662.863 1675.41 661.645 1675.77 660.356 1675.77 659.246 1675.77 658.36 1675.4 657.698 1674.67 657.035 1673.93 656.704 1672.96 656.704 1671.74 656.704 1670.77 656.919 1669.72 657.348 1668.57L657.026 1668.46C655.254 1670.95 653.575 1672.79 651.991 1673.97 650.406 1675.15 648.781 1675.74 647.116 1675.74 645.451 1675.74 644.171 1675.26 643.276 1674.3 642.381 1673.35 641.933 1672.02 641.933 1670.32 641.933 1669.19 642.193 1667.59 642.712 1665.51L644.458 1658.47C644.941 1656.52 645.183 1655.14 645.183 1654.34 645.183 1653.62 645.066 1653.1 644.834 1652.78 644.601 1652.46 644.234 1652.3 643.733 1652.3 643.178 1652.3 642.591 1652.52 641.974 1652.98 641.356 1653.44 640.51 1654.27 639.436 1655.46L637.905 1653.96C639.427 1652.42 640.573 1651.36 641.343 1650.79 642.112 1650.22 642.851 1649.81 643.558 1649.57 644.265 1649.33 645.058 1649.21 645.935 1649.21Z" fill-rule="evenodd"/><text fill="#000000" fill-opacity="0" font-family="Arial,Arial_MSFontService,sans-serif" font-size="26.5601" x="637.905" y="1672.45">𝑢</text><path d="M883.756 1634.15C888.984 1635.53 892.999 1638.5 895.801 1643.08 898.603 1647.65 900.004 1653.17 900.004 1659.63 900.004 1666.12 898.607 1671.63 895.814 1676.19 893.021 1680.75 889.002 1683.71 883.756 1685.09L883.112 1683.03C887.247 1681.65 890.322 1678.93 892.336 1674.86 894.351 1670.8 895.358 1665.63 895.358 1659.37 895.358 1653.31 894.355 1648.29 892.35 1644.29 890.345 1640.28 887.238 1637.59 883.031 1636.22ZM691.25 1634.15 691.975 1636.22C687.786 1637.59 684.684 1640.28 682.67 1644.29 680.656 1648.29 679.649 1653.31 679.649 1659.37 679.649 1665.63 680.656 1670.8 682.67 1674.86 684.684 1678.93 687.759 1681.65 691.895 1683.03L691.25 1685.09C686.005 1683.71 681.985 1680.75 679.192 1676.19 676.399 1671.63 675.003 1666.12 675.003 1659.63 675.003 1653.17 676.404 1647.65 679.206 1643.08 682.008 1638.5 686.022 1635.53 691.25 1634.15Z" fill-rule="evenodd"/><path d="M715.472 1643.92 705.911 1660.84 716.412 1660.84 715.955 1652.19C715.902 1651.01 715.857 1649.53 715.821 1647.76 715.785 1645.98 715.767 1644.7 715.767 1643.92ZM715.633 1638.25 719.688 1638.25 721.622 1668.19C721.711 1669.61 721.872 1670.71 722.105 1671.51 722.338 1672.31 722.656 1672.9 723.059 1673.28 723.461 1673.67 724.048 1673.91 724.818 1674.02L724.522 1675.34 713.35 1675.34 713.646 1674.02C714.702 1673.93 715.49 1673.52 716.009 1672.79 716.528 1672.05 716.788 1670.76 716.788 1668.92 716.788 1668.22 716.761 1667.46 716.707 1666.64L716.519 1663.17 704.703 1663.17 703.226 1665.8C702.528 1667.04 702.017 1668.1 701.695 1668.99 701.373 1669.87 701.212 1670.66 701.212 1671.34 701.212 1672.84 702.116 1673.74 703.924 1674.02L703.629 1675.34 692.645 1675.34 692.94 1674.02C693.495 1673.95 694.019 1673.73 694.511 1673.36 695.004 1673 695.527 1672.44 696.082 1671.7 696.637 1670.96 697.416 1669.72 698.419 1668.01Z" fill-rule="evenodd"/><text fill="#000000" fill-opacity="0" font-family="Arial,Arial_MSFontService,sans-serif" font-size="37.0874" x="692.645" y="1670.7">𝐴</text><path d="M739.077 1649.21C739.632 1649.21 740.12 1649.27 740.54 1649.4 740.961 1649.52 741.333 1649.71 741.655 1649.97 741.977 1650.23 742.264 1650.57 742.514 1650.98 742.765 1651.39 743.007 1651.95 743.239 1652.66 743.472 1653.37 743.691 1654.24 743.897 1655.29 744.103 1656.34 744.287 1657.43 744.448 1658.55L744.716 1658.55C746.435 1656.14 747.738 1654.37 748.624 1653.25 749.51 1652.13 750.258 1651.3 750.866 1650.75 751.475 1650.21 752.061 1649.82 752.625 1649.6 753.189 1649.37 753.937 1649.26 754.868 1649.26 755.709 1649.26 756.398 1649.37 756.936 1649.58L755.861 1654.44 753.982 1654.44C753.874 1653.69 753.561 1653.32 753.042 1653.32 752.88 1653.32 752.71 1653.34 752.531 1653.4 752.352 1653.45 752.133 1653.57 751.873 1653.75 751.614 1653.92 751.233 1654.27 750.732 1654.79 750.231 1655.31 749.667 1655.95 749.04 1656.7 748.413 1657.45 747.769 1658.24 747.107 1659.06L745.28 1661.35C745.603 1663.06 745.907 1664.55 746.193 1665.8 746.48 1667.06 746.735 1668.1 746.959 1668.93 747.183 1669.77 747.38 1670.42 747.55 1670.91 747.72 1671.39 747.903 1671.75 748.1 1671.99 748.297 1672.24 748.499 1672.41 748.704 1672.5 748.91 1672.6 749.148 1672.65 749.416 1672.65 749.899 1672.65 750.369 1672.46 750.826 1672.09 751.283 1671.71 751.94 1670.86 752.8 1669.54L754.545 1670.69C753.292 1672.55 752.16 1673.87 751.148 1674.63 750.137 1675.39 748.933 1675.77 747.536 1675.77 746.766 1675.77 746.113 1675.63 745.576 1675.35 745.039 1675.07 744.573 1674.63 744.179 1674.02 743.785 1673.41 743.436 1672.46 743.132 1671.18 742.577 1668.88 742.237 1667.13 742.111 1665.91L741.843 1665.91C739.945 1668.58 738.535 1670.49 737.613 1671.66 736.691 1672.82 735.93 1673.68 735.33 1674.24 734.731 1674.79 734.149 1675.18 733.585 1675.4 733.021 1675.63 732.273 1675.74 731.342 1675.74 730.501 1675.74 729.812 1675.63 729.274 1675.42L730.349 1670.56 732.229 1670.56C732.336 1671.31 732.649 1671.69 733.169 1671.69 733.419 1671.69 733.683 1671.62 733.961 1671.48 734.238 1671.35 734.637 1671.03 735.156 1670.52 735.675 1670.01 736.391 1669.21 737.304 1668.11 738.217 1667.02 739.542 1665.38 741.279 1663.2 741.01 1661.78 740.733 1660.42 740.446 1659.12 740.16 1657.81 739.865 1656.59 739.56 1655.46 739.256 1654.34 739.005 1653.6 738.808 1653.25 738.611 1652.9 738.401 1652.66 738.177 1652.52 737.953 1652.39 737.671 1652.32 737.331 1652.32 736.955 1652.32 736.615 1652.41 736.311 1652.58 736.006 1652.75 735.675 1653.04 735.317 1653.46 734.959 1653.88 734.484 1654.54 733.894 1655.44L732.148 1654.28C733.276 1652.58 734.359 1651.31 735.398 1650.47 736.436 1649.63 737.662 1649.21 739.077 1649.21Z" fill-rule="evenodd"/><text fill="#000000" fill-opacity="0" font-family="Arial,Arial_MSFontService,sans-serif" font-size="26.5601" x="729.274" y="1672.45">𝑥</text><path d="M772.727 1630.04 773.919 1630.04C773.893 1630.75 773.873 1631.4 773.86 1631.96 773.847 1632.53 773.837 1633.08 773.831 1633.61 773.824 1634.15 773.821 1634.67 773.821 1635.19L773.821 1650.04C773.821 1650.44 773.834 1650.79 773.86 1651.08 773.886 1651.38 773.929 1651.62 773.987 1651.82 774.046 1652.03 774.124 1652.2 774.222 1652.34 774.319 1652.49 774.433 1652.61 774.563 1652.71 774.72 1652.87 774.928 1652.99 775.188 1653.07 775.449 1653.16 775.781 1653.23 776.184 1653.29 776.588 1653.35 777.073 1653.39 777.64 1653.43 778.206 1653.46 778.886 1653.48 779.681 1653.49L779.681 1655.19 764.192 1655.19 764.192 1653.49C764.961 1653.47 765.612 1653.44 766.145 1653.41 766.679 1653.37 767.135 1653.33 767.513 1653.27 767.89 1653.21 768.193 1653.15 768.421 1653.07 768.649 1653 768.847 1652.92 769.016 1652.81 769.199 1652.69 769.355 1652.57 769.485 1652.43 769.615 1652.29 769.72 1652.12 769.798 1651.91 769.876 1651.7 769.938 1651.45 769.983 1651.15 770.029 1650.85 770.052 1650.48 770.052 1650.04L770.052 1636.03C770.052 1635.53 769.954 1635.17 769.759 1634.96 769.563 1634.75 769.283 1634.65 768.919 1634.65 768.515 1634.65 767.916 1634.86 767.122 1635.27 766.328 1635.69 765.299 1636.31 764.036 1637.13 763.867 1636.83 763.711 1636.53 763.567 1636.23 763.424 1635.93 763.274 1635.62 763.118 1635.31 764.733 1634.43 766.331 1633.54 767.913 1632.66 769.495 1631.79 771.1 1630.91 772.727 1630.04Z" fill-rule="evenodd"/><text fill="#000000" fill-opacity="0" font-family="Arial,Arial_MSFontService,sans-serif" font-size="25.1562" x="763.118" y="1652.05">1</text><path d="M801.541 1657.83 834.627 1657.83 834.627 1661.4 801.541 1661.4Z" fill-rule="evenodd"/><text fill="#000000" fill-opacity="0" font-family="Arial,Arial_MSFontService,sans-serif" font-size="3.57178" x="801.541" y="1660.95">−</text><path d="M869.723 1652.38C868.863 1652.38 868.017 1652.65 867.185 1653.2 866.352 1653.74 865.426 1654.65 864.405 1655.91 863.385 1657.17 862.552 1658.46 861.908 1659.79 861.263 1661.11 860.717 1662.81 860.269 1664.86L860.028 1665.99C859.759 1667.25 859.625 1668.46 859.625 1669.64 859.625 1671.06 859.934 1672.08 860.551 1672.71 861.169 1673.33 862.194 1673.65 863.626 1673.65 864.36 1673.65 865.059 1673.52 865.721 1673.28 866.383 1673.04 867.059 1672.64 867.749 1672.09 868.438 1671.53 869.091 1670.8 869.709 1669.9 870.327 1669 870.895 1667.88 871.414 1666.56 871.934 1665.23 872.336 1663.81 872.623 1662.3 872.909 1660.79 873.053 1659.34 873.053 1657.96 873.053 1656.1 872.789 1654.7 872.26 1653.77 871.732 1652.84 870.886 1652.38 869.723 1652.38ZM865.023 1636.93 866.58 1636.93 861.854 1655.73 862.203 1655.84C863.94 1653.51 865.569 1651.83 867.091 1650.79 868.612 1649.75 870.134 1649.23 871.656 1649.23 873.608 1649.23 875.125 1649.98 876.208 1651.46 877.291 1652.95 877.833 1655.04 877.833 1657.75 877.833 1660.7 877.238 1663.61 876.047 1666.46 874.856 1669.32 873.205 1671.58 871.092 1673.26 868.98 1674.93 866.616 1675.77 864.002 1675.77 861.621 1675.77 859.508 1675.19 857.664 1674.02L855.194 1675.77 853.475 1675.34 860.431 1644.64C860.842 1642.82 861.048 1641.49 861.048 1640.67 861.048 1639.92 860.82 1639.39 860.363 1639.08 859.907 1638.78 859.088 1638.61 857.906 1638.57L858.228 1637.18Z" fill-rule="evenodd"/><text fill="#000000" fill-opacity="0" font-family="Arial,Arial_MSFontService,sans-serif" font-size="38.833" x="853.475" y="1670.91">𝑏</text><path d="M734.52 1739.39 741.556 1739.39 743.167 1760.58C745.692 1756.46 747.513 1753.33 748.632 1751.18 749.751 1749.03 750.579 1747.18 751.117 1745.61 751.654 1744.04 752.065 1742.41 752.352 1740.71L752.647 1739.39 756.514 1739.39 758.475 1760.61C761.268 1756.63 763.394 1753.17 764.853 1750.2 766.312 1747.24 767.042 1744.83 767.042 1742.96 767.042 1742.12 766.863 1741.55 766.505 1741.25 766.147 1740.94 765.538 1740.76 764.679 1740.71L764.947 1739.39 771.876 1739.39 772.601 1740.74C771.974 1742.33 771.473 1743.56 771.097 1744.42 770.721 1745.27 770.229 1746.31 769.62 1747.52 769.011 1748.73 768.367 1749.93 767.686 1751.13 767.006 1752.33 766.205 1753.65 765.283 1755.09 764.361 1756.53 763.327 1758.1 762.181 1759.79 761.035 1761.48 759.683 1763.38 758.126 1765.5L754.93 1765.5 753.829 1754.27C753.739 1753.39 753.645 1752.25 753.547 1750.83 753.448 1749.42 753.381 1748.33 753.346 1747.56L753.05 1747.53C752.083 1749.91 750.767 1752.56 749.102 1755.48 747.437 1758.4 745.378 1761.74 742.926 1765.5L739.327 1765.5 737.286 1745.27C737.179 1744.24 737.044 1743.39 736.883 1742.75 736.722 1742.11 736.453 1741.62 736.077 1741.3 735.701 1740.98 735.084 1740.78 734.224 1740.71Z" fill-rule="evenodd"/><text fill="#000000" fill-opacity="0" font-family="Arial,Arial_MSFontService,sans-serif" font-size="26.1035" x="734.224" y="1762.23">𝑤</text><path d="M794.315 1753.14 827.401 1753.14 827.401 1756.71 794.315 1756.71ZM794.315 1742 827.401 1742 827.401 1745.57 794.315 1745.57Z" fill-rule="evenodd"/><text fill="#000000" fill-opacity="0" font-family="Arial,Arial_MSFontService,sans-serif" font-size="14.7168" x="794.315" y="1754.88">=</text><path d="M864.628 1738.96C867.009 1738.96 869.202 1739.23 871.207 1739.77L869.891 1745.84 867.072 1745.84C867.036 1744.48 866.924 1743.49 866.736 1742.88 866.548 1742.28 866.244 1741.82 865.823 1741.51 865.402 1741.21 864.807 1741.06 864.037 1741.06 862.229 1741.06 860.604 1741.78 859.163 1743.22 857.721 1744.66 856.544 1746.7 855.631 1749.34 854.718 1751.98 854.262 1754.52 854.262 1756.96 854.262 1758.78 854.62 1760.14 855.336 1761.03 856.052 1761.91 857.126 1762.35 858.558 1762.35 860.188 1762.35 861.598 1762.05 862.788 1761.43 863.979 1760.81 865.237 1759.84 866.561 1758.51L868.2 1760.15C866.517 1762.01 864.82 1763.38 863.11 1764.23 861.401 1765.09 859.561 1765.52 857.592 1765.52 854.996 1765.52 853.026 1764.75 851.683 1763.21 850.341 1761.67 849.669 1759.44 849.669 1756.5 849.669 1754.58 850.027 1752.48 850.744 1750.19 851.46 1747.9 852.507 1745.88 853.886 1744.15 855.264 1742.41 856.876 1741.11 858.72 1740.25 860.564 1739.39 862.533 1738.96 864.628 1738.96Z" fill-rule="evenodd"/><text fill="#000000" fill-opacity="0" font-family="Arial,Arial_MSFontService,sans-serif" font-size="26.5601" x="849.669" y="1762.2">𝑐</text><path d="M884.407 1738.94C884.962 1738.94 885.45 1739 885.871 1739.12 886.292 1739.25 886.663 1739.44 886.985 1739.7 887.308 1739.96 887.594 1740.3 887.845 1740.71 888.096 1741.12 888.337 1741.68 888.57 1742.39 888.803 1743.09 889.022 1743.97 889.228 1745.02 889.434 1746.07 889.617 1747.15 889.778 1748.28L890.047 1748.28C891.766 1745.87 893.068 1744.1 893.954 1742.98 894.841 1741.86 895.588 1741.03 896.197 1740.48 896.806 1739.93 897.392 1739.55 897.956 1739.33 898.52 1739.1 899.267 1738.99 900.198 1738.99 901.04 1738.99 901.729 1739.1 902.266 1739.31L901.192 1744.17 899.312 1744.17C899.205 1743.42 898.891 1743.05 898.372 1743.05 898.211 1743.05 898.041 1743.07 897.862 1743.13 897.683 1743.18 897.464 1743.3 897.204 1743.48 896.944 1743.65 896.564 1744 896.063 1744.52 895.561 1745.04 894.997 1745.68 894.371 1746.43 893.744 1747.18 893.1 1747.97 892.437 1748.79L890.611 1751.08C890.933 1752.79 891.238 1754.28 891.524 1755.53 891.81 1756.79 892.066 1757.83 892.289 1758.66 892.513 1759.49 892.71 1760.15 892.88 1760.64 893.05 1761.12 893.234 1761.48 893.431 1761.72 893.628 1761.97 893.829 1762.14 894.035 1762.23 894.241 1762.33 894.478 1762.38 894.747 1762.38 895.23 1762.38 895.7 1762.19 896.157 1761.82 896.613 1761.44 897.271 1760.59 898.13 1759.27L899.876 1760.42C898.623 1762.28 897.49 1763.59 896.479 1764.36 895.467 1765.12 894.263 1765.5 892.867 1765.5 892.097 1765.5 891.443 1765.36 890.906 1765.08 890.369 1764.8 889.904 1764.36 889.51 1763.75 889.116 1763.14 888.767 1762.19 888.463 1760.9 887.908 1758.61 887.567 1756.86 887.442 1755.64L887.173 1755.64C885.276 1758.31 883.866 1760.22 882.944 1761.39 882.022 1762.55 881.261 1763.41 880.661 1763.97 880.061 1764.52 879.479 1764.91 878.915 1765.13 878.351 1765.36 877.604 1765.47 876.673 1765.47 875.831 1765.47 875.142 1765.36 874.605 1765.15L875.679 1760.29 877.559 1760.29C877.667 1761.04 877.98 1761.41 878.499 1761.41 878.75 1761.41 879.014 1761.35 879.291 1761.21 879.569 1761.08 879.967 1760.76 880.486 1760.25 881.006 1759.74 881.722 1758.94 882.635 1757.84 883.548 1756.75 884.873 1755.11 886.609 1752.93 886.341 1751.51 886.063 1750.15 885.777 1748.85 885.491 1747.54 885.195 1746.32 884.891 1745.19 884.586 1744.07 884.336 1743.33 884.139 1742.98 883.942 1742.63 883.732 1742.39 883.508 1742.25 883.284 1742.12 883.002 1742.05 882.662 1742.05 882.286 1742.05 881.946 1742.14 881.641 1742.31 881.337 1742.48 881.006 1742.77 880.648 1743.19 880.289 1743.61 879.815 1744.27 879.224 1745.17L877.479 1744.01C878.607 1742.31 879.69 1741.04 880.728 1740.2 881.767 1739.36 882.993 1738.94 884.407 1738.94Z" fill-rule="evenodd"/><text fill="#000000" fill-opacity="0" font-family="Arial,Arial_MSFontService,sans-serif" font-size="26.5601" x="874.605" y="1762.18">𝑥</text><path d="M917.703 1719.63C919.058 1719.63 920.213 1719.78 921.17 1720.09 922.127 1720.4 922.905 1720.81 923.504 1721.33 924.103 1721.85 924.536 1722.48 924.803 1723.2 925.07 1723.93 925.203 1724.72 925.203 1725.57 925.203 1726.08 925.168 1726.55 925.096 1726.98 925.024 1727.42 924.901 1727.85 924.725 1728.27 924.549 1728.7 924.318 1729.12 924.031 1729.55 923.745 1729.98 923.387 1730.44 922.957 1730.92 922.632 1731.34 922.209 1731.82 921.688 1732.36 921.167 1732.91 920.597 1733.5 919.979 1734.12 919.36 1734.75 918.712 1735.4 918.035 1736.08 917.358 1736.75 916.701 1737.42 916.063 1738.09 915.425 1738.75 914.839 1739.4 914.305 1740.02 913.771 1740.65 913.335 1741.22 912.996 1741.74L920.223 1741.74C920.835 1741.74 921.323 1741.72 921.688 1741.67 922.052 1741.63 922.355 1741.52 922.596 1741.37 922.837 1741.21 923.042 1740.97 923.211 1740.66 923.38 1740.34 923.576 1739.9 923.797 1739.34L925.614 1739.34C925.548 1740.26 925.487 1741.19 925.428 1742.13 925.369 1743.07 925.308 1744 925.242 1744.92L908.699 1744.92 908.699 1743.91C909.012 1743.2 909.377 1742.51 909.793 1741.83 910.21 1741.14 910.679 1740.45 911.199 1739.75 911.72 1739.04 912.313 1738.32 912.977 1737.57 913.641 1736.82 914.377 1736.04 915.184 1735.24 916.408 1734.01 917.404 1732.97 918.172 1732.1 918.94 1731.24 919.546 1730.46 919.989 1729.79 920.431 1729.11 920.734 1728.48 920.897 1727.91 921.06 1727.34 921.141 1726.73 921.141 1726.08 921.141 1725.41 921.046 1724.8 920.858 1724.24 920.669 1723.68 920.399 1723.2 920.047 1722.81 919.696 1722.42 919.25 1722.12 918.709 1721.9 918.169 1721.67 917.547 1721.56 916.844 1721.56 915.633 1721.56 914.617 1721.89 913.797 1722.55 912.977 1723.21 912.339 1724.16 911.883 1725.41L909.324 1725.41 909.324 1721.6C910.991 1720.91 912.524 1720.41 913.924 1720.1 915.324 1719.79 916.584 1719.63 917.703 1719.63Z" fill-rule="evenodd"/><text fill="#000000" fill-opacity="0" font-family="Arial,Arial_MSFontService,sans-serif" font-size="25.293" x="908.699" y="1741.76">2</text><path d="M948.041 1747.56 981.126 1747.56 981.126 1751.13 948.041 1751.13Z" fill-rule="evenodd"/><text fill="#000000" fill-opacity="0" font-family="Arial,Arial_MSFontService,sans-serif" font-size="3.57178" x="948.041" y="1750.68">−</text><path d="M1006.18 1738.94C1007.32 1738.94 1008.23 1739.32 1008.89 1740.09 1009.55 1740.86 1009.88 1741.9 1009.88 1743.21 1009.88 1744.62 1009.61 1746.38 1009.05 1748.5L1007.87 1753.14C1007.57 1754.32 1007.35 1755.25 1007.21 1755.91 1007.08 1756.57 1006.98 1757.14 1006.92 1757.63 1006.85 1758.11 1006.82 1758.51 1006.82 1758.84 1006.82 1760.07 1007.03 1760.96 1007.44 1761.51 1007.85 1762.05 1008.52 1762.33 1009.45 1762.33 1010.21 1762.33 1011.02 1762.03 1011.88 1761.43 1012.75 1760.83 1013.68 1759.92 1014.65 1758.72 1015.63 1757.51 1016.41 1756.33 1017 1755.2 1017.59 1754.06 1018.07 1752.66 1018.45 1750.99L1021 1739.37 1025.65 1739.37 1021.73 1756.39C1021.33 1758.11 1021.14 1759.44 1021.14 1760.37 1021.14 1761.08 1021.25 1761.6 1021.49 1761.92 1021.72 1762.25 1022.09 1762.41 1022.59 1762.41 1023.12 1762.41 1023.7 1762.19 1024.31 1761.75 1024.91 1761.31 1025.77 1760.47 1026.88 1759.24L1028.41 1760.74C1026.79 1762.48 1025.4 1763.71 1024.25 1764.42 1023.11 1765.14 1021.89 1765.5 1020.6 1765.5 1019.49 1765.5 1018.6 1765.13 1017.94 1764.4 1017.28 1763.66 1016.95 1762.69 1016.95 1761.47 1016.95 1760.5 1017.16 1759.45 1017.59 1758.3L1017.27 1758.19C1015.5 1760.68 1013.82 1762.52 1012.23 1763.7 1010.65 1764.88 1009.02 1765.47 1007.36 1765.47 1005.69 1765.47 1004.41 1764.99 1003.52 1764.03 1002.62 1763.08 1002.18 1761.75 1002.18 1760.05 1002.18 1758.92 1002.44 1757.31 1002.96 1755.24L1004.7 1748.2C1005.18 1746.25 1005.43 1744.87 1005.43 1744.07 1005.43 1743.35 1005.31 1742.83 1005.08 1742.51 1004.84 1742.19 1004.48 1742.03 1003.98 1742.03 1003.42 1742.03 1002.83 1742.25 1002.22 1742.71 1001.6 1743.17 1000.75 1743.99 999.679 1745.19L998.148 1743.69C999.67 1742.15 1000.82 1741.09 1001.59 1740.52 1002.36 1739.95 1003.09 1739.54 1003.8 1739.3 1004.51 1739.06 1005.3 1738.94 1006.18 1738.94Z" fill-rule="evenodd"/><text fill="#000000" fill-opacity="0" font-family="Arial,Arial_MSFontService,sans-serif" font-size="26.5601" x="998.148" y="1762.18">𝑢</text><path d="M1245.17 1723.88C1250.4 1725.26 1254.41 1728.23 1257.21 1732.81 1260.01 1737.38 1261.42 1742.9 1261.42 1749.36 1261.42 1755.84 1260.02 1761.36 1257.23 1765.92 1254.43 1770.48 1250.41 1773.44 1245.17 1774.82L1244.52 1772.75C1248.66 1771.38 1251.73 1768.65 1253.75 1764.59 1255.76 1760.53 1256.77 1755.36 1256.77 1749.09 1256.77 1743.04 1255.77 1738.02 1253.76 1734.02 1251.76 1730.01 1248.65 1727.32 1244.44 1725.95ZM1051.49 1723.88 1052.22 1725.95C1048.03 1727.32 1044.93 1730.01 1042.91 1734.02 1040.9 1738.02 1039.89 1743.04 1039.89 1749.09 1039.89 1755.36 1040.9 1760.53 1042.91 1764.59 1044.93 1768.65 1048 1771.38 1052.14 1772.75L1051.49 1774.82C1046.25 1773.44 1042.23 1770.48 1039.44 1765.92 1036.64 1761.36 1035.25 1755.84 1035.25 1749.36 1035.25 1742.9 1036.65 1737.38 1039.45 1732.81 1042.25 1728.23 1046.27 1725.26 1051.49 1723.88Z" fill-rule="evenodd"/><path d="M1075.71 1733.65 1066.15 1750.57 1076.65 1750.57 1076.2 1741.92C1076.14 1740.74 1076.1 1739.26 1076.06 1737.49 1076.03 1735.71 1076.01 1734.43 1076.01 1733.65ZM1075.88 1727.98 1079.93 1727.98 1081.86 1757.92C1081.95 1759.34 1082.12 1760.44 1082.35 1761.24 1082.58 1762.04 1082.9 1762.63 1083.3 1763.01 1083.7 1763.4 1084.29 1763.64 1085.06 1763.75L1084.77 1765.07 1073.59 1765.07 1073.89 1763.75C1074.95 1763.66 1075.73 1763.25 1076.25 1762.52 1076.77 1761.78 1077.03 1760.49 1077.03 1758.65 1077.03 1757.95 1077 1757.19 1076.95 1756.37L1076.76 1752.9 1064.95 1752.9 1063.47 1755.53C1062.77 1756.77 1062.26 1757.83 1061.94 1758.72 1061.62 1759.6 1061.45 1760.39 1061.45 1761.07 1061.45 1762.57 1062.36 1763.46 1064.17 1763.75L1063.87 1765.07 1052.89 1765.07 1053.18 1763.75C1053.74 1763.68 1054.26 1763.46 1054.75 1763.09 1055.25 1762.73 1055.77 1762.17 1056.33 1761.43 1056.88 1760.69 1057.66 1759.45 1058.66 1757.74Z" fill-rule="evenodd"/><text fill="#000000" fill-opacity="0" font-family="Arial,Arial_MSFontService,sans-serif" font-size="37.0874" x="1052.89" y="1760.43">𝐴</text><path d="M1099.32 1738.94C1099.87 1738.94 1100.36 1739 1100.78 1739.12 1101.2 1739.25 1101.58 1739.44 1101.9 1739.7 1102.22 1739.96 1102.51 1740.3 1102.76 1740.71 1103.01 1741.12 1103.25 1741.68 1103.48 1742.39 1103.72 1743.09 1103.93 1743.97 1104.14 1745.02 1104.35 1746.07 1104.53 1747.15 1104.69 1748.28L1104.96 1748.28C1106.68 1745.87 1107.98 1744.1 1108.87 1742.98 1109.75 1741.86 1110.5 1741.03 1111.11 1740.48 1111.72 1739.93 1112.3 1739.55 1112.87 1739.33 1113.43 1739.1 1114.18 1738.99 1115.11 1738.99 1115.95 1738.99 1116.64 1739.1 1117.18 1739.31L1116.1 1744.17 1114.22 1744.17C1114.12 1743.42 1113.8 1743.05 1113.28 1743.05 1113.12 1743.05 1112.95 1743.07 1112.77 1743.13 1112.6 1743.18 1112.38 1743.3 1112.12 1743.48 1111.86 1743.65 1111.48 1744 1110.98 1744.52 1110.47 1745.04 1109.91 1745.68 1109.28 1746.43 1108.66 1747.18 1108.01 1747.97 1107.35 1748.79L1105.52 1751.08C1105.85 1752.79 1106.15 1754.28 1106.44 1755.53 1106.72 1756.79 1106.98 1757.83 1107.2 1758.66 1107.43 1759.49 1107.62 1760.15 1107.79 1760.64 1107.96 1761.12 1108.15 1761.48 1108.34 1761.72 1108.54 1761.97 1108.74 1762.14 1108.95 1762.23 1109.15 1762.33 1109.39 1762.38 1109.66 1762.38 1110.14 1762.38 1110.61 1762.19 1111.07 1761.82 1111.53 1761.44 1112.18 1760.59 1113.04 1759.27L1114.79 1760.42C1113.54 1762.28 1112.4 1763.59 1111.39 1764.36 1110.38 1765.12 1109.18 1765.5 1107.78 1765.5 1107.01 1765.5 1106.36 1765.36 1105.82 1765.08 1105.28 1764.8 1104.82 1764.36 1104.42 1763.75 1104.03 1763.14 1103.68 1762.19 1103.38 1760.9 1102.82 1758.61 1102.48 1756.86 1102.35 1755.64L1102.09 1755.64C1100.19 1758.31 1098.78 1760.22 1097.86 1761.39 1096.93 1762.55 1096.17 1763.41 1095.57 1763.97 1094.97 1764.52 1094.39 1764.91 1093.83 1765.13 1093.26 1765.36 1092.52 1765.47 1091.59 1765.47 1090.74 1765.47 1090.05 1765.36 1089.52 1765.15L1090.59 1760.29 1092.47 1760.29C1092.58 1761.04 1092.89 1761.41 1093.41 1761.41 1093.66 1761.41 1093.93 1761.35 1094.2 1761.21 1094.48 1761.08 1094.88 1760.76 1095.4 1760.25 1095.92 1759.74 1096.63 1758.94 1097.55 1757.84 1098.46 1756.75 1099.79 1755.11 1101.52 1752.93 1101.25 1751.51 1100.98 1750.15 1100.69 1748.85 1100.4 1747.54 1100.11 1746.32 1099.8 1745.19 1099.5 1744.07 1099.25 1743.33 1099.05 1742.98 1098.85 1742.63 1098.64 1742.39 1098.42 1742.25 1098.2 1742.12 1097.91 1742.05 1097.57 1742.05 1097.2 1742.05 1096.86 1742.14 1096.55 1742.31 1096.25 1742.48 1095.92 1742.77 1095.56 1743.19 1095.2 1743.61 1094.73 1744.27 1094.14 1745.17L1092.39 1744.01C1093.52 1742.31 1094.6 1741.04 1095.64 1740.2 1096.68 1739.36 1097.91 1738.94 1099.32 1738.94Z" fill-rule="evenodd"/><text fill="#000000" fill-opacity="0" font-family="Arial,Arial_MSFontService,sans-serif" font-size="26.5601" x="1089.52" y="1762.18">𝑥</text><path d="M1132.62 1719.63C1133.97 1719.63 1135.13 1719.78 1136.08 1720.09 1137.04 1720.4 1137.82 1720.81 1138.42 1721.33 1139.02 1721.85 1139.45 1722.48 1139.72 1723.2 1139.98 1723.93 1140.12 1724.72 1140.12 1725.57 1140.12 1726.08 1140.08 1726.55 1140.01 1726.98 1139.94 1727.42 1139.81 1727.85 1139.64 1728.27 1139.46 1728.7 1139.23 1729.12 1138.94 1729.55 1138.66 1729.98 1138.3 1730.44 1137.87 1730.92 1137.54 1731.34 1137.12 1731.82 1136.6 1732.36 1136.08 1732.91 1135.51 1733.5 1134.89 1734.12 1134.27 1734.75 1133.62 1735.4 1132.95 1736.08 1132.27 1736.75 1131.61 1737.42 1130.98 1738.09 1130.34 1738.75 1129.75 1739.4 1129.22 1740.02 1128.68 1740.65 1128.25 1741.22 1127.91 1741.74L1135.14 1741.74C1135.75 1741.74 1136.24 1741.72 1136.6 1741.67 1136.96 1741.63 1137.27 1741.52 1137.51 1741.37 1137.75 1741.21 1137.95 1740.97 1138.12 1740.66 1138.29 1740.34 1138.49 1739.9 1138.71 1739.34L1140.53 1739.34C1140.46 1740.26 1140.4 1741.19 1140.34 1742.13 1140.28 1743.07 1140.22 1744 1140.15 1744.92L1123.61 1744.92 1123.61 1743.91C1123.92 1743.2 1124.29 1742.51 1124.71 1741.83 1125.12 1741.14 1125.59 1740.45 1126.11 1739.75 1126.63 1739.04 1127.23 1738.32 1127.89 1737.57 1128.55 1736.82 1129.29 1736.04 1130.1 1735.24 1131.32 1734.01 1132.32 1732.97 1133.08 1732.1 1133.85 1731.24 1134.46 1730.46 1134.9 1729.79 1135.34 1729.11 1135.65 1728.48 1135.81 1727.91 1135.97 1727.34 1136.05 1726.73 1136.05 1726.08 1136.05 1725.41 1135.96 1724.8 1135.77 1724.24 1135.58 1723.68 1135.31 1723.2 1134.96 1722.81 1134.61 1722.42 1134.16 1722.12 1133.62 1721.9 1133.08 1721.67 1132.46 1721.56 1131.76 1721.56 1130.55 1721.56 1129.53 1721.89 1128.71 1722.55 1127.89 1723.21 1127.25 1724.16 1126.8 1725.41L1124.24 1725.41 1124.24 1721.6C1125.9 1720.91 1127.44 1720.41 1128.84 1720.1 1130.24 1719.79 1131.5 1719.63 1132.62 1719.63Z" fill-rule="evenodd"/><text fill="#000000" fill-opacity="0" font-family="Arial,Arial_MSFontService,sans-serif" font-size="25.293" x="1123.61" y="1741.76">2</text><path d="M1162.95 1747.56 1196.04 1747.56 1196.04 1751.13 1162.95 1751.13Z" fill-rule="evenodd"/><text fill="#000000" fill-opacity="0" font-family="Arial,Arial_MSFontService,sans-serif" font-size="3.57178" x="1162.95" y="1750.68">−</text><path d="M1231.13 1742.11C1230.28 1742.11 1229.43 1742.38 1228.6 1742.92 1227.76 1743.47 1226.84 1744.37 1225.82 1745.64 1224.8 1746.9 1223.96 1748.19 1223.32 1749.52 1222.67 1750.84 1222.13 1752.53 1221.68 1754.59L1221.44 1755.72C1221.17 1756.97 1221.04 1758.19 1221.04 1759.37 1221.04 1760.79 1221.35 1761.81 1221.96 1762.44 1222.58 1763.06 1223.61 1763.38 1225.04 1763.38 1225.77 1763.38 1226.47 1763.25 1227.13 1763.01 1227.8 1762.77 1228.47 1762.37 1229.16 1761.82 1229.85 1761.26 1230.5 1760.53 1231.12 1759.63 1231.74 1758.72 1232.31 1757.61 1232.83 1756.29 1233.35 1754.96 1233.75 1753.54 1234.03 1752.03 1234.32 1750.52 1234.46 1749.07 1234.46 1747.69 1234.46 1745.83 1234.2 1744.43 1233.67 1743.5 1233.14 1742.57 1232.3 1742.11 1231.13 1742.11ZM1226.43 1726.66 1227.99 1726.66 1223.27 1745.46 1223.61 1745.57C1225.35 1743.24 1226.98 1741.56 1228.5 1740.52 1230.02 1739.48 1231.55 1738.96 1233.07 1738.96 1235.02 1738.96 1236.54 1739.71 1237.62 1741.19 1238.7 1742.68 1239.24 1744.77 1239.24 1747.48 1239.24 1750.43 1238.65 1753.34 1237.46 1756.19 1236.27 1759.05 1234.62 1761.31 1232.5 1762.99 1230.39 1764.66 1228.03 1765.5 1225.41 1765.5 1223.03 1765.5 1220.92 1764.91 1219.08 1763.75L1216.61 1765.5 1214.89 1765.07 1221.84 1734.37C1222.25 1732.55 1222.46 1731.22 1222.46 1730.4 1222.46 1729.64 1222.23 1729.12 1221.78 1728.81 1221.32 1728.51 1220.5 1728.34 1219.32 1728.3L1219.64 1726.91Z" fill-rule="evenodd"/><text fill="#000000" fill-opacity="0" font-family="Arial,Arial_MSFontService,sans-serif" font-size="38.833" x="1214.89" y="1760.64">𝑏</text><path d="M512.362 2022.28 519.398 2022.28 521.01 2043.47C523.534 2039.35 525.356 2036.22 526.475 2034.07 527.594 2031.92 528.422 2030.07 528.959 2028.5 529.496 2026.93 529.908 2025.3 530.194 2023.6L530.49 2022.28 534.357 2022.28 536.317 2043.5C539.11 2039.52 541.236 2036.06 542.695 2033.09 544.154 2030.13 544.884 2027.72 544.884 2025.85 544.884 2025.01 544.705 2024.44 544.347 2024.14 543.989 2023.83 543.38 2023.65 542.521 2023.6L542.789 2022.28 549.718 2022.28 550.443 2023.63C549.817 2025.22 549.315 2026.45 548.939 2027.3 548.563 2028.16 548.071 2029.2 547.462 2030.41 546.853 2031.62 546.209 2032.82 545.529 2034.02 544.848 2035.22 544.047 2036.54 543.125 2037.98 542.203 2039.42 541.169 2040.99 540.023 2042.68 538.877 2044.37 537.526 2046.27 535.968 2048.39L532.772 2048.39 531.671 2037.16C531.582 2036.28 531.488 2035.14 531.389 2033.72 531.291 2032.31 531.224 2031.22 531.188 2030.45L530.892 2030.42C529.926 2032.8 528.61 2035.45 526.945 2038.37 525.28 2041.29 523.221 2044.63 520.768 2048.39L517.169 2048.39 515.128 2028.16C515.021 2027.13 514.887 2026.28 514.725 2025.64 514.564 2025 514.296 2024.51 513.92 2024.19 513.544 2023.87 512.926 2023.67 512.067 2023.6Z" fill-rule="evenodd"/><text fill="#000000" fill-opacity="0" font-family="Arial,Arial_MSFontService,sans-serif" font-size="26.1035" x="512.067" y="2045.12">𝑤</text><path d="M572.158 2036.03 605.244 2036.03 605.244 2039.6 572.158 2039.6ZM572.158 2024.89 605.244 2024.89 605.244 2028.46 572.158 2028.46Z" fill-rule="evenodd"/><text fill="#000000" fill-opacity="0" font-family="Arial,Arial_MSFontService,sans-serif" font-size="14.7168" x="572.158" y="2037.77">=</text><path d="M642.47 2021.85C644.851 2021.85 647.044 2022.12 649.05 2022.66L647.734 2028.73 644.914 2028.73C644.878 2027.37 644.766 2026.38 644.578 2025.77 644.39 2025.17 644.086 2024.71 643.665 2024.4 643.244 2024.1 642.649 2023.95 641.879 2023.95 640.071 2023.95 638.446 2024.67 637.005 2026.11 635.564 2027.55 634.387 2029.59 633.473 2032.23 632.56 2034.87 632.104 2037.41 632.104 2039.85 632.104 2041.67 632.462 2043.03 633.178 2043.92 633.894 2044.8 634.968 2045.24 636.401 2045.24 638.03 2045.24 639.44 2044.94 640.63 2044.32 641.821 2043.7 643.079 2042.73 644.404 2041.4L646.042 2043.04C644.359 2044.9 642.662 2046.26 640.953 2047.12 639.243 2047.98 637.403 2048.41 635.434 2048.41 632.838 2048.41 630.868 2047.64 629.526 2046.1 628.183 2044.56 627.512 2042.33 627.512 2039.39 627.512 2037.47 627.87 2035.37 628.586 2033.08 629.302 2030.79 630.349 2028.77 631.728 2027.04 633.106 2025.3 634.718 2024 636.562 2023.14 638.406 2022.28 640.375 2021.85 642.47 2021.85Z" fill-rule="evenodd"/><text fill="#000000" fill-opacity="0" font-family="Arial,Arial_MSFontService,sans-serif" font-size="26.5601" x="627.512" y="2045.09">𝑐</text><path d="M662.25 2021.83C662.805 2021.83 663.293 2021.89 663.713 2022.01 664.134 2022.14 664.505 2022.33 664.828 2022.59 665.15 2022.85 665.436 2023.19 665.687 2023.6 665.938 2024.01 666.18 2024.57 666.412 2025.28 666.645 2025.98 666.864 2026.86 667.07 2027.91 667.276 2028.96 667.46 2030.04 667.621 2031.17L667.889 2031.17C669.608 2028.76 670.911 2026.99 671.797 2025.87 672.683 2024.75 673.43 2023.92 674.039 2023.37 674.648 2022.82 675.234 2022.44 675.798 2022.22 676.362 2021.99 677.11 2021.88 678.041 2021.88 678.882 2021.88 679.571 2021.99 680.109 2022.2L679.034 2027.06 677.154 2027.06C677.047 2026.31 676.734 2025.94 676.214 2025.94 676.053 2025.94 675.883 2025.96 675.704 2026.02 675.525 2026.07 675.306 2026.19 675.046 2026.36 674.787 2026.54 674.406 2026.89 673.905 2027.41 673.404 2027.93 672.84 2028.57 672.213 2029.32 671.586 2030.07 670.942 2030.86 670.279 2031.68L668.453 2033.97C668.776 2035.68 669.08 2037.17 669.366 2038.42 669.653 2039.68 669.908 2040.72 670.132 2041.55 670.356 2042.38 670.552 2043.04 670.723 2043.53 670.893 2044.01 671.076 2044.37 671.273 2044.61 671.47 2044.85 671.671 2045.03 671.877 2045.12 672.083 2045.22 672.32 2045.27 672.589 2045.27 673.072 2045.27 673.542 2045.08 673.999 2044.71 674.455 2044.33 675.113 2043.48 675.973 2042.16L677.718 2043.31C676.465 2045.17 675.333 2046.48 674.321 2047.25 673.31 2048.01 672.106 2048.39 670.709 2048.39 669.939 2048.39 669.286 2048.25 668.749 2047.97 668.212 2047.69 667.746 2047.25 667.352 2046.64 666.958 2046.03 666.609 2045.08 666.305 2043.79 665.75 2041.5 665.41 2039.75 665.284 2038.53L665.016 2038.53C663.118 2041.2 661.708 2043.11 660.786 2044.28 659.864 2045.44 659.103 2046.3 658.503 2046.86 657.904 2047.41 657.322 2047.8 656.758 2048.02 656.194 2048.25 655.446 2048.36 654.515 2048.36 653.674 2048.36 652.984 2048.25 652.447 2048.04L653.522 2043.18 655.401 2043.18C655.509 2043.93 655.822 2044.3 656.341 2044.3 656.592 2044.3 656.856 2044.24 657.134 2044.1 657.411 2043.97 657.81 2043.65 658.329 2043.14 658.848 2042.63 659.564 2041.82 660.477 2040.73 661.39 2039.64 662.715 2038 664.452 2035.82 664.183 2034.4 663.906 2033.04 663.619 2031.74 663.333 2030.43 663.037 2029.21 662.733 2028.08 662.429 2026.96 662.178 2026.22 661.981 2025.87 661.784 2025.52 661.574 2025.28 661.35 2025.14 661.126 2025.01 660.844 2024.94 660.504 2024.94 660.128 2024.94 659.788 2025.03 659.484 2025.2 659.179 2025.37 658.848 2025.66 658.49 2026.08 658.132 2026.5 657.657 2027.16 657.067 2028.06L655.321 2026.9C656.449 2025.2 657.532 2023.93 658.57 2023.09 659.609 2022.25 660.835 2021.83 662.25 2021.83Z" fill-rule="evenodd"/><text fill="#000000" fill-opacity="0" font-family="Arial,Arial_MSFontService,sans-serif" font-size="26.5601" x="652.447" y="2045.07">𝑥</text><path d="M695.507 2002.52C696.548 2002.52 697.521 2002.63 698.426 2002.85 699.331 2003.07 700.116 2003.41 700.78 2003.86 701.444 2004.31 701.962 2004.87 702.333 2005.54 702.704 2006.21 702.889 2006.99 702.889 2007.87 702.889 2008.71 702.772 2009.44 702.538 2010.08 702.303 2010.72 701.942 2011.3 701.454 2011.82 700.966 2012.34 700.367 2012.81 699.657 2013.23 698.947 2013.66 698.13 2014.06 697.206 2014.45L697.206 2014.69C698.078 2014.84 698.892 2015.09 699.647 2015.44 700.402 2015.79 701.063 2016.22 701.63 2016.75 702.196 2017.28 702.642 2017.88 702.967 2018.57 703.293 2019.26 703.456 2020.03 703.456 2020.86 703.456 2021.9 703.26 2022.87 702.87 2023.76 702.479 2024.65 701.893 2025.42 701.112 2026.07 700.331 2026.73 699.367 2027.23 698.221 2027.6 697.076 2027.96 695.734 2028.15 694.198 2028.15 692.987 2028.15 691.757 2028.02 690.507 2027.78 689.257 2027.54 688.072 2027.23 686.952 2026.84L686.952 2022.62 689.471 2022.62C689.68 2023.27 689.927 2023.83 690.214 2024.29 690.5 2024.75 690.835 2025.13 691.219 2025.42 691.604 2025.71 692.046 2025.93 692.548 2026.06 693.049 2026.19 693.619 2026.25 694.257 2026.25 695.936 2026.25 697.209 2025.85 698.075 2025.05 698.941 2024.25 699.374 2023.03 699.374 2021.41 699.374 2019.68 698.804 2018.36 697.665 2017.47 696.525 2016.58 694.836 2016.13 692.596 2016.13L690.878 2016.13 690.878 2014.26C692.245 2014.19 693.426 2014 694.423 2013.68 695.419 2013.36 696.249 2012.95 696.913 2012.44 697.577 2011.93 698.072 2011.34 698.397 2010.66 698.723 2009.99 698.885 2009.26 698.885 2008.5 698.885 2007.25 698.514 2006.26 697.772 2005.54 697.03 2004.82 695.956 2004.45 694.549 2004.45 693.365 2004.45 692.372 2004.78 691.571 2005.43 690.77 2006.08 690.155 2007.05 689.725 2008.34L687.245 2008.34 687.245 2004.49C688.781 2003.84 690.23 2003.35 691.591 2003.02 692.951 2002.69 694.257 2002.52 695.507 2002.52Z" fill-rule="evenodd"/><text fill="#000000" fill-opacity="0" font-family="Arial,Arial_MSFontService,sans-serif" font-size="25.625" x="686.952" y="2024.94">3</text><path d="M725.883 2030.45 758.969 2030.45 758.969 2034.02 725.883 2034.02Z" fill-rule="evenodd"/><text fill="#000000" fill-opacity="0" font-family="Arial,Arial_MSFontService,sans-serif" font-size="3.57178" x="725.883" y="2033.57">−</text><path d="M784.02 2021.83C785.166 2021.83 786.07 2022.21 786.733 2022.98 787.395 2023.75 787.726 2024.79 787.726 2026.1 787.726 2027.51 787.449 2029.27 786.894 2031.39L785.712 2036.03C785.408 2037.21 785.188 2038.14 785.054 2038.8 784.92 2039.46 784.821 2040.03 784.759 2040.52 784.696 2041 784.665 2041.4 784.665 2041.73 784.665 2042.96 784.871 2043.85 785.282 2044.4 785.694 2044.94 786.366 2045.22 787.297 2045.22 788.049 2045.22 788.859 2044.92 789.727 2044.32 790.595 2043.72 791.517 2042.81 792.493 2041.61 793.469 2040.4 794.252 2039.22 794.843 2038.09 795.434 2036.95 795.917 2035.55 796.293 2033.88L798.844 2022.26 803.49 2022.26 799.57 2039.28C799.176 2041 798.979 2042.33 798.979 2043.26 798.979 2043.97 799.095 2044.49 799.328 2044.81 799.561 2045.14 799.928 2045.3 800.429 2045.3 800.966 2045.3 801.539 2045.08 802.148 2044.64 802.756 2044.2 803.616 2043.36 804.726 2042.13L806.257 2043.63C804.627 2045.37 803.24 2046.6 802.094 2047.31 800.948 2048.03 799.731 2048.39 798.442 2048.39 797.332 2048.39 796.445 2048.02 795.783 2047.29 795.12 2046.55 794.789 2045.58 794.789 2044.36 794.789 2043.39 795.004 2042.34 795.434 2041.19L795.112 2041.08C793.339 2043.57 791.661 2045.41 790.076 2046.59 788.492 2047.77 786.867 2048.36 785.202 2048.36 783.537 2048.36 782.257 2047.88 781.362 2046.92 780.466 2045.96 780.019 2044.64 780.019 2042.93 780.019 2041.81 780.278 2040.2 780.798 2038.13L782.543 2031.09C783.027 2029.14 783.268 2027.76 783.268 2026.96 783.268 2026.24 783.152 2025.72 782.919 2025.4 782.686 2025.08 782.319 2024.91 781.818 2024.91 781.263 2024.91 780.677 2025.14 780.059 2025.6 779.441 2026.06 778.595 2026.88 777.521 2028.08L775.99 2026.58C777.512 2025.04 778.658 2023.98 779.428 2023.41 780.198 2022.84 780.936 2022.43 781.643 2022.19 782.351 2021.95 783.143 2021.83 784.02 2021.83Z" fill-rule="evenodd"/><text fill="#000000" fill-opacity="0" font-family="Arial,Arial_MSFontService,sans-serif" font-size="26.5601" x="775.99" y="2045.07">𝑢</text><path d="M1023.01 2006.77C1028.24 2008.15 1032.25 2011.12 1035.05 2015.7 1037.86 2020.27 1039.26 2025.79 1039.26 2032.25 1039.26 2038.73 1037.86 2044.25 1035.07 2048.81 1032.28 2053.37 1028.26 2056.33 1023.01 2057.71L1022.37 2055.64C1026.5 2054.27 1029.58 2051.54 1031.59 2047.48 1033.6 2043.42 1034.61 2038.25 1034.61 2031.98 1034.61 2025.93 1033.61 2020.91 1031.6 2016.91 1029.6 2012.9 1026.49 2010.21 1022.29 2008.84ZM829.336 2006.77 830.061 2008.84C825.871 2010.21 822.77 2012.9 820.755 2016.91 818.741 2020.91 817.734 2025.93 817.734 2031.98 817.734 2038.25 818.741 2043.42 820.755 2047.48 822.77 2051.54 825.844 2054.27 829.98 2055.64L829.336 2057.71C824.09 2056.33 820.071 2053.37 817.278 2048.81 814.485 2044.25 813.088 2038.73 813.088 2032.25 813.088 2025.79 814.489 2020.27 817.291 2015.7 820.093 2011.12 824.108 2008.15 829.336 2006.77Z" fill-rule="evenodd"/><path d="M853.557 2016.54 843.997 2033.45 854.497 2033.45 854.041 2024.81C853.987 2023.63 853.942 2022.15 853.906 2020.38 853.87 2018.6 853.853 2017.32 853.853 2016.54ZM853.718 2010.87 857.773 2010.87 859.707 2040.81C859.797 2042.23 859.958 2043.33 860.19 2044.13 860.423 2044.93 860.741 2045.52 861.144 2045.9 861.547 2046.29 862.133 2046.53 862.903 2046.64L862.607 2047.96 851.436 2047.96 851.731 2046.64C852.787 2046.55 853.575 2046.14 854.094 2045.41 854.614 2044.67 854.873 2043.38 854.873 2041.54 854.873 2040.84 854.846 2040.08 854.793 2039.26L854.605 2035.79 842.788 2035.79 841.311 2038.42C840.613 2039.66 840.103 2040.72 839.78 2041.61 839.458 2042.49 839.297 2043.28 839.297 2043.96 839.297 2045.46 840.201 2046.35 842.009 2046.64L841.714 2047.96 830.73 2047.96 831.025 2046.64C831.58 2046.57 832.104 2046.35 832.596 2045.98 833.089 2045.62 833.613 2045.06 834.168 2044.32 834.723 2043.57 835.501 2042.34 836.504 2040.63Z" fill-rule="evenodd"/><text fill="#000000" fill-opacity="0" font-family="Arial,Arial_MSFontService,sans-serif" font-size="37.0874" x="830.73" y="2043.32">𝐴</text><path d="M877.162 2021.83C877.717 2021.83 878.205 2021.89 878.626 2022.01 879.046 2022.14 879.418 2022.33 879.74 2022.59 880.062 2022.85 880.349 2023.19 880.6 2023.6 880.85 2024.01 881.092 2024.57 881.325 2025.28 881.557 2025.98 881.777 2026.86 881.983 2027.91 882.189 2028.96 882.372 2030.04 882.533 2031.17L882.802 2031.17C884.521 2028.76 885.823 2026.99 886.709 2025.87 887.595 2024.75 888.343 2023.92 888.952 2023.37 889.56 2022.82 890.147 2022.44 890.711 2022.22 891.275 2021.99 892.022 2021.88 892.953 2021.88 893.795 2021.88 894.484 2021.99 895.021 2022.2L893.947 2027.06 892.067 2027.06C891.959 2026.31 891.646 2025.94 891.127 2025.94 890.966 2025.94 890.796 2025.96 890.617 2026.02 890.438 2026.07 890.218 2026.19 889.959 2026.36 889.699 2026.54 889.319 2026.89 888.817 2027.41 888.316 2027.93 887.752 2028.57 887.125 2029.32 886.499 2030.07 885.854 2030.86 885.192 2031.68L883.366 2033.97C883.688 2035.68 883.992 2037.17 884.279 2038.42 884.565 2039.68 884.82 2040.72 885.044 2041.55 885.268 2042.38 885.465 2043.04 885.635 2043.53 885.805 2044.01 885.989 2044.37 886.186 2044.61 886.383 2044.85 886.584 2045.03 886.79 2045.12 886.996 2045.22 887.233 2045.27 887.501 2045.27 887.985 2045.27 888.455 2045.08 888.911 2044.71 889.368 2044.33 890.026 2043.48 890.885 2042.16L892.631 2043.31C891.378 2045.17 890.245 2046.48 889.234 2047.25 888.222 2048.01 887.018 2048.39 885.622 2048.39 884.852 2048.39 884.198 2048.25 883.661 2047.97 883.124 2047.69 882.659 2047.25 882.265 2046.64 881.871 2046.03 881.522 2045.08 881.217 2043.79 880.662 2041.5 880.322 2039.75 880.197 2038.53L879.928 2038.53C878.03 2041.2 876.621 2043.11 875.698 2044.28 874.776 2045.44 874.016 2046.3 873.416 2046.86 872.816 2047.41 872.234 2047.8 871.67 2048.02 871.106 2048.25 870.359 2048.36 869.428 2048.36 868.586 2048.36 867.897 2048.25 867.36 2048.04L868.434 2043.18 870.314 2043.18C870.421 2043.93 870.735 2044.3 871.254 2044.3 871.505 2044.3 871.769 2044.24 872.046 2044.1 872.324 2043.97 872.722 2043.65 873.241 2043.14 873.76 2042.63 874.477 2041.82 875.39 2040.73 876.303 2039.64 877.628 2038 879.364 2035.82 879.096 2034.4 878.818 2033.04 878.532 2031.74 878.245 2030.43 877.95 2029.21 877.646 2028.08 877.341 2026.96 877.091 2026.22 876.894 2025.87 876.697 2025.52 876.486 2025.28 876.262 2025.14 876.039 2025.01 875.757 2024.94 875.417 2024.94 875.041 2024.94 874.7 2025.03 874.396 2025.2 874.092 2025.37 873.76 2025.66 873.402 2026.08 873.044 2026.5 872.57 2027.16 871.979 2028.06L870.233 2026.9C871.361 2025.2 872.445 2023.93 873.483 2023.09 874.521 2022.25 875.748 2021.83 877.162 2021.83Z" fill-rule="evenodd"/><text fill="#000000" fill-opacity="0" font-family="Arial,Arial_MSFontService,sans-serif" font-size="26.5601" x="867.36" y="2045.07">𝑥</text><path d="M910.419 2002.52C911.461 2002.52 912.434 2002.63 913.339 2002.85 914.244 2003.07 915.028 2003.41 915.692 2003.86 916.357 2004.31 916.874 2004.87 917.245 2005.54 917.616 2006.21 917.802 2006.99 917.802 2007.87 917.802 2008.71 917.685 2009.44 917.45 2010.08 917.216 2010.72 916.855 2011.3 916.366 2011.82 915.878 2012.34 915.279 2012.81 914.569 2013.23 913.86 2013.66 913.043 2014.06 912.118 2014.45L912.118 2014.69C912.991 2014.84 913.804 2015.09 914.56 2015.44 915.315 2015.79 915.976 2016.22 916.542 2016.75 917.108 2017.28 917.554 2017.88 917.88 2018.57 918.205 2019.26 918.368 2020.03 918.368 2020.86 918.368 2021.9 918.173 2022.87 917.782 2023.76 917.392 2024.65 916.806 2025.42 916.024 2026.07 915.243 2026.73 914.28 2027.23 913.134 2027.6 911.988 2027.96 910.647 2028.15 909.11 2028.15 907.899 2028.15 906.669 2028.02 905.419 2027.78 904.169 2027.54 902.984 2027.23 901.864 2026.84L901.864 2022.62 904.384 2022.62C904.592 2023.27 904.84 2023.83 905.126 2024.29 905.412 2024.75 905.748 2025.13 906.132 2025.42 906.516 2025.71 906.959 2025.93 907.46 2026.06 907.961 2026.19 908.531 2026.25 909.169 2026.25 910.849 2026.25 912.121 2025.85 912.987 2025.05 913.853 2024.25 914.286 2023.03 914.286 2021.41 914.286 2019.68 913.717 2018.36 912.577 2017.47 911.438 2016.58 909.748 2016.13 907.509 2016.13L905.79 2016.13 905.79 2014.26C907.157 2014.19 908.339 2014 909.335 2013.68 910.331 2013.36 911.161 2012.95 911.825 2012.44 912.489 2011.93 912.984 2011.34 913.31 2010.66 913.635 2009.99 913.798 2009.26 913.798 2008.5 913.798 2007.25 913.427 2006.26 912.685 2005.54 911.942 2004.82 910.868 2004.45 909.462 2004.45 908.277 2004.45 907.284 2004.78 906.483 2005.43 905.683 2006.08 905.067 2007.05 904.638 2008.34L902.157 2008.34 902.157 2004.49C903.694 2003.84 905.142 2003.35 906.503 2003.02 907.864 2002.69 909.169 2002.52 910.419 2002.52Z" fill-rule="evenodd"/><text fill="#000000" fill-opacity="0" font-family="Arial,Arial_MSFontService,sans-serif" font-size="25.625" x="901.864" y="2024.94">3</text><path d="M940.795 2030.45 973.881 2030.45 973.881 2034.02 940.795 2034.02Z" fill-rule="evenodd"/><text fill="#000000" fill-opacity="0" font-family="Arial,Arial_MSFontService,sans-serif" font-size="3.57178" x="940.795" y="2033.57">−</text><path d="M1008.98 2025C1008.12 2025 1007.27 2025.27 1006.44 2025.81 1005.61 2026.36 1004.68 2027.26 1003.66 2028.53 1002.64 2029.79 1001.81 2031.08 1001.16 2032.41 1000.52 2033.73 999.971 2035.42 999.523 2037.48L999.282 2038.61C999.013 2039.86 998.879 2041.08 998.879 2042.26 998.879 2043.68 999.188 2044.7 999.805 2045.32 1000.42 2045.95 1001.45 2046.26 1002.88 2046.26 1003.61 2046.26 1004.31 2046.14 1004.98 2045.9 1005.64 2045.66 1006.31 2045.26 1007 2044.71 1007.69 2044.15 1008.35 2043.42 1008.96 2042.52 1009.58 2041.61 1010.15 2040.5 1010.67 2039.18 1011.19 2037.85 1011.59 2036.43 1011.88 2034.92 1012.16 2033.41 1012.31 2031.96 1012.31 2030.58 1012.31 2028.72 1012.04 2027.32 1011.51 2026.39 1010.99 2025.46 1010.14 2025 1008.98 2025ZM1004.28 2009.55 1005.83 2009.55 1001.11 2028.35 1001.46 2028.46C1003.19 2026.13 1004.82 2024.45 1006.34 2023.41 1007.87 2022.37 1009.39 2021.85 1010.91 2021.85 1012.86 2021.85 1014.38 2022.6 1015.46 2024.08 1016.55 2025.57 1017.09 2027.66 1017.09 2030.37 1017.09 2033.32 1016.49 2036.23 1015.3 2039.08 1014.11 2041.94 1012.46 2044.2 1010.35 2045.88 1008.23 2047.55 1005.87 2048.39 1003.26 2048.39 1000.88 2048.39 998.763 2047.8 996.919 2046.64L994.448 2048.39 992.729 2047.96 999.685 2017.26C1000.1 2015.43 1000.3 2014.11 1000.3 2013.29 1000.3 2012.53 1000.07 2012.01 999.617 2011.7 999.161 2011.4 998.342 2011.23 997.16 2011.19L997.482 2009.8Z" fill-rule="evenodd"/><text fill="#000000" fill-opacity="0" font-family="Arial,Arial_MSFontService,sans-serif" font-size="38.833" x="992.729" y="2043.53">𝑏</text><path d="M807.158 2164.97 814.195 2164.97 815.806 2186.16C818.33 2182.04 820.152 2178.91 821.271 2176.76 822.39 2174.61 823.218 2172.75 823.755 2171.19 824.292 2169.62 824.704 2167.99 824.99 2166.29L825.286 2164.97 829.153 2164.97 831.114 2186.19C833.906 2182.21 836.033 2178.74 837.492 2175.78 838.951 2172.82 839.68 2170.4 839.68 2168.54 839.68 2167.7 839.501 2167.13 839.143 2166.82 838.785 2166.52 838.177 2166.34 837.317 2166.29L837.586 2164.97 844.514 2164.97 845.24 2166.31C844.613 2167.91 844.112 2169.13 843.736 2169.99 843.36 2170.85 842.867 2171.89 842.259 2173.09 841.65 2174.3 841.005 2175.51 840.325 2176.71 839.645 2177.91 838.843 2179.23 837.921 2180.67 836.999 2182.11 835.965 2183.67 834.82 2185.37 833.674 2187.06 832.322 2188.96 830.764 2191.07L827.569 2191.07 826.468 2179.85C826.378 2178.97 826.284 2177.82 826.186 2176.41 826.087 2175 826.02 2173.9 825.984 2173.13L825.689 2173.11C824.722 2175.49 823.406 2178.14 821.741 2181.06 820.076 2183.97 818.017 2187.31 815.564 2191.07L811.966 2191.07 809.925 2170.85C809.817 2169.81 809.683 2168.97 809.522 2168.33 809.361 2167.68 809.092 2167.2 808.716 2166.88 808.34 2166.55 807.722 2166.36 806.863 2166.29Z" fill-rule="evenodd"/><text fill="#000000" fill-opacity="0" font-family="Arial,Arial_MSFontService,sans-serif" font-size="26.1035" x="806.863" y="2187.81">𝑤</text><path d="M866.954 2178.72 900.04 2178.72 900.04 2182.29 866.954 2182.29ZM866.954 2167.57 900.04 2167.57 900.04 2171.15 866.954 2171.15Z" fill-rule="evenodd"/><text fill="#000000" fill-opacity="0" font-family="Arial,Arial_MSFontService,sans-serif" font-size="14.7168" x="866.954" y="2180.45">=</text><path d="M937.266 2164.54C939.648 2164.54 941.841 2164.81 943.846 2165.35L942.53 2171.42 939.71 2171.42C939.674 2170.05 939.563 2169.07 939.375 2168.46 939.187 2167.85 938.882 2167.4 938.461 2167.09 938.041 2166.79 937.445 2166.63 936.676 2166.63 934.867 2166.63 933.243 2167.36 931.801 2168.8 930.36 2170.24 929.183 2172.28 928.27 2174.92 927.357 2177.56 926.9 2180.1 926.9 2182.53 926.9 2184.36 927.258 2185.72 927.974 2186.6 928.691 2187.49 929.765 2187.93 931.197 2187.93 932.826 2187.93 934.236 2187.62 935.427 2187 936.617 2186.39 937.875 2185.42 939.2 2184.09L940.838 2185.73C939.155 2187.59 937.459 2188.95 935.749 2189.81 934.039 2190.67 932.2 2191.1 930.23 2191.1 927.634 2191.1 925.665 2190.33 924.322 2188.79 922.979 2187.25 922.308 2185.01 922.308 2182.08 922.308 2180.16 922.666 2178.06 923.382 2175.77 924.098 2173.47 925.146 2171.46 926.524 2169.72 927.903 2167.99 929.514 2166.69 931.358 2165.83 933.202 2164.97 935.172 2164.54 937.266 2164.54Z" fill-rule="evenodd"/><text fill="#000000" fill-opacity="0" font-family="Arial,Arial_MSFontService,sans-serif" font-size="26.5601" x="922.308" y="2187.78">𝑐</text><path d="M957.046 2164.51C957.601 2164.51 958.089 2164.58 958.51 2164.7 958.93 2164.83 959.302 2165.02 959.624 2165.28 959.946 2165.54 960.233 2165.87 960.483 2166.29 960.734 2166.7 960.976 2167.26 961.209 2167.96 961.441 2168.67 961.661 2169.55 961.867 2170.6 962.072 2171.64 962.256 2172.73 962.417 2173.86L962.686 2173.86C964.404 2171.44 965.707 2169.67 966.593 2168.55 967.479 2167.44 968.227 2166.6 968.836 2166.06 969.444 2165.51 970.031 2165.13 970.595 2164.9 971.159 2164.68 971.906 2164.57 972.837 2164.57 973.678 2164.57 974.368 2164.67 974.905 2164.89L973.831 2169.75 971.951 2169.75C971.843 2169 971.53 2168.62 971.011 2168.62 970.85 2168.62 970.68 2168.65 970.501 2168.7 970.322 2168.76 970.102 2168.87 969.843 2169.05 969.583 2169.23 969.203 2169.58 968.701 2170.1 968.2 2170.62 967.636 2171.25 967.009 2172.01 966.383 2172.76 965.738 2173.55 965.076 2174.37L963.25 2176.65C963.572 2178.37 963.876 2179.86 964.163 2181.11 964.449 2182.36 964.704 2183.41 964.928 2184.24 965.152 2185.07 965.349 2185.73 965.519 2186.21 965.689 2186.7 965.872 2187.06 966.069 2187.3 966.266 2187.54 966.468 2187.71 966.674 2187.81 966.88 2187.91 967.117 2187.96 967.385 2187.96 967.869 2187.96 968.339 2187.77 968.795 2187.39 969.252 2187.02 969.91 2186.17 970.769 2184.84L972.515 2186C971.261 2187.86 970.129 2189.17 969.117 2189.93 968.106 2190.69 966.902 2191.07 965.505 2191.07 964.736 2191.07 964.082 2190.93 963.545 2190.66 963.008 2190.38 962.542 2189.94 962.148 2189.33 961.755 2188.72 961.406 2187.77 961.101 2186.48 960.546 2184.19 960.206 2182.43 960.081 2181.22L959.812 2181.22C957.914 2183.89 956.504 2185.8 955.582 2186.96 954.66 2188.13 953.899 2188.99 953.3 2189.54 952.7 2190.1 952.118 2190.49 951.554 2190.71 950.99 2190.93 950.243 2191.05 949.312 2191.05 948.47 2191.05 947.781 2190.94 947.244 2190.72L948.318 2185.86 950.198 2185.86C950.305 2186.62 950.619 2186.99 951.138 2186.99 951.388 2186.99 951.652 2186.92 951.93 2186.79 952.208 2186.66 952.606 2186.33 953.125 2185.82 953.644 2185.31 954.36 2184.51 955.273 2183.42 956.187 2182.33 957.511 2180.69 959.248 2178.5 958.98 2177.09 958.702 2175.73 958.416 2174.42 958.129 2173.12 957.834 2171.9 957.529 2170.77 957.225 2169.64 956.974 2168.9 956.777 2168.55 956.58 2168.21 956.37 2167.96 956.146 2167.83 955.922 2167.7 955.641 2167.63 955.3 2167.63 954.924 2167.63 954.584 2167.71 954.28 2167.88 953.975 2168.05 953.644 2168.35 953.286 2168.77 952.928 2169.19 952.454 2169.85 951.863 2170.74L950.117 2169.59C951.245 2167.89 952.328 2166.62 953.367 2165.78 954.405 2164.93 955.632 2164.51 957.046 2164.51Z" fill-rule="evenodd"/><text fill="#000000" fill-opacity="0" font-family="Arial,Arial_MSFontService,sans-serif" font-size="26.5601" x="947.244" y="2187.75">𝑥</text><path d="M991.26 2150.05C990.01 2151.86 988.763 2153.66 987.52 2155.44 986.276 2157.23 985.023 2159.02 983.76 2160.81L983.76 2161.05 991.26 2161.05 991.26 2157.12C991.26 2156.68 991.266 2156.13 991.279 2155.48 991.292 2154.83 991.309 2154.17 991.328 2153.5 991.348 2152.83 991.371 2152.19 991.397 2151.58 991.423 2150.98 991.449 2150.47 991.475 2150.05ZM991.826 2145.48 994.932 2145.48 994.932 2161.05 995.283 2161.05C995.817 2161.05 996.25 2161.02 996.582 2160.97 996.914 2160.92 997.181 2160.81 997.383 2160.65 997.585 2160.48 997.754 2160.26 997.891 2159.96 998.028 2159.67 998.174 2159.29 998.33 2158.82L999.99 2158.82C999.951 2159.54 999.909 2160.25 999.863 2160.95 999.818 2161.65 999.776 2162.37 999.737 2163.1L994.932 2163.1 994.932 2165.66C994.932 2166.41 994.948 2167 994.981 2167.41 995.013 2167.83 995.111 2168.16 995.274 2168.39 995.436 2168.62 995.677 2168.8 995.996 2168.92 996.315 2169.03 996.761 2169.17 997.334 2169.33L997.334 2170.5 988.897 2170.5 988.897 2169.33C989.287 2169.22 989.619 2169.13 989.893 2169.04 990.166 2168.96 990.394 2168.86 990.576 2168.75 990.759 2168.64 990.892 2168.51 990.977 2168.36 991.061 2168.21 991.126 2168.02 991.172 2167.79 991.218 2167.57 991.244 2167.28 991.25 2166.94 991.257 2166.59 991.26 2166.16 991.26 2165.66L991.26 2163.1 980.264 2163.1 980.264 2161.55C982.204 2158.86 984.131 2156.18 986.045 2153.52 987.959 2150.85 989.886 2148.18 991.826 2145.48Z" fill-rule="evenodd"/><text fill="#000000" fill-opacity="0" font-family="Arial,Arial_MSFontService,sans-serif" font-size="25.0195" x="980.264" y="2167.37">4</text><path d="M1020.68 2173.13 1053.77 2173.13 1053.77 2176.71 1020.68 2176.71Z" fill-rule="evenodd"/><text fill="#000000" fill-opacity="0" font-family="Arial,Arial_MSFontService,sans-serif" font-size="3.57178" x="1020.68" y="2176.26">−</text><path d="M1078.82 2164.51C1079.96 2164.51 1080.87 2164.9 1081.53 2165.67 1082.19 2166.44 1082.52 2167.48 1082.52 2168.78 1082.52 2170.2 1082.25 2171.96 1081.69 2174.07L1080.51 2178.72C1080.2 2179.9 1079.98 2180.82 1079.85 2181.49 1079.72 2182.15 1079.62 2182.72 1079.56 2183.2 1079.49 2183.69 1079.46 2184.09 1079.46 2184.41 1079.46 2185.65 1079.67 2186.54 1080.08 2187.09 1080.49 2187.63 1081.16 2187.9 1082.09 2187.9 1082.84 2187.9 1083.66 2187.6 1084.52 2187 1085.39 2186.4 1086.31 2185.5 1087.29 2184.29 1088.27 2183.08 1089.05 2181.91 1089.64 2180.77 1090.23 2179.64 1090.71 2178.24 1091.09 2176.57L1093.64 2164.94 1098.29 2164.94 1094.37 2181.97C1093.97 2183.69 1093.78 2185.01 1093.78 2185.94 1093.78 2186.66 1093.89 2187.18 1094.12 2187.5 1094.36 2187.82 1094.72 2187.98 1095.23 2187.98 1095.76 2187.98 1096.34 2187.77 1096.94 2187.33 1097.55 2186.89 1098.41 2186.05 1099.52 2184.82L1101.05 2186.32C1099.42 2188.06 1098.04 2189.28 1096.89 2190 1095.74 2190.72 1094.53 2191.07 1093.24 2191.07 1092.13 2191.07 1091.24 2190.71 1090.58 2189.97 1089.92 2189.24 1089.59 2188.26 1089.59 2187.04 1089.59 2186.08 1089.8 2185.02 1090.23 2183.88L1089.91 2183.77C1088.14 2186.26 1086.46 2188.09 1084.87 2189.27 1083.29 2190.46 1081.66 2191.05 1080 2191.05 1078.33 2191.05 1077.05 2190.57 1076.16 2189.61 1075.26 2188.65 1074.82 2187.32 1074.82 2185.62 1074.82 2184.49 1075.07 2182.89 1075.59 2180.81L1077.34 2173.78C1077.82 2171.83 1078.06 2170.45 1078.06 2169.64 1078.06 2168.93 1077.95 2168.41 1077.72 2168.08 1077.48 2167.76 1077.12 2167.6 1076.61 2167.6 1076.06 2167.6 1075.47 2167.83 1074.86 2168.29 1074.24 2168.74 1073.39 2169.57 1072.32 2170.77L1070.79 2169.27C1072.31 2167.73 1073.45 2166.67 1074.22 2166.1 1074.99 2165.52 1075.73 2165.12 1076.44 2164.88 1077.15 2164.63 1077.94 2164.51 1078.82 2164.51Z" fill-rule="evenodd"/><text fill="#000000" fill-opacity="0" font-family="Arial,Arial_MSFontService,sans-serif" font-size="26.5601" x="1070.79" y="2187.75">𝑢</text><path d="M1317.81 2149.45C1323.03 2150.83 1327.05 2153.81 1329.85 2158.38 1332.65 2162.96 1334.05 2168.48 1334.05 2174.94 1334.05 2181.42 1332.66 2186.94 1329.86 2191.5 1327.07 2196.05 1323.05 2199.02 1317.81 2200.4L1317.16 2198.33C1321.3 2196.95 1324.37 2194.23 1326.39 2190.17 1328.4 2186.1 1329.41 2180.94 1329.41 2174.67 1329.41 2168.62 1328.41 2163.59 1326.4 2159.59 1324.4 2155.59 1321.29 2152.9 1317.08 2151.52ZM1124.13 2149.45 1124.86 2151.52C1120.67 2152.9 1117.57 2155.59 1115.55 2159.59 1113.54 2163.59 1112.53 2168.62 1112.53 2174.67 1112.53 2180.94 1113.54 2186.1 1115.55 2190.17 1117.57 2194.23 1120.64 2196.95 1124.78 2198.33L1124.13 2200.4C1118.89 2199.02 1114.87 2196.05 1112.07 2191.5 1109.28 2186.94 1107.88 2181.42 1107.88 2174.94 1107.88 2168.48 1109.29 2162.96 1112.09 2158.38 1114.89 2153.81 1118.9 2150.83 1124.13 2149.45Z" fill-rule="evenodd"/><path d="M1148.35 2159.22 1138.79 2176.14 1149.29 2176.14 1148.84 2167.49C1148.78 2166.31 1148.74 2164.84 1148.7 2163.06 1148.67 2161.29 1148.65 2160.01 1148.65 2159.22ZM1148.51 2153.56 1152.57 2153.56 1154.5 2183.5C1154.59 2184.91 1154.75 2186.02 1154.99 2186.82 1155.22 2187.61 1155.54 2188.2 1155.94 2188.59 1156.34 2188.97 1156.93 2189.22 1157.7 2189.33L1157.4 2190.64 1146.23 2190.64 1146.53 2189.33C1147.58 2189.24 1148.37 2188.83 1148.89 2188.09 1149.41 2187.36 1149.67 2186.07 1149.67 2184.23 1149.67 2183.53 1149.64 2182.77 1149.59 2181.94L1149.4 2178.48 1137.58 2178.48 1136.11 2181.11C1135.41 2182.35 1134.9 2183.41 1134.58 2184.29 1134.25 2185.18 1134.09 2185.96 1134.09 2186.64 1134.09 2188.15 1135 2189.04 1136.81 2189.33L1136.51 2190.64 1125.53 2190.64 1125.82 2189.33C1126.38 2189.26 1126.9 2189.04 1127.39 2188.67 1127.89 2188.3 1128.41 2187.75 1128.96 2187 1129.52 2186.26 1130.3 2185.03 1131.3 2183.31Z" fill-rule="evenodd"/><text fill="#000000" fill-opacity="0" font-family="Arial,Arial_MSFontService,sans-serif" font-size="37.0874" x="1125.53" y="2186.01">𝐴</text><path d="M1171.96 2164.51C1172.51 2164.51 1173 2164.58 1173.42 2164.7 1173.84 2164.83 1174.21 2165.02 1174.54 2165.28 1174.86 2165.54 1175.15 2165.87 1175.4 2166.29 1175.65 2166.7 1175.89 2167.26 1176.12 2167.96 1176.35 2168.67 1176.57 2169.55 1176.78 2170.6 1176.98 2171.64 1177.17 2172.73 1177.33 2173.86L1177.6 2173.86C1179.32 2171.44 1180.62 2169.67 1181.51 2168.55 1182.39 2167.44 1183.14 2166.6 1183.75 2166.06 1184.36 2165.51 1184.94 2165.13 1185.51 2164.9 1186.07 2164.68 1186.82 2164.57 1187.75 2164.57 1188.59 2164.57 1189.28 2164.67 1189.82 2164.89L1188.74 2169.75 1186.86 2169.75C1186.76 2169 1186.44 2168.62 1185.92 2168.62 1185.76 2168.62 1185.59 2168.65 1185.41 2168.7 1185.23 2168.76 1185.01 2168.87 1184.76 2169.05 1184.5 2169.23 1184.12 2169.58 1183.61 2170.1 1183.11 2170.62 1182.55 2171.25 1181.92 2172.01 1181.3 2172.76 1180.65 2173.55 1179.99 2174.37L1178.16 2176.65C1178.48 2178.37 1178.79 2179.86 1179.08 2181.11 1179.36 2182.36 1179.62 2183.41 1179.84 2184.24 1180.06 2185.07 1180.26 2185.73 1180.43 2186.21 1180.6 2186.7 1180.79 2187.06 1180.98 2187.3 1181.18 2187.54 1181.38 2187.71 1181.59 2187.81 1181.79 2187.91 1182.03 2187.96 1182.3 2187.96 1182.78 2187.96 1183.25 2187.77 1183.71 2187.39 1184.16 2187.02 1184.82 2186.17 1185.68 2184.84L1187.43 2186C1186.17 2187.86 1185.04 2189.17 1184.03 2189.93 1183.02 2190.69 1181.81 2191.07 1180.42 2191.07 1179.65 2191.07 1178.99 2190.93 1178.46 2190.66 1177.92 2190.38 1177.45 2189.94 1177.06 2189.33 1176.67 2188.72 1176.32 2187.77 1176.01 2186.48 1175.46 2184.19 1175.12 2182.43 1174.99 2181.22L1174.72 2181.22C1172.83 2183.89 1171.42 2185.8 1170.49 2186.96 1169.57 2188.13 1168.81 2188.99 1168.21 2189.54 1167.61 2190.1 1167.03 2190.49 1166.47 2190.71 1165.9 2190.93 1165.16 2191.05 1164.22 2191.05 1163.38 2191.05 1162.69 2190.94 1162.16 2190.72L1163.23 2185.86 1165.11 2185.86C1165.22 2186.62 1165.53 2186.99 1166.05 2186.99 1166.3 2186.99 1166.57 2186.92 1166.84 2186.79 1167.12 2186.66 1167.52 2186.33 1168.04 2185.82 1168.56 2185.31 1169.27 2184.51 1170.19 2183.42 1171.1 2182.33 1172.42 2180.69 1174.16 2178.5 1173.89 2177.09 1173.61 2175.73 1173.33 2174.42 1173.04 2173.12 1172.75 2171.9 1172.44 2170.77 1172.14 2169.64 1171.89 2168.9 1171.69 2168.55 1171.49 2168.21 1171.28 2167.96 1171.06 2167.83 1170.84 2167.7 1170.55 2167.63 1170.21 2167.63 1169.84 2167.63 1169.5 2167.71 1169.19 2167.88 1168.89 2168.05 1168.56 2168.35 1168.2 2168.77 1167.84 2169.19 1167.37 2169.85 1166.78 2170.74L1165.03 2169.59C1166.16 2167.89 1167.24 2166.62 1168.28 2165.78 1169.32 2164.93 1170.54 2164.51 1171.96 2164.51Z" fill-rule="evenodd"/><text fill="#000000" fill-opacity="0" font-family="Arial,Arial_MSFontService,sans-serif" font-size="26.5601" x="1162.16" y="2187.75">𝑥</text><path d="M1206.17 2150.05C1204.92 2151.86 1203.68 2153.66 1202.43 2155.44 1201.19 2157.23 1199.94 2159.02 1198.67 2160.81L1198.67 2161.05 1206.17 2161.05 1206.17 2157.12C1206.17 2156.68 1206.18 2156.13 1206.19 2155.48 1206.21 2154.83 1206.22 2154.17 1206.24 2153.5 1206.26 2152.83 1206.28 2152.19 1206.31 2151.58 1206.34 2150.98 1206.36 2150.47 1206.39 2150.05ZM1206.74 2145.48 1209.84 2145.48 1209.84 2161.05 1210.2 2161.05C1210.73 2161.05 1211.16 2161.02 1211.49 2160.97 1211.83 2160.92 1212.09 2160.81 1212.3 2160.65 1212.5 2160.48 1212.67 2160.26 1212.8 2159.96 1212.94 2159.67 1213.09 2159.29 1213.24 2158.82L1214.9 2158.82C1214.86 2159.54 1214.82 2160.25 1214.78 2160.95 1214.73 2161.65 1214.69 2162.37 1214.65 2163.1L1209.84 2163.1 1209.84 2165.66C1209.84 2166.41 1209.86 2167 1209.89 2167.41 1209.93 2167.83 1210.02 2168.16 1210.19 2168.39 1210.35 2168.62 1210.59 2168.8 1210.91 2168.92 1211.23 2169.03 1211.67 2169.17 1212.25 2169.33L1212.25 2170.5 1203.81 2170.5 1203.81 2169.33C1204.2 2169.22 1204.53 2169.13 1204.81 2169.04 1205.08 2168.96 1205.31 2168.86 1205.49 2168.75 1205.67 2168.64 1205.8 2168.51 1205.89 2168.36 1205.97 2168.21 1206.04 2168.02 1206.08 2167.79 1206.13 2167.57 1206.16 2167.28 1206.16 2166.94 1206.17 2166.59 1206.17 2166.16 1206.17 2165.66L1206.17 2163.1 1195.18 2163.1 1195.18 2161.55C1197.12 2158.86 1199.04 2156.18 1200.96 2153.52 1202.87 2150.85 1204.8 2148.18 1206.74 2145.48Z" fill-rule="evenodd"/><text fill="#000000" fill-opacity="0" font-family="Arial,Arial_MSFontService,sans-serif" font-size="25.0195" x="1195.18" y="2167.37">4</text><path d="M1235.59 2173.13 1268.68 2173.13 1268.68 2176.71 1235.59 2176.71Z" fill-rule="evenodd"/><text fill="#000000" fill-opacity="0" font-family="Arial,Arial_MSFontService,sans-serif" font-size="3.57178" x="1235.59" y="2176.26">−</text><path d="M1303.77 2167.68C1302.91 2167.68 1302.07 2167.96 1301.24 2168.5 1300.4 2169.05 1299.48 2169.95 1298.46 2171.21 1297.44 2172.48 1296.6 2173.77 1295.96 2175.09 1295.31 2176.42 1294.77 2178.11 1294.32 2180.17L1294.08 2181.3C1293.81 2182.55 1293.68 2183.77 1293.68 2184.95 1293.68 2186.36 1293.98 2187.39 1294.6 2188.01 1295.22 2188.64 1296.24 2188.95 1297.68 2188.95 1298.41 2188.95 1299.11 2188.83 1299.77 2188.59 1300.43 2188.35 1301.11 2187.95 1301.8 2187.39 1302.49 2186.84 1303.14 2186.11 1303.76 2185.21 1304.38 2184.3 1304.95 2183.19 1305.46 2181.86 1305.98 2180.54 1306.39 2179.12 1306.67 2177.61 1306.96 2176.09 1307.1 2174.65 1307.1 2173.27 1307.1 2171.41 1306.84 2170.01 1306.31 2169.08 1305.78 2168.15 1304.94 2167.68 1303.77 2167.68ZM1299.07 2152.24 1300.63 2152.24 1295.9 2171.04 1296.25 2171.15C1297.99 2168.82 1299.62 2167.14 1301.14 2166.1 1302.66 2165.06 1304.18 2164.54 1305.71 2164.54 1307.66 2164.54 1309.18 2165.28 1310.26 2166.77 1311.34 2168.26 1311.88 2170.35 1311.88 2173.05 1311.88 2176.01 1311.29 2178.91 1310.1 2181.77 1308.91 2184.62 1307.26 2186.89 1305.14 2188.56 1303.03 2190.24 1300.67 2191.07 1298.05 2191.07 1295.67 2191.07 1293.56 2190.49 1291.71 2189.33L1289.24 2191.07 1287.53 2190.64 1294.48 2159.95C1294.89 2158.12 1295.1 2156.8 1295.1 2155.97 1295.1 2155.22 1294.87 2154.69 1294.41 2154.39 1293.96 2154.08 1293.14 2153.91 1291.96 2153.88L1292.28 2152.48Z" fill-rule="evenodd"/><text fill="#000000" fill-opacity="0" font-family="Arial,Arial_MSFontService,sans-serif" font-size="38.833" x="1287.53" y="2186.22">𝑏</text><path d="M204 1885 569.69 1885" stroke="#000000" stroke-width="2.29167" stroke-miterlimit="8" stroke-dasharray="9.16667 6.875" fill="none" fill-rule="evenodd"/><path d="M111.167 1875.82 130.261 1875.82 130.771 1877.16 117.961 1891.88C115.472 1894.72 113.315 1897.14 111.489 1899.13L111.65 1899.32 117.719 1899.32C118.793 1899.32 119.617 1899.26 120.19 1899.14 120.763 1899.03 121.264 1898.81 121.694 1898.48 122.124 1898.16 122.567 1897.67 123.023 1897.02 123.48 1896.37 124.048 1895.34 124.729 1893.95L127.119 1893.95 125.48 1901.49 106.037 1901.49 105.527 1900.18 120.217 1883.26C122.294 1880.88 123.815 1879.18 124.782 1878.18L124.621 1877.99 118.337 1877.99C117.406 1877.99 116.726 1878.06 116.296 1878.18 115.866 1878.31 115.437 1878.53 115.007 1878.84 114.577 1879.15 114.116 1879.62 113.624 1880.24 113.131 1880.85 112.581 1881.74 111.972 1882.88L109.582 1882.88Z" fill-rule="evenodd"/><text fill="#000000" fill-opacity="0" font-family="Arial,Arial_MSFontService,sans-serif" font-size="25.6738" x="105.527" y="1898.28">𝑧</text><path d="M166.076 1889.42C165.621 1889.42 165.22 1889.43 164.875 1889.44 164.53 1889.45 164.214 1889.47 163.928 1889.5L159.182 1910.65C159.234 1910.65 159.351 1910.65 159.533 1910.66 159.716 1910.67 159.917 1910.67 160.139 1910.68 160.36 1910.69 160.585 1910.69 160.813 1910.7 161.04 1910.71 161.226 1910.71 161.369 1910.71 163.505 1910.71 165.311 1910.38 166.789 1909.72 168.267 1909.07 169.533 1908.04 170.588 1906.65 171.643 1905.2 172.417 1903.69 172.912 1902.11 173.407 1900.52 173.654 1898.81 173.654 1896.96 173.654 1895.76 173.488 1894.69 173.156 1893.76 172.824 1892.82 172.336 1892.03 171.692 1891.38 171.047 1890.74 170.253 1890.25 169.309 1889.92 168.365 1889.59 167.287 1889.42 166.076 1889.42ZM157.971 1887.39 165.705 1887.39C166.968 1887.39 168.065 1887.45 168.996 1887.57 169.927 1887.68 170.731 1887.86 171.408 1888.09 172.333 1888.35 173.179 1888.73 173.947 1889.23 174.716 1889.72 175.38 1890.34 175.94 1891.07 176.499 1891.81 176.936 1892.67 177.248 1893.65 177.561 1894.63 177.717 1895.74 177.717 1896.96 177.717 1899.29 177.359 1901.42 176.643 1903.35 175.927 1905.27 174.878 1906.93 173.498 1908.32 172.118 1909.7 170.419 1910.78 168.401 1911.56 166.382 1912.33 164.065 1912.72 161.447 1912.72L153.147 1912.72 153.361 1911.53C153.765 1911.46 154.094 1911.39 154.348 1911.31 154.602 1911.22 154.83 1911.04 155.031 1910.76 155.233 1910.48 155.419 1910.06 155.588 1909.5 155.757 1908.94 155.953 1908.14 156.174 1907.12L159.377 1892.88C159.507 1892.3 159.605 1891.8 159.67 1891.35 159.735 1890.91 159.768 1890.53 159.768 1890.22 159.768 1889.65 159.618 1889.24 159.318 1889 159.019 1888.76 158.472 1888.63 157.678 1888.62ZM135.971 1887.39 144.213 1887.39 143.998 1888.56C143.542 1888.68 143.181 1888.78 142.914 1888.86 142.647 1888.95 142.419 1889.13 142.231 1889.4 142.042 1889.67 141.873 1890.08 141.723 1890.62 141.573 1891.16 141.381 1891.95 141.147 1892.99L137.182 1910.65 142.279 1910.65C142.996 1910.65 143.614 1910.59 144.135 1910.47 144.656 1910.34 145.138 1910.08 145.58 1909.68 146.023 1909.29 146.449 1908.72 146.86 1907.99 147.27 1907.27 147.722 1906.3 148.217 1905.08L150.365 1905.08 148.354 1912.72 131.147 1912.72 131.361 1911.53C131.765 1911.46 132.097 1911.38 132.358 1911.29 132.618 1911.19 132.849 1911 133.051 1910.72 133.253 1910.44 133.435 1910.02 133.598 1909.46 133.761 1908.9 133.953 1908.12 134.174 1907.12L137.377 1892.88C137.507 1892.3 137.605 1891.8 137.67 1891.35 137.735 1890.91 137.768 1890.53 137.768 1890.22 137.768 1889.65 137.618 1889.24 137.318 1889 137.019 1888.76 136.472 1888.63 135.678 1888.62Z" fill-rule="evenodd"/><text fill="#000000" fill-opacity="0" font-family="Arial,Arial_MSFontService,sans-serif" font-size="25.332" x="131.147" y="1909.55">𝐿𝐷</text></g></svg>