<svg width="1247" height="852" xmlns="http://www.w3.org/2000/svg" xmlns:xlink="http://www.w3.org/1999/xlink" xml:space="preserve" overflow="hidden"><g transform="translate(-1027 -429)"><path d="M1029.5 847.5C1029.5 816.572 1055.02 791.5 1086.5 791.5 1117.98 791.5 1143.5 816.572 1143.5 847.5 1143.5 878.428 1117.98 903.5 1086.5 903.5 1055.02 903.5 1029.5 878.428 1029.5 847.5Z" stroke="#000000" stroke-width="4.58333" stroke-miterlimit="8" fill="none" fill-rule="evenodd"/><text font-family="Microsoft YaHei,Microsoft YaHei_MSFontService,sans-serif" font-weight="400" font-size="64" transform="matrix(1 0 0 1 1067.07 870)">1</text><path d="M1585.5 488C1585.5 457.348 1610.8 432.5 1642 432.5 1673.2 432.5 1698.5 457.348 1698.5 488 1698.5 518.652 1673.2 543.5 1642 543.5 1610.8 543.5 1585.5 518.652 1585.5 488Z" stroke="#000000" stroke-width="4.58333" stroke-miterlimit="8" fill="none" fill-rule="evenodd"/><text font-family="Microsoft YaHei,Microsoft YaHei_MSFontService,sans-serif" font-weight="400" font-size="64" transform="matrix(1 0 0 1 1622.74 511)">2</text><path d="M1585.5 1204.5C1585.5 1173.57 1610.8 1148.5 1642 1148.5 1673.2 1148.5 1698.5 1173.57 1698.5 1204.5 1698.5 1235.43 1673.2 1260.5 1642 1260.5 1610.8 1260.5 1585.5 1235.43 1585.5 1204.5Z" stroke="#000000" stroke-width="4.58333" stroke-miterlimit="8" fill="none" fill-rule="evenodd"/><text font-family="Microsoft YaHei,Microsoft YaHei_MSFontService,sans-serif" font-weight="400" font-size="64" transform="matrix(1 0 0 1 1622.74 1227)">3</text><path d="M2157.5 847.5C2157.5 816.572 2183.02 791.5 2214.5 791.5 2245.98 791.5 2271.5 816.572 2271.5 847.5 2271.5 878.428 2245.98 903.5 2214.5 903.5 2183.02 903.5 2157.5 878.428 2157.5 847.5Z" stroke="#000000" stroke-width="4.58333" stroke-miterlimit="8" fill="none" fill-rule="evenodd"/><text font-family="Microsoft YaHei,Microsoft YaHei_MSFontService,sans-serif" font-weight="400" font-size="64" transform="matrix(1 0 0 1 2195.11 870)">4</text><path d="M0.582066-0.986982 456.419 267.84 455.255 269.814-0.582066 0.986982ZM458.874 254.655 475.577 280.468 444.904 278.342Z" transform="matrix(1 0 0 -1 1126 807.468)"/><path d="M1126.58 885.011 1582.37 1151.45 1581.21 1153.42 1125.42 886.989ZM1584.77 1138.25 1601.58 1164 1570.9 1161.99Z"/><path d="M1682.57 526.004 2154.95 795.128 2153.81 797.119 1681.43 527.996ZM2157.2 781.908 2174.29 807.468 2143.59 805.802Z"/><path d="M0.563428-0.997739 472.901 265.733 471.774 267.729-0.563428 0.997739ZM475.108 252.505 492.292 278 461.585 276.45Z" transform="matrix(1 0 0 -1 1682 1164)"/><path d="M1643.15 543 1643.15 1124.73 1640.85 1124.73 1640.85 543ZM1655.75 1120.14 1642 1147.64 1628.25 1120.14Z"/><text font-family="Microsoft YaHei,Microsoft YaHei_MSFontService,sans-serif" font-weight="400" font-size="64" transform="matrix(1 0 0 1 1255.9 650)">(1)</text><text font-family="Microsoft YaHei,Microsoft YaHei_MSFontService,sans-serif" font-weight="400" font-size="64" transform="matrix(1 0 0 1 1955.96 650)">(3)</text><text font-family="Microsoft YaHei,Microsoft YaHei_MSFontService,sans-serif" font-weight="400" font-size="64" transform="matrix(1 0 0 1 1675.11 869)">(2)</text><text font-family="Microsoft YaHei,Microsoft YaHei_MSFontService,sans-serif" font-weight="400" font-size="64" transform="matrix(1 0 0 1 1255.9 1068)">(2)</text><text font-family="Microsoft YaHei,Microsoft YaHei_MSFontService,sans-serif" font-weight="400" font-size="64" transform="matrix(1 0 0 1 1955.96 1068)">(1)</text></g></svg>